<svg width="25" height="21" viewBox="0 0 25 21" fill="none" xmlns="http://www.w3.org/2000/svg">
<path d="M0.109942 17.8872C0.0229703 17.7765 0 17.6233 0 17.4826C0 17.3243 0.0333289 17.1724 0.134287 17.0505C0.304582 16.845 0.530673 16.6928 0.714286 16.5C1.7619 15.4318 2.47619 14.1818 3.04762 12.8409C4 10.5909 4.38095 8.25 4.35714 5.84091C4.35714 4.65909 4.35714 3.47727 4.35714 2.29545C4.35714 1.63636 4.61905 1.38636 5.28571 1.38636C6.35714 1.38636 7.42857 1.38636 8.5 1.38636C8.71429 1.38636 8.80952 1.31818 8.78572 1.11364C8.76191 0.954545 8.78572 0.795455 8.78572 0.659091C8.83333 0.295455 9.14286 0 9.54762 0C9.95238 0 10.2857 0.272727 10.3095 0.659091C10.3095 0.818182 10.3095 1 10.3095 1.18182C10.3095 1.31818 10.3571 1.40909 10.5238 1.40909C11.5952 1.40909 12.6429 1.40909 13.7143 1.40909C13.881 1.40909 13.9286 1.34091 13.9286 1.20455C13.9286 1.04545 13.9286 0.886364 13.9286 0.704545C13.9524 0.295455 14.2619 0 14.6905 0C15.0952 0 15.4048 0.295455 15.4286 0.681818C15.4286 0.863636 15.4286 1.02273 15.4286 1.20455C15.4286 1.34091 15.5 1.40909 15.6429 1.40909C16.7143 1.40909 17.8095 1.40909 18.881 1.40909C19.0238 1.40909 19.0952 1.34091 19.0952 1.20455C19.0952 1.02273 19.0952 0.863636 19.0952 0.681818C19.119 0.295455 19.4286 0 19.8571 0C20.2619 0 20.5952 0.295455 20.5952 0.681818C20.5952 0.818182 20.5952 0.954545 20.5952 1.06818C20.5952 1.38636 20.5952 1.38636 20.9286 1.38636C22 1.38636 23.0714 1.38636 24.1429 1.38636C24.6905 1.38636 24.9762 1.65909 25 2.18182C25 2.84091 25 3.52273 25 4.18182C25 9.5 25 14.8409 25 20.1591C25 20.6818 24.7143 20.9773 24.2143 20.9773C17.881 20.9773 11.5238 20.9773 5.19048 20.9773C4.69048 20.9773 4.38095 20.6818 4.38095 20.2045C4.38095 19.6364 4.38095 19.0455 4.38095 18.4773C4.38095 18.1818 4.38095 18.1818 4.07143 18.1818C3.02381 18.1818 1.95238 18.1818 0.904762 18.1818C0.557381 18.2002 0.288215 18.1141 0.109942 17.8872ZM11.0238 16.7727C13.5238 16.7727 16.0238 16.7727 18.5476 16.7727C19.6667 16.7727 19.6667 16.7727 20.3333 15.9318C22.3571 13.4091 23.2381 10.5 23.4524 7.38636C23.4762 7.02273 23.4524 7.02273 23.0714 7.02273C17.4524 7.02273 11.8571 7.02273 6.2381 7.02273C6.19048 7.02273 6.16667 7.02273 6.11905 7.02273C5.92857 7 5.85714 7.09091 5.85714 7.27273C5.80952 7.97727 5.7381 8.70455 5.61905 9.40909C5.19143 11.9942 4.26603 14.3984 2.62998 16.5312C2.62273 16.5407 2.61269 16.5514 2.60425 16.5598C2.57315 16.5908 2.55469 16.6318 2.54153 16.6738C2.52208 16.7358 2.5676 16.75 2.64286 16.75C2.71429 16.75 2.7619 16.75 2.83333 16.75C5.57143 16.7727 8.30952 16.7727 11.0238 16.7727ZM14.6667 5.59091C17.4524 5.59091 20.2619 5.59091 23.0476 5.59091C23.119 5.59091 23.1905 5.59091 23.2619 5.59091C23.4286 5.59091 23.4762 5.52273 23.4762 5.38636C23.4762 4.61364 23.4762 3.81818 23.4762 3.04545C23.4762 2.90909 23.4048 2.84091 23.2619 2.84091C22.4524 2.84091 21.619 2.84091 20.8095 2.84091C20.6667 2.84091 20.5952 2.90909 20.5952 3.04545C20.5952 3.22727 20.5952 3.38636 20.5952 3.56818C20.5714 3.95455 20.2619 4.25 19.8333 4.25C19.4286 4.25 19.0952 3.95455 19.0952 3.56818C19.0952 3.40909 19.0952 3.25 19.0952 3.06818C19.0952 2.90909 19.0476 2.84091 18.8571 2.84091C17.7857 2.84091 16.7143 2.84091 15.6429 2.84091C15.3933 2.84091 15.4286 3.19348 15.4286 3.44306C15.4286 3.4837 15.4286 3.52531 15.4286 3.56818C15.4048 3.95455 15.0952 4.25 14.6905 4.25C14.2857 4.25 13.9524 3.95455 13.9524 3.56818C13.9524 3.40909 13.9524 3.22727 13.9524 3.04545C13.9524 2.90909 13.9048 2.84091 13.7619 2.84091C12.6905 2.84091 11.619 2.84091 10.5476 2.84091C10.4048 2.84091 10.3333 2.90909 10.3333 3.04545C10.3333 3.09091 10.3333 3.13636 10.3333 3.18182C10.3333 3.90909 10.119 4.22727 9.59524 4.25C9.04762 4.22727 8.80952 3.90909 8.80952 3.18182C8.80952 3.15909 8.80952 3.11364 8.80952 3.09091C8.83333 2.90909 8.7381 2.81818 8.54762 2.84091C7.76191 2.84091 6.97619 2.84091 6.19048 2.84091C5.95238 2.84091 5.88095 2.90909 5.88095 3.13636C5.90476 3.84091 5.88095 4.54545 5.88095 5.25C5.88095 5.59091 5.88095 5.61364 6.2381 5.61364C9.04762 5.59091 11.8571 5.59091 14.6667 5.59091ZM23.5 13.7565C23.5 13.7404 23.4882 13.7273 23.472 13.7273C23.4608 13.7273 23.4493 13.7337 23.4444 13.7438C23.3033 14.0337 23.1398 14.3237 22.9762 14.6136C22.3333 15.7955 21.5476 16.8864 20.5476 17.8409C20.2857 18.0909 20 18.2045 19.619 18.2045C16.6667 18.1818 13.6905 18.2045 10.7381 18.2045C9.21429 18.2045 7.71429 18.2045 6.19048 18.2045C5.83333 18.2045 5.83333 18.2045 5.83333 18.5455C5.83333 18.7955 5.83333 19.0227 5.83333 19.2727C5.83333 19.5682 5.83333 19.5682 6.14286 19.5682C11.8095 19.5682 17.4524 19.5682 23.119 19.5682C23.4524 19.5682 23.4524 19.5682 23.4524 19.25C23.4524 17.75 23.4524 16.25 23.4524 14.75C23.4986 14.4188 23.5 14.0877 23.5 13.7565Z" fill="#939598"/>
</svg>
