<svg width="63" height="53" viewBox="0 0 63 53" fill="none" xmlns="http://www.w3.org/2000/svg">
<g clip-path="url(#clip0_4_5480)">
<path d="M27.2791 8.40137C33.6279 8.40137 39.9767 8.40137 46.2558 8.40137C51 8.40137 54.5581 11.972 54.5581 16.7329C54.5581 23.8743 54.5581 31.0156 54.5581 38.087C54.5581 42.7779 51.0698 46.3485 46.3953 46.3485C36.0698 46.3485 25.7442 46.3485 15.4186 46.3485C14.4419 46.3485 13.6744 46.6286 12.907 47.1887C10.7442 48.869 8.5814 50.5493 6.34884 52.1596C3.97674 53.91 0.767442 52.6497 0.0697674 49.8492C0 49.5691 0 49.2191 0 48.869C0 38.087 0 27.3049 0 16.4529C0 12.1121 3.69767 8.40137 8.02326 8.40137C14.4419 8.40137 20.8605 8.40137 27.2791 8.40137ZM27.3488 12.7422C21.1395 12.7422 14.9302 12.7422 8.65116 12.7422C5.86046 12.7422 4.25581 14.3525 4.25581 17.153C4.25581 27.3049 4.25581 37.3868 4.25581 47.5388C4.25581 47.7488 4.11628 48.0288 4.32558 48.1689C4.60465 48.3089 4.74419 48.0288 4.95349 47.8888C6.83721 46.4886 8.72093 45.0883 10.5349 43.618C11.8605 42.5678 13.3256 42.1477 15 42.1477C25.3953 42.1477 35.7209 42.1477 46.1163 42.1477C48.6279 42.1477 50.3023 40.5374 50.3023 38.017C50.3023 31.0156 50.3023 23.9443 50.3023 16.943C50.3023 15.7528 49.9535 14.7026 49.0465 13.8624C48.1395 13.0222 47.0233 12.8122 45.8372 12.8122C39.6977 12.7422 33.5581 12.7422 27.3488 12.7422Z" fill="#729EFC"/>
<path d="M34.0448 0C40.9518 0 47.8587 0 54.7657 0C59.4401 0 63.068 3.57067 63.068 8.26156C63.068 15.3329 63.068 22.3342 63.068 29.4056C63.068 30.7358 62.2308 31.646 61.0448 31.716C59.7192 31.786 58.8122 30.8758 58.8122 29.4056C58.8122 22.5443 58.8122 15.6129 58.8122 8.75165C58.8122 7.63144 58.6029 6.51123 57.7657 5.67107C56.8587 4.69089 55.6727 4.34082 54.4169 4.34082C49.5332 4.34082 44.6494 4.34082 39.7657 4.34082C30.975 4.34082 22.1843 4.34082 13.3239 4.34082C12.975 4.34082 12.5564 4.34082 12.2076 4.27081C11.1611 4.06077 10.5332 3.08058 10.6029 1.96037C10.6727 0.910172 11.5099 0.0700132 12.5564 0C13.882 0 15.2773 0 16.6029 0C22.3936 0 28.1843 0 34.0448 0Z" fill="#729EFC"/>
<path d="M16.8828 27.5855C16.8828 26.3952 17.8596 25.415 19.0456 25.415C20.2316 25.415 21.1386 26.3952 21.1386 27.6555C21.1386 28.8457 20.1619 29.8259 18.9758 29.8259C17.8596 29.7559 16.8828 28.7757 16.8828 27.5855Z" fill="#729EFC"/>
<path d="M29.58 27.6555C29.58 28.8457 28.6033 29.8259 27.4172 29.8259C26.2312 29.8259 25.3242 28.8457 25.3242 27.5855C25.3242 26.3952 26.301 25.415 27.487 25.415C28.6731 25.415 29.58 26.4652 29.58 27.6555Z" fill="#729EFC"/>
<path d="M37.7441 27.6555C37.7441 28.8457 36.7674 29.8259 35.5813 29.8259C34.3953 29.8259 33.4883 28.7757 33.4883 27.5855C33.4883 26.3952 34.465 25.415 35.6511 25.415C36.7673 25.415 37.7441 26.3952 37.7441 27.6555Z" fill="#729EFC"/>
</g>
<defs>
<clipPath id="clip0_4_5480">
<rect width="63" height="53" fill="#828282"/>
</clipPath>
</defs>
</svg>
