<?xml version="1.0" encoding="utf-8"?>
<!-- Generator: Adobe Illustrator 24.1.2, SVG Export Plug-In . SVG Version: 6.00 Build 0)  -->
<svg version="1.1" xmlns="http://www.w3.org/2000/svg" xmlns:xlink="http://www.w3.org/1999/xlink" x="0px" y="0px"
	 viewBox="0 0 25 25" style="enable-background:new 0 0 25 25;" xml:space="preserve">
<style type="text/css">
	.st0{fill:#E1E1E1;}
	.st1{fill:#FFFFFF;stroke:#729EFC;stroke-width:1.2;stroke-linecap:round;stroke-linejoin:round;stroke-miterlimit:10;}
	.st2{fill:#E4E4E4;}
	.st3{fill:#729EFC;}
	.st4{fill-rule:evenodd;clip-rule:evenodd;fill:#729EFC;}
	.st5{fill:none;stroke:#729EFC;stroke-width:1.2;stroke-linecap:round;stroke-linejoin:round;stroke-miterlimit:10;}
	.st6{fill:#98A1A7;}
	.st7{fill:#FFFFFF;}
	.st8{fill:#FFFFFF;stroke:#FFFFFF;stroke-width:3;stroke-linecap:round;stroke-linejoin:round;stroke-miterlimit:10;}
	.st9{fill:#E1E1E1;stroke:#729EFC;stroke-width:1.2;stroke-linecap:round;stroke-linejoin:round;stroke-miterlimit:10;}
	.st10{fill:none;stroke:#98A1A7;stroke-width:1.2;stroke-linecap:round;stroke-linejoin:round;stroke-miterlimit:10;}
	.st11{fill:none;stroke:#FFFFFF;stroke-width:1.2;stroke-linecap:round;stroke-linejoin:round;stroke-miterlimit:10;}
</style>
<g id="Layer_2">
</g>
<g id="Layer_1">
	<path d="M13.68,7.71H7.56c-1.99,0-3.61,1.62-3.61,3.61v3c0,0.33,0.27,0.6,0.6,0.6s0.6-0.27,0.6-0.6v-3c0-1.33,1.08-2.41,2.41-2.41
		h6.12c1.33,0,2.41,1.08,2.41,2.41v6.12c0,1.33-1.08,2.41-2.41,2.41h-3c-0.33,0-0.6,0.27-0.6,0.6s0.27,0.6,0.6,0.6h3
		c1.99,0,3.61-1.62,3.61-3.61v-6.12C17.29,9.33,15.67,7.71,13.68,7.71z M19.77,1.62h-6.12c-1.99,0-3.61,1.62-3.61,3.61v0.02
		c0,0.33,0.27,0.59,0.6,0.59s0.6-0.28,0.6-0.61c0-1.33,1.08-2.41,2.41-2.41h6.12c1.33,0,2.41,1.08,2.41,2.41v6.12
		c0,1.33-1.08,2.41-2.43,2.41c-0.33,0-0.59,0.27-0.59,0.6s0.28,0.6,0.61,0.6c1.99,0,3.61-1.62,3.61-3.61V5.23
		C23.38,3.24,21.76,1.62,19.77,1.62z M6.94,19.82H5.18v-1.76c0-0.33-0.27-0.6-0.6-0.6s-0.6,0.27-0.6,0.6v1.76H2.22
		c-0.33,0-0.6,0.27-0.6,0.6s0.27,0.6,0.6,0.6h1.76v1.76c0,0.33,0.27,0.6,0.6,0.6s0.6-0.27,0.6-0.6v-1.76h1.76
		c0.33,0,0.6-0.27,0.6-0.6S7.27,19.82,6.94,19.82z"/>
</g>
</svg>
