<?xml version="1.0" encoding="utf-8"?>
<!-- Generator: Adobe Illustrator 24.1.2, SVG Export Plug-In . SVG Version: 6.00 Build 0)  -->
<svg version="1.1" xmlns="http://www.w3.org/2000/svg" xmlns:xlink="http://www.w3.org/1999/xlink" x="0px" y="0px"
	 viewBox="0 0 25 25" style="enable-background:new 0 0 25 25;" xml:space="preserve">
<style type="text/css">
	.st0{fill:#E1E1E1;}
	.st1{fill:#FFFFFF;stroke:#729EFC;stroke-width:1.2;stroke-linecap:round;stroke-linejoin:round;stroke-miterlimit:10;}
	.st2{fill:#E4E4E4;}
	.st3{fill:#729EFC;}
	.st4{fill-rule:evenodd;clip-rule:evenodd;fill:#729EFC;}
	.st5{fill:none;stroke:#729EFC;stroke-width:1.2;stroke-linecap:round;stroke-linejoin:round;stroke-miterlimit:10;}
	.st6{fill:#98A1A7;}
	.st7{fill:#FFFFFF;}
	.st8{fill:#FFFFFF;stroke:#FFFFFF;stroke-width:3;stroke-linecap:round;stroke-linejoin:round;stroke-miterlimit:10;}
	.st9{fill:#E1E1E1;stroke:#729EFC;stroke-width:1.2;stroke-linecap:round;stroke-linejoin:round;stroke-miterlimit:10;}
	.st10{fill:none;stroke:#98A1A7;stroke-width:1.2;stroke-linecap:round;stroke-linejoin:round;stroke-miterlimit:10;}
	.st11{fill:none;stroke:#FFFFFF;stroke-width:1.2;stroke-linecap:round;stroke-linejoin:round;stroke-miterlimit:10;}
</style>
<g id="Layer_2">
</g>
<g id="Layer_1">
	<path class="st6" d="M21.45,6.2c-0.8-0.8-2.2-0.8-3,0l-6.82,6.82c-0.23,0.23-0.23,0.61,0,0.85c0.23,0.23,0.61,0.23,0.85,0
		l6.82-6.82c0.35-0.35,0.95-0.35,1.3,0c0.17,0.17,0.27,0.4,0.27,0.65s-0.1,0.48-0.27,0.65l-6.82,6.82c-0.23,0.23-0.23,0.61,0,0.85
		c0.12,0.12,0.27,0.18,0.42,0.18s0.31-0.06,0.42-0.18l6.82-6.82c0.4-0.4,0.62-0.93,0.62-1.5S21.85,6.6,21.45,6.2z M10.73,14.41
		c-0.31-0.12-0.66,0.04-0.77,0.35l-1.31,3.46c-0.08,0.22-0.03,0.47,0.14,0.64c0.12,0.12,0.27,0.18,0.42,0.18
		c0.07,0,0.14-0.01,0.21-0.04l3.46-1.31c0.31-0.12,0.47-0.46,0.35-0.77c-0.12-0.31-0.46-0.47-0.77-0.35l-2.21,0.84l0.84-2.21
		C11.2,14.88,11.04,14.53,10.73,14.41z M16.77,15.99c-0.33,0-0.6,0.27-0.6,0.6v3.88c0,0.17-0.14,0.32-0.32,0.32H4.45
		c-0.17,0-0.32-0.14-0.32-0.32V4.53c0-0.17,0.14-0.32,0.32-0.32h11.4c0.17,0,0.32,0.14,0.32,0.32v1.38c0,0.33,0.27,0.6,0.6,0.6
		s0.6-0.27,0.6-0.6V4.53c0-0.84-0.68-1.52-1.52-1.52H4.45c-0.84,0-1.52,0.68-1.52,1.52v15.94c0,0.84,0.68,1.52,1.52,1.52h11.4
		c0.84,0,1.52-0.68,1.52-1.52v-3.88C17.37,16.26,17.1,15.99,16.77,15.99z"/>
</g>
</svg>
