<svg width="20" height="18" viewBox="0 0 20 18" fill="none" xmlns="http://www.w3.org/2000/svg">
<path d="M18.3846 1.76837C17.3373 0.76668 15.9508 0.219198 14.4711 0.219198C12.9913 0.219198 11.6006 0.770735 10.5533 1.77243L10.0064 2.29558L9.45093 1.76431C8.40365 0.762625 7.0087 0.207031 5.52895 0.207031C4.05344 0.207031 2.66273 0.758569 1.61969 1.7562C0.57242 2.75789 -0.00421676 4.08807 2.32169e-05 5.50342C2.32169e-05 6.91876 0.5809 8.24489 1.62817 9.24658L9.59085 16.8627C9.70108 16.9681 9.84948 17.0249 9.99364 17.0249C10.1378 17.0249 10.2862 16.9722 10.3964 16.8667L18.3761 9.2628C19.4233 8.26111 20 6.93093 20 5.51558C20.0042 4.10024 19.4318 2.77006 18.3846 1.76837ZM17.5705 8.48821L9.99364 15.7069L2.43377 8.47604C1.60273 7.68118 1.14482 6.62677 1.14482 5.50342C1.14482 4.38006 1.59849 3.32565 2.42953 2.53485C3.25632 1.74404 4.35872 1.30605 5.52895 1.30605C6.70342 1.30605 7.81006 1.74404 8.64109 2.5389L9.59932 3.45543C9.82404 3.67036 10.1844 3.67036 10.4092 3.45543L11.3589 2.54701C12.1899 1.75215 13.2966 1.31416 14.4668 1.31416C15.637 1.31416 16.7394 1.75215 17.5705 2.54296C18.4015 3.33782 18.8552 4.39223 18.8552 5.51558C18.8594 6.63894 18.4015 7.69335 17.5705 8.48821Z" fill="#828282"/>
</svg>
