<?xml version="1.0" encoding="utf-8"?>
<!-- Generator: Adobe Illustrator 23.1.0, SVG Export Plug-In . SVG Version: 6.00 Build 0)  -->
<svg version="1.1" xmlns="http://www.w3.org/2000/svg" xmlns:xlink="http://www.w3.org/1999/xlink" x="0px" y="0px"
	 viewBox="0 0 25 25" style="enable-background:new 0 0 25 25;" xml:space="preserve">
<style type="text/css">
	.st0{fill:#E1E1E1;}
	.st1{fill:#FFFFFF;stroke:#729EFC;stroke-width:1.2;stroke-linecap:round;stroke-linejoin:round;stroke-miterlimit:10;}
	.st2{fill:#E4E4E4;}
	.st3{fill:#729EFC;}
	.st4{fill-rule:evenodd;clip-rule:evenodd;fill:#729EFC;}
	.st5{fill:none;stroke:#729EFC;stroke-width:1.2;stroke-linecap:round;stroke-linejoin:round;stroke-miterlimit:10;}
	.st6{fill:#98A1A7;}
	.st7{fill:#FFFFFF;}
	.st8{fill:#FFFFFF;stroke:#FFFFFF;stroke-width:3;stroke-linecap:round;stroke-linejoin:round;stroke-miterlimit:10;}
	.st9{fill:#E1E1E1;stroke:#729EFC;stroke-width:1.2;stroke-linecap:round;stroke-linejoin:round;stroke-miterlimit:10;}
	.st10{fill:none;stroke:#98A1A7;stroke-width:1.2;stroke-linecap:round;stroke-linejoin:round;stroke-miterlimit:10;}
	.st11{fill:none;stroke:#FFFFFF;stroke-width:1.2;stroke-linecap:round;stroke-linejoin:round;stroke-miterlimit:10;}
	.st12{fill:none;stroke:#808080;stroke-width:1.2;stroke-linecap:round;stroke-linejoin:round;stroke-miterlimit:10;}
	.st13{fill:none;stroke:#729EFC;stroke-width:1.2;stroke-miterlimit:10;}
</style>
<g id="Layer_2">
</g>
<g id="Layer_1">
	<g>
		<path class="st6" d="M19.51,5.71H8.26c-0.33,0-0.6-0.27-0.6-0.6s0.27-0.6,0.6-0.6h11.24c0.33,0,0.6,0.27,0.6,0.6
			S19.84,5.71,19.51,5.71z"/>
		<path class="st6" d="M19.51,10.64H8.26c-0.33,0-0.6-0.27-0.6-0.6s0.27-0.6,0.6-0.6h11.24c0.33,0,0.6,0.27,0.6,0.6
			S19.84,10.64,19.51,10.64z"/>
		<path class="st6" d="M19.51,15.56H8.26c-0.33,0-0.6-0.27-0.6-0.6s0.27-0.6,0.6-0.6h11.24c0.33,0,0.6,0.27,0.6,0.6
			S19.84,15.56,19.51,15.56z"/>
		<path class="st6" d="M19.51,20.49H8.26c-0.33,0-0.6-0.27-0.6-0.6s0.27-0.6,0.6-0.6h11.24c0.33,0,0.6,0.27,0.6,0.6
			S19.84,20.49,19.51,20.49z"/>
		<path class="st6" d="M4.62,5.71H4.48c-0.33,0-0.6-0.27-0.6-0.6s0.27-0.6,0.6-0.6h0.13c0.33,0,0.6,0.27,0.6,0.6
			S4.95,5.71,4.62,5.71z"/>
		<path class="st6" d="M4.62,10.64H4.48c-0.33,0-0.6-0.27-0.6-0.6s0.27-0.6,0.6-0.6h0.13c0.33,0,0.6,0.27,0.6,0.6
			S4.95,10.64,4.62,10.64z"/>
		<path class="st6" d="M4.62,15.56H4.48c-0.33,0-0.6-0.27-0.6-0.6s0.27-0.6,0.6-0.6h0.13c0.33,0,0.6,0.27,0.6,0.6
			S4.95,15.56,4.62,15.56z"/>
		<path class="st6" d="M4.62,20.49H4.48c-0.33,0-0.6-0.27-0.6-0.6s0.27-0.6,0.6-0.6h0.13c0.33,0,0.6,0.27,0.6,0.6
			S4.95,20.49,4.62,20.49z"/>
	</g>
</g>
</svg>
