<?xml version="1.0" encoding="utf-8"?>
<!-- Generator: Adobe Illustrator 24.1.2, SVG Export Plug-In . SVG Version: 6.00 Build 0)  -->
<svg version="1.1" id="Layer_1" xmlns="http://www.w3.org/2000/svg" xmlns:xlink="http://www.w3.org/1999/xlink" x="0px" y="0px"
	 viewBox="0 0 24.25 25" style="enable-background:new 0 0 24.25 25;" xml:space="preserve">
<style type="text/css">
	.st0{fill:#729EFC;}
	.st1{fill:#98A1A7;}
</style>
<path class="st0" d="M17.35,13.96c-0.33,0-0.6,0.27-0.6,0.6v6.91H9.68V3.53h7.07v6.91c0,0.33,0.27,0.6,0.6,0.6s0.6-0.27,0.6-0.6
	V2.94c0-0.33-0.27-0.6-0.6-0.6H9.68V0.6c0-0.19-0.09-0.36-0.24-0.48C9.29,0.01,9.1-0.03,8.92,0.02L0.44,2.36
	C0.18,2.43,0,2.67,0,2.94v19.13c0,0.27,0.18,0.51,0.44,0.58l8.48,2.33C8.97,24.99,9.02,25,9.08,25c0.13,0,0.26-0.04,0.36-0.12
	c0.15-0.11,0.24-0.29,0.24-0.48v-1.73h7.67c0.33,0,0.6-0.27,0.6-0.6v-7.51C17.95,14.23,17.68,13.96,17.35,13.96z M8.48,23.61
	l-7.28-2V3.39l7.28-2V23.61z M24.08,12.08L20.6,8.6c-0.23-0.23-0.61-0.23-0.85,0c-0.23,0.23-0.23,0.61,0,0.85l2.39,2.39H11.72
	c-0.33,0-0.6,0.27-0.6,0.6s0.27,0.6,0.6,0.6h10.55l-2.52,2.52c-0.23,0.23-0.23,0.61,0,0.85c0.12,0.12,0.27,0.18,0.42,0.18
	s0.31-0.06,0.42-0.18l3.48-3.48C24.31,12.69,24.31,12.31,24.08,12.08z"/>
</svg>
