<svg width="21" height="16" viewBox="0 0 21 16" fill="none" xmlns="http://www.w3.org/2000/svg">
<path d="M19.1245 0.407656C18.9614 0.358086 18.7882 0.333008 18.605 0.333008H1.76542C1.58209 0.333008 1.40898 0.358086 1.24586 0.407656C0.519802 0.622383 0 1.2777 0 2.06637V13.933C0 14.4127 0.192365 14.8429 0.506275 15.1548C0.517296 15.1709 0.529351 15.1861 0.543197 15.1997C0.631322 15.2775 0.726411 15.3462 0.826472 15.4055C1.07537 15.5575 1.36668 15.6502 1.68123 15.6643C1.70928 15.6656 1.73733 15.6663 1.76538 15.6663H18.6049C18.6329 15.6663 18.661 15.6656 18.689 15.6643C19.6336 15.6221 20.3704 14.872 20.3704 13.933V2.06637C20.3704 1.2777 19.8505 0.622383 19.1245 0.407656ZM12.1928 8.29551L19.5584 1.54598C19.6433 1.69891 19.6914 1.87586 19.6914 2.06633V13.933C19.6914 14.145 19.6319 14.3401 19.5282 14.5041L12.1928 8.29551ZM18.605 0.999688C18.6249 0.999688 18.6443 1.00023 18.6634 1.00117C18.6729 1.00164 18.6823 1.0025 18.6917 1.0032C18.7019 1.00395 18.7123 1.00457 18.7223 1.00563C18.7272 1.00613 18.7319 1.00684 18.7368 1.00738C18.8486 1.02062 18.9475 1.05121 19.0463 1.09973L11.5685 7.9648C11.5243 7.98016 11.4814 8.00359 11.4414 8.03305L11.1698 8.26637C10.5926 8.79969 9.7099 8.79969 9.13273 8.26637L9.09601 8.23484L1.32407 1.09969C1.42282 1.05121 1.52177 1.02059 1.63357 1.00734C1.63842 1.0068 1.6432 1.00609 1.64809 1.00559C1.65812 1.00453 1.66846 1.00395 1.67873 1.00316C1.68815 1.00246 1.6975 1.0016 1.70701 1.00113C1.72607 1.0002 1.74549 0.999649 1.76546 0.999649H18.605V0.999688ZM0.819311 14.466C0.729912 14.3102 0.679026 14.1288 0.679026 13.933V2.06637C0.679026 1.8759 0.727087 1.69895 0.81203 1.54602L8.14497 8.26566L0.819311 14.466ZM1.76542 14.9997C1.65529 14.9997 1.54516 14.9777 1.435 14.9516C1.41109 14.9445 1.38765 14.9362 1.36454 14.9275L8.67245 8.74906L8.69138 8.76641C8.83127 8.88262 8.978 8.98195 9.13046 9.06359C9.93255 9.51496 10.9886 9.41605 11.6791 8.76641L11.7143 8.73414L19.0059 14.9275C18.9828 14.9362 18.9594 14.9445 18.9354 14.9517C18.8253 14.9777 18.7152 14.9997 18.605 14.9997H1.76542V14.9997Z" fill="#fff"/>
</svg>
