<?xml version="1.0" encoding="utf-8"?>
<!-- Generator: Adobe Illustrator 23.1.0, SVG Export Plug-In . SVG Version: 6.00 Build 0)  -->
<svg version="1.1" xmlns="http://www.w3.org/2000/svg" xmlns:xlink="http://www.w3.org/1999/xlink" x="0px" y="0px"
	 viewBox="0 0 25 25" style="enable-background:new 0 0 25 25;" xml:space="preserve">
<style type="text/css">
	.st0{fill:#E1E1E1;}
	.st1{fill:#FFFFFF;stroke:#729EFC;stroke-width:1.2;stroke-linecap:round;stroke-linejoin:round;stroke-miterlimit:10;}
	.st2{fill:#E4E4E4;}
	.st3{fill:#729EFC;}
	.st4{fill-rule:evenodd;clip-rule:evenodd;fill:#729EFC;}
	.st5{fill:none;stroke:#729EFC;stroke-width:1.2;stroke-linecap:round;stroke-linejoin:round;stroke-miterlimit:10;}
	.st6{fill:#98A1A7;}
	.st7{fill:#FFFFFF;}
	.st8{fill:#FFFFFF;stroke:#FFFFFF;stroke-width:3;stroke-linecap:round;stroke-linejoin:round;stroke-miterlimit:10;}
	.st9{fill:#E1E1E1;stroke:#729EFC;stroke-width:1.2;stroke-linecap:round;stroke-linejoin:round;stroke-miterlimit:10;}
	.st10{fill:none;stroke:#98A1A7;stroke-width:1.2;stroke-linecap:round;stroke-linejoin:round;stroke-miterlimit:10;}
	.st11{fill:none;stroke:#FFFFFF;stroke-width:1.2;stroke-linecap:round;stroke-linejoin:round;stroke-miterlimit:10;}
	.st12{fill:none;stroke:#808080;stroke-width:1.2;stroke-linecap:round;stroke-linejoin:round;stroke-miterlimit:10;}
	.st13{fill:none;stroke:#729EFC;stroke-width:1.2;stroke-miterlimit:10;}
</style>
<g id="Layer_2">
</g>
<g id="Layer_1">
	<g>
		<path class="st6" d="M15.67,22.6c-0.11,0-0.22-0.03-0.32-0.09l-6.01-3.85l-5.24,3.36c-0.34,0.22-0.77,0.23-1.12,0.04
			c-0.35-0.19-0.57-0.56-0.57-0.96V8.7c0-1.23,0.62-2.37,1.66-3.03L9.01,2.5c0.2-0.13,0.45-0.13,0.65,0l6.01,3.85l5.24-3.36
			c0.34-0.22,0.77-0.23,1.12-0.04c0.35,0.19,0.57,0.56,0.57,0.96V16.3c0,1.23-0.62,2.37-1.66,3.03l-4.95,3.17
			C15.89,22.57,15.78,22.6,15.67,22.6z M9.33,17.34c0.11,0,0.22,0.03,0.32,0.09l6.01,3.85l4.63-2.96c0.69-0.44,1.11-1.2,1.11-2.02
			V4.1l-5.41,3.47c-0.2,0.13-0.45,0.13-0.65,0L9.33,3.71L4.7,6.68C4.01,7.12,3.6,7.88,3.6,8.7v12.2l5.41-3.47
			C9.11,17.37,9.22,17.34,9.33,17.34z"/>
		<path class="st6" d="M9.33,16.48c-0.33,0-0.6-0.27-0.6-0.6V5.39c0-0.33,0.27-0.6,0.6-0.6s0.6,0.27,0.6,0.6v10.49
			C9.93,16.21,9.66,16.48,9.33,16.48z"/>
		<path class="st6" d="M15.67,20.25c-0.33,0-0.6-0.27-0.6-0.6V9.14c0-0.33,0.27-0.6,0.6-0.6s0.6,0.27,0.6,0.6v10.51
			C16.27,19.98,16,20.25,15.67,20.25z"/>
		<path class="st6" d="M9.33,16.48c-0.33,0-0.6-0.27-0.6-0.6V5.39c0-0.33,0.27-0.6,0.6-0.6s0.6,0.27,0.6,0.6v10.49
			C9.93,16.21,9.66,16.48,9.33,16.48z"/>
		<path class="st6" d="M15.67,20.25c-0.33,0-0.6-0.27-0.6-0.6V9.14c0-0.33,0.27-0.6,0.6-0.6s0.6,0.27,0.6,0.6v10.51
			C16.27,19.98,16,20.25,15.67,20.25z"/>
	</g>
</g>
</svg>
