<svg width="19" height="24" viewBox="0 0 19 24" fill="none" xmlns="http://www.w3.org/2000/svg">
<path fill-rule="evenodd" clip-rule="evenodd" d="M1.05174 7.15947C1.05174 7.15947 2.07701 9.65174 4.66071 14.3834C4.66071 14.3834 4.66071 14.3834 4.66071 14.4196C7.28542 19.1512 8.96687 21.2823 8.96687 21.2823C10.6893 22.9077 13.5601 23.6301 16.6359 22.3298C18.3174 21.6074 18.0303 19.9098 16.4719 17.0924C15.0775 14.564 13.5191 14.4918 12.4938 15.2864C12.2888 15.4309 11.6326 15.9727 11.5916 16.1533C11.5916 16.1533 10.9764 17.0563 8.63878 12.758C6.30115 8.49591 7.2444 8.71262 7.2444 8.71262C7.40845 8.74874 8.31069 8.8571 8.55676 8.78486C9.86911 8.53203 10.9354 7.30395 9.41799 4.55885C7.85957 1.7415 6.54722 0.477307 4.86576 1.1997C2.32308 2.24718 0.682638 4.95616 1.05174 7.15947Z" stroke="#828282"/>
</svg>
