<svg width="15" height="19" viewBox="0 0 15 19" fill="none" xmlns="http://www.w3.org/2000/svg">
<path fill-rule="evenodd" clip-rule="evenodd" d="M0.779012 5.42983C0.779012 5.42983 1.56681 7.3803 3.55207 11.0834C3.55207 11.0834 3.55207 11.0834 3.55207 11.1116C5.56884 14.8147 6.86083 16.4825 6.86083 16.4825C8.18434 17.7545 10.3902 18.3199 12.7536 17.3023C14.0456 16.7369 13.825 15.4083 12.6275 13.2034C11.5561 11.2247 10.3587 11.1682 9.57087 11.7901C9.41331 11.9031 8.90912 12.3271 8.8776 12.4685C8.8776 12.4685 8.40492 13.1752 6.60874 9.81132C4.81255 6.47574 5.53733 6.64534 5.53733 6.64534C5.66338 6.67361 6.35664 6.75841 6.54571 6.70188C7.5541 6.504 8.37341 5.5429 7.20747 3.39456C6.01001 1.18968 5.00162 0.200311 3.70963 0.765664C1.75588 1.58543 0.495403 3.7055 0.779012 5.42983Z" stroke="white"/>
</svg>
