<svg width="28" height="28" viewBox="0 0 28 28" fill="none" xmlns="http://www.w3.org/2000/svg">
<path d="M23.9055 4.10658C18.4416 -1.3641 9.57735 -1.36954 4.1066 4.09436C-1.36408 9.5584 -1.36959 18.4227 4.09444 23.8934C9.55835 29.3641 18.4227 29.3696 23.8935 23.9056C29.3641 18.4417 29.3696 9.57727 23.9055 4.10658ZM14.0043 22.4813C13.2638 22.4813 12.6635 21.881 12.6635 21.1404C12.6635 20.3998 13.2637 19.7995 14.0043 19.7995C14.7449 19.7995 15.3452 20.3998 15.3452 21.1404C15.3451 21.881 14.7449 22.4813 14.0043 22.4813ZM16.1843 14.408C15.4184 14.8558 15.3529 15.4066 15.3496 16.9938C15.3494 17.0988 15.3491 17.2047 15.3485 17.3112C15.3437 18.0614 14.7342 18.6662 13.9851 18.6662C13.9821 18.6662 13.9791 18.6662 13.9763 18.6662C13.2232 18.6615 12.6166 18.0471 12.6213 17.294C12.622 17.1914 12.6222 17.0894 12.6224 16.9883C12.6257 15.357 12.6298 13.327 14.8079 12.0539C16.5555 11.0323 16.7758 10.3612 16.5709 9.48057C16.3301 8.4462 15.3855 8.17813 14.6484 8.26241C14.4008 8.29081 13.1664 8.49448 13.1664 9.71566C13.1664 10.4686 12.5559 11.0792 11.8028 11.0792C11.0497 11.0792 10.4393 10.4686 10.4393 9.71566C10.4393 7.52833 12.0421 5.81662 14.3372 5.55312C16.7009 5.28197 18.7103 6.64269 19.2268 8.86239C19.9988 12.1783 17.2276 13.7982 16.1843 14.408Z" fill="#828282"/>
</svg>
