<?xml version="1.0" encoding="utf-8"?>
<!-- Generator: Adobe Illustrator 24.1.2, SVG Export Plug-In . SVG Version: 6.00 Build 0)  -->
<svg version="1.1" xmlns="http://www.w3.org/2000/svg" xmlns:xlink="http://www.w3.org/1999/xlink" x="0px" y="0px"
	 viewBox="0 0 25 25" style="enable-background:new 0 0 25 25;" xml:space="preserve">
<style type="text/css">
	.st0{fill:#E1E1E1;}
	.st1{fill:#FFFFFF;stroke:#729EFC;stroke-width:1.2;stroke-linecap:round;stroke-linejoin:round;stroke-miterlimit:10;}
	.st2{fill:#E4E4E4;}
	.st3{fill:#729EFC;}
	.st4{fill-rule:evenodd;clip-rule:evenodd;fill:#729EFC;}
	.st5{fill:none;stroke:#729EFC;stroke-width:1.2;stroke-linecap:round;stroke-linejoin:round;stroke-miterlimit:10;}
	.st6{fill:#98A1A7;}
	.st7{fill:#FFFFFF;}
	.st8{fill:#FFFFFF;stroke:#FFFFFF;stroke-width:3;stroke-linecap:round;stroke-linejoin:round;stroke-miterlimit:10;}
	.st9{fill:#E1E1E1;stroke:#729EFC;stroke-width:1.2;stroke-linecap:round;stroke-linejoin:round;stroke-miterlimit:10;}
	.st10{fill:none;stroke:#98A1A7;stroke-width:1.2;stroke-linecap:round;stroke-linejoin:round;stroke-miterlimit:10;}
	.st11{fill:none;stroke:#FFFFFF;stroke-width:1.2;stroke-linecap:round;stroke-linejoin:round;stroke-miterlimit:10;}
</style>
<g id="Layer_2">
</g>
<g id="Layer_1">
	<path class="st7" d="M20.53,9.36c-0.11-0.14-0.28-0.22-0.46-0.22H4.93c-0.18,0-0.35,0.08-0.46,0.22S4.31,9.68,4.34,9.85l1.98,10.83
		c0.22,1.21,1.27,2.08,2.5,2.08h7.36c1.23,0,2.27-0.87,2.49-2.08l1.98-10.83C20.69,9.68,20.65,9.5,20.53,9.36z M17.5,20.47
		c-0.12,0.63-0.67,1.1-1.31,1.1H8.82c-0.65,0-1.2-0.46-1.32-1.1L5.65,10.34h13.7L17.5,20.47z M4.95,7.68c0.04,0,0.07,0,0.11-0.01
		l15.1-2.66c0.33-0.06,0.54-0.37,0.49-0.7c-0.06-0.33-0.37-0.54-0.7-0.49l-4.33,0.76c-0.21-0.71-0.64-1.32-1.25-1.75
		c-0.72-0.51-1.6-0.7-2.47-0.55c-0.87,0.15-1.63,0.63-2.13,1.36C9.33,4.26,9.14,4.99,9.18,5.72L4.85,6.49
		C4.52,6.54,4.3,6.86,4.36,7.18C4.41,7.47,4.67,7.68,4.95,7.68z M10.74,4.33c0.32-0.46,0.8-0.77,1.36-0.86
		c0.55-0.1,1.11,0.03,1.57,0.35c0.35,0.25,0.61,0.59,0.76,0.98l-4.07,0.72C10.37,5.09,10.49,4.69,10.74,4.33z"/>
</g>
</svg>
