<svg width="26" height="26" viewBox="0 0 26 26" fill="none" xmlns="http://www.w3.org/2000/svg">
<path d="M13 0C5.82033 0 0 5.82033 0 13C0 20.1797 5.82033 26 13 26C20.1797 26 26 20.1797 26 13C26 5.82027 20.1797 0 13 0ZM15.1666 21.329C15.1666 21.8194 14.7691 22.217 14.2787 22.217H11.8425C11.3522 22.217 10.9546 21.8194 10.9546 21.329V11.4444C10.9546 10.954 11.3521 10.5564 11.8425 10.5564H14.2787C14.7691 10.5564 15.1666 10.9539 15.1666 11.4444V21.329ZM13 8.87391C11.7826 8.87391 10.7957 7.88699 10.7957 6.66957C10.7957 5.45214 11.7826 4.46522 13 4.46522C14.2174 4.46522 15.2043 5.45214 15.2043 6.66957C15.2043 7.88699 14.2174 8.87391 13 8.87391Z" fill="#222"/>
</svg>
