<svg width="26" height="26" viewBox="0 0 26 26" fill="none" xmlns="http://www.w3.org/2000/svg">
<path d="M11.4976 0.5C12.1842 0.5 12.8595 0.5 13.5461 0.5C14.0382 0.568666 14.5418 0.614443 15.0339 0.728886C19.9091 1.88476 23.0907 4.86027 24.5784 9.64399C24.8073 10.3993 24.9103 11.1775 25.0133 11.9557C25.0133 12.6424 25.0133 13.3176 25.0133 14.0043C25.0019 14.05 24.9904 14.0958 24.979 14.1416C24.8531 15.5149 24.5326 16.8539 23.9261 18.1013C21.7746 22.576 18.2039 25.0366 13.2715 25.46C11.2802 25.6317 9.35751 25.2426 7.52642 24.4529C2.13617 22.1297 -0.988126 16.2016 0.28219 10.4794C1.38084 5.53549 4.44791 2.35397 9.30029 0.90055C10.0098 0.683109 10.7537 0.591554 11.4976 0.5ZM5.98145 9.79276C5.97 10.159 6.06156 10.5595 6.19889 10.9601C6.73677 12.4936 7.58365 13.844 8.64796 15.0571C10.3761 17.037 12.4131 18.582 14.9767 19.3259C15.8235 19.5776 16.6475 19.4975 17.4372 19.1084C17.9865 18.8338 18.3756 18.3989 18.799 17.9754C19.1309 17.6435 19.1309 17.3918 18.799 17.0599C18.0895 16.3503 17.38 15.6293 16.659 14.9198C16.3271 14.5879 16.0639 14.5994 15.7434 14.9312C15.3658 15.3204 14.9881 15.7095 14.599 16.0986C14.0954 16.5907 13.5347 16.6364 12.9739 16.2359C11.5663 15.2288 10.3417 14.0386 9.32318 12.6538C8.88829 12.0702 8.93407 11.5094 9.43762 10.9944C9.84961 10.5824 10.2731 10.1704 10.6736 9.74699C10.9368 9.47232 10.9483 9.19766 10.685 8.93444C9.95261 8.16767 9.19729 7.42379 8.45341 6.67992C8.20164 6.42814 7.91553 6.42814 7.65231 6.67992C7.40054 6.9088 7.16021 7.16058 6.93132 7.40091C6.30189 8.06467 5.97 8.83144 5.98145 9.79276Z" fill="#3A506B"/>
</svg>
