<svg width="21" height="21" viewBox="0 0 21 21" fill="none" xmlns="http://www.w3.org/2000/svg">
<path d="M14.2449 0.714844H6.61224C3.51269 0.714844 1 3.22753 1 6.32709V13.9597C1 17.0593 3.51269 19.572 6.61224 19.572H14.2449C17.3445 19.572 19.8571 17.0593 19.8571 13.9597V6.32709C19.8571 3.22753 17.3445 0.714844 14.2449 0.714844Z" stroke="#828282" stroke-linecap="round" stroke-linejoin="round"/>
<path d="M10.4303 14.3314C12.7434 14.3314 14.6185 12.4563 14.6185 10.1432C14.6185 7.83017 12.7434 5.95508 10.4303 5.95508C8.11728 5.95508 6.24219 7.83017 6.24219 10.1432C6.24219 12.4563 8.11728 14.3314 10.4303 14.3314Z" stroke="#828282" stroke-linecap="round" stroke-linejoin="round"/>
<path d="M15.5793 5.95552C16.238 5.95552 16.7719 5.42157 16.7719 4.76291C16.7719 4.10426 16.238 3.57031 15.5793 3.57031C14.9207 3.57031 14.3867 4.10426 14.3867 4.76291C14.3867 5.42157 14.9207 5.95552 15.5793 5.95552Z" stroke="#828282" stroke-linecap="round" stroke-linejoin="round"/>
</svg>
