<svg width="374" height="65" viewBox="0 0 374 65" fill="none" xmlns="http://www.w3.org/2000/svg">
<g clip-path="url(#clip0_26_281)">
<path d="M117.779 7.24894C136 7.24894 140.533 19.9453 140.533 29.7914C140.533 38.6875 136.697 51.9885 117.779 51.9885H93.0205V7.24894H117.779ZM110.369 40.8468H113.856C117.692 40.8468 122.4 39.724 122.4 29.6187C122.4 19.2543 118.041 17.8724 113.856 17.8724H110.369V40.8468ZM159.364 18.477V26.0775H159.626C160.933 21.8454 164.421 17.6997 169.826 17.6997C170.697 17.6997 171.656 17.786 172.441 18.0452V31.4325C171.308 31.087 170.262 31.0006 169.128 30.9143C164.246 30.9143 160.41 34.0236 160.41 39.8103V51.9885H144.108V18.477H159.364ZM172.528 39.724H186.564V52.0748H172.528V39.724ZM205.918 35.9237H206.179L213.328 7.42168H229.892L236.867 35.9237H237.128L242.62 7.42168H258.051L247.241 52.0748H228.672L221.174 22.9682H220.913L213.851 52.0748H194.846L184.297 7.42168H200.513L205.918 35.9237ZM300.159 7.24894V17.786H278.015V24.2638H299.2V34.4554H278.015V41.4514H300.595V51.9885H260.754V7.24894H300.159ZM331.718 7.24894C345.841 7.24894 348.456 14.7631 348.456 18.9089C348.456 24.0047 344.882 28.1504 339.303 29.1869V29.446C343.836 30.0506 349.503 33.0735 349.503 40.0695C349.503 51.3839 336.6 52.0748 330.846 52.0748H304.605V7.24894H331.718ZM320.995 24.9547H325.092C331.021 24.9547 331.631 21.8454 331.631 20.6363C331.631 18.7361 330.323 16.3178 325.528 16.3178H321.082L320.995 24.9547ZM320.995 42.9197H325.354C330.933 42.9197 331.805 39.8967 331.805 38.3421C331.805 33.7645 326.487 33.7645 324.918 33.7645H320.908L320.995 42.9197ZM351.769 18.3906C351.769 12.2584 356.738 7.33531 362.928 7.33531C369.118 7.33531 374 12.2584 374 18.3906C374 24.5229 369.031 29.446 362.841 29.446C356.651 29.446 351.769 24.5229 351.769 18.3906ZM362.841 25.8184C366.764 25.8184 369.99 22.45 369.99 18.3906C369.99 14.3313 366.764 10.9628 362.841 10.9628C358.918 10.9628 355.692 14.3313 355.692 18.3906C355.779 22.45 359.005 25.8184 362.841 25.8184ZM363.887 13.4676C365.282 13.4676 367.549 13.6403 367.549 15.9723C367.636 17.1815 366.764 18.2179 365.544 18.3906V18.477C366.415 18.5634 367.026 19.2543 367.2 20.118L367.81 22.8819H364.149L363.8 20.5499C363.713 19.7726 363.103 19.5998 362.667 19.5998H361.882V22.8819H358.395V13.3812L363.887 13.4676ZM361.795 17.6133H362.667C363.015 17.6133 364.062 17.6133 364.062 16.5769C364.062 15.6268 363.103 15.6268 362.754 15.6268H361.795V17.6133ZM42.9795 12.863L56.2308 20.2044C56.5795 19.3407 56.7538 18.3906 56.7538 17.4406C56.7538 11.6538 50.6513 6.98983 43.0667 6.98983C35.4821 6.98983 29.3795 11.6538 29.3795 17.4406C29.3795 18.3906 29.5538 19.3407 29.8154 20.2044L42.9795 12.863ZM66.0821 34.1099L76.7179 40.4149L56.7538 64.3394L66.0821 34.1099ZM66.6051 27.9777L65.3846 22.7091L85.8718 28.6686L73.2308 35.4919L74.9744 30.0506L66.6051 27.9777ZM64.2513 19.3407L61.5487 15.6268L79.6821 9.84003L75.1487 24.0047L73.3179 17.5269L64.2513 19.3407ZM59.1949 12.7766L55.359 8.80359L60.3282 3.70778L54.9231 0.339355H69.3949L59.1949 12.7766ZM19.8769 34.1099L9.24103 40.4149L29.118 64.3394L19.8769 34.1099ZM19.2667 27.9777L20.4872 22.7091L0 28.755L12.7282 35.4919L10.9846 30.0506L19.2667 27.9777ZM21.6205 19.3407L24.3231 15.6268L6.18974 9.9264L10.7231 24.091L12.5538 17.6133L21.6205 19.3407ZM26.6769 12.7766L30.5128 8.80359L25.5436 3.70778L30.9487 0.339355H16.3897L26.6769 12.7766Z" fill="white"/>
<path d="M37.7487 27.6323L40.1898 20.4636H45.8564L48.4718 27.6323H48.559L50.041 20.9818L42.9795 17.0088L35.918 20.9818L37.7487 27.6323Z" fill="white"/>
<path d="M62.1594 27.8049L54.7491 23.6592L52.0465 31.6916H45.4209L42.8927 24.3501H42.8055L40.2773 31.6916H33.6517L31.1235 23.6592L23.7132 27.8049C23.7132 27.8049 21.0107 37.2192 31.2978 44.9925C34.8722 47.7563 37.5748 49.4837 40.0158 50.2611L39.5799 48.8792H46.3799L45.944 50.2611C48.385 49.4837 51.0004 47.67 54.6619 44.9061C64.7748 37.2192 62.1594 27.8049 62.1594 27.8049ZM47.0773 46.7199H38.7081L37.8363 44.0424H47.9491L47.0773 46.7199ZM48.7337 41.7105H37.1389L36.2671 39.033H49.6927L48.7337 41.7105ZM50.4773 36.701H35.3953L34.5235 34.0236H51.3491L50.4773 36.701Z" fill="white"/>
</g>
<defs>
<clipPath id="clip0_26_281">
<rect width="374" height="64" fill="white" transform="translate(0 0.339355)"/>
</clipPath>
</defs>
</svg>
