<svg width="61" height="61" viewBox="0 0 61 61" fill="none" xmlns="http://www.w3.org/2000/svg">
<path d="M58.5203 12.476C58.4615 12.3245 58.3685 12.1886 58.2485 12.079C58.1285 11.9694 57.9847 11.8891 57.8285 11.8444C57.6746 11.7828 57.5097 11.7537 57.3441 11.7589C57.1784 11.7641 57.0157 11.8034 56.866 11.8745L56.5652 12.1151L44.4136 24.2666L37.3152 22.853L35.9015 15.7545L48.0531 3.60297L48.2937 3.30219C48.3647 3.15248 48.404 2.98971 48.4092 2.82408C48.4144 2.65846 48.3853 2.49355 48.3238 2.33969C48.279 2.18345 48.1987 2.03968 48.0891 1.91966C47.9795 1.79964 47.8437 1.70663 47.6921 1.6479C43.9412 0.0395705 39.7936 -0.404557 35.7872 0.373122C31.7808 1.1508 28.1006 3.1144 25.2238 6.00922C22.2216 9.03942 20.2355 12.9279 19.5403 17.1364C18.8452 21.345 19.4754 25.6656 21.3437 29.5002L2.51478 45.7424L2.45463 45.8026C0.882365 47.3859 0 49.5267 0 51.7581C0 53.9894 0.882365 56.1302 2.45463 57.7135C3.23668 58.4957 4.16514 59.1161 5.18699 59.5394C6.20883 59.9627 7.30405 60.1805 8.4101 60.1805C9.51614 60.1805 10.6114 59.9627 11.6332 59.5394C12.6551 59.1161 13.5835 58.4957 14.3656 57.7135L14.4257 57.6534L30.6679 38.8545C34.5075 40.7102 38.8278 41.3306 43.0344 40.6304C47.2411 39.9302 51.1275 37.9438 54.1589 34.9444C57.0537 32.0676 59.0173 28.3873 59.795 24.3809C60.5727 20.3745 60.1286 16.2269 58.5203 12.476ZM52.4445 33.2299C49.6809 35.9892 46.098 37.7793 42.2321 38.3324C38.3662 38.8854 34.4252 38.1716 30.9988 36.2979C30.7558 36.1504 30.4685 36.0936 30.1878 36.1376C29.907 36.1817 29.6509 36.3237 29.4648 36.5385L12.621 56.0291C12.0641 56.5861 11.4029 57.0279 10.6752 57.3293C9.94756 57.6307 9.16765 57.7858 8.38002 57.7858C6.78933 57.7858 5.26379 57.1539 4.139 56.0291C3.58206 55.4722 3.14028 54.811 2.83886 54.0834C2.53745 53.3557 2.38232 52.5758 2.38232 51.7881C2.38232 50.1974 3.01422 48.6719 4.139 47.5471L23.6296 30.7034C23.8372 30.5196 23.9769 30.2713 24.026 29.9984C24.0751 29.7255 24.0308 29.4441 23.9003 29.1995C22.0204 25.7716 21.3004 21.8274 21.848 17.9564C22.3955 14.0854 24.1813 10.4956 26.9382 7.72368C29.2498 5.38951 32.1592 3.73663 35.3478 2.94613C38.5363 2.15562 41.8809 2.258 45.0152 3.24204L33.7359 14.5213C33.5961 14.6608 33.4928 14.8325 33.4351 15.0214C33.3774 15.2102 33.3671 15.4104 33.405 15.6041L35.1195 24.1163C35.1595 24.3489 35.2707 24.5635 35.4377 24.7305C35.6046 24.8974 35.8192 25.0086 36.0519 25.0487L44.564 26.7631C44.7578 26.8011 44.9579 26.7907 45.1468 26.733C45.3356 26.6753 45.5073 26.572 45.6468 26.4323L56.9261 15.153C57.9101 18.2872 58.0125 21.6318 57.222 24.8204C56.4315 28.0089 54.7786 30.9183 52.4445 33.2299Z" fill="#A6FF00"/>
</svg>
