<svg width="64" height="65" viewBox="0 0 64 65" fill="none" xmlns="http://www.w3.org/2000/svg">
<path d="M48.3383 62.8331H4.52084C3.95726 62.8331 3.41676 62.6092 3.01824 62.2107C2.61973 61.8122 2.39584 61.2717 2.39584 60.7081V25.9998C2.39584 25.4362 2.61973 24.8957 3.01824 24.4972C3.41676 24.0986 3.95726 23.8748 4.52084 23.8748H14.3242C15.5474 23.8748 16.7497 23.558 17.8141 22.9554C18.8786 22.3527 19.7688 21.4847 20.3981 20.4358L29.9961 4.43809C30.7199 3.22986 31.8603 2.32774 33.2027 1.90138C34.5451 1.47503 35.997 1.55382 37.2854 2.12295C38.5737 2.69208 39.6098 3.71232 40.1986 4.9918C40.7875 6.27127 40.8886 7.7218 40.4829 9.07059L36.8633 21.1406C36.7685 21.4576 36.749 21.7924 36.8064 22.1183C36.8637 22.4442 36.9964 22.7521 37.1939 23.0177C37.3913 23.2832 37.648 23.499 37.9436 23.6478C38.2391 23.7966 38.5654 23.8743 38.8963 23.8748H55.0994C56.1886 23.8745 57.2632 24.1255 58.2396 24.6082C59.216 25.0908 60.068 25.7921 60.7293 26.6576C61.3906 27.5231 61.8434 28.5295 62.0524 29.5984C62.2615 30.6674 62.2213 31.7701 61.9348 32.821L55.1702 57.6127C54.7618 59.1111 53.8722 60.4337 52.6384 61.377C51.4046 62.3202 49.8949 62.8319 48.3419 62.8331H48.3383Z" stroke="#A6FF00" stroke-width="3" stroke-linecap="round"/>
</svg>
