<svg width="90" height="123" viewBox="0 0 90 123" fill="none" xmlns="http://www.w3.org/2000/svg">
<g clip-path="url(#clip0_864_25560)">
<path d="M61.9742 80.6998L78.882 110.194C76.4645 109.836 74.2429 109.515 72.0139 109.174C69.2266 108.748 66.4369 108.349 63.6664 107.85C62.7986 107.692 62.6414 108.162 62.4142 108.751C60.7332 113.088 59.0483 117.424 57.3593 121.757C57.2311 122.085 57.0885 122.409 56.8516 122.973C52.8773 116.06 49.0093 109.327 45.006 102.366L33.1628 123C32.6358 121.681 32.1958 120.61 31.7824 119.533C30.39 115.951 28.983 112.374 27.6365 108.777C27.3415 107.994 27.0297 107.768 26.1497 107.911C21.2278 108.721 16.2913 109.439 11.13 110.223L28.0861 80.617C26.6501 80.5075 25.4269 80.4053 24.2182 80.3202C22.5259 80.2034 20.8337 80.2131 19.1584 79.9649C13.5982 79.1376 10.8931 76.1057 10.47 70.3364C10.2984 67.9932 10.1606 65.6451 10.0228 63.2994C9.91326 61.1748 9.07709 59.1536 7.65608 57.5787C6.00011 55.6954 4.28854 53.8607 2.71235 51.9165C0.645411 49.364 -0.686611 46.4781 0.389163 43.1566C0.923424 41.502 1.90733 39.9472 2.92267 38.5139C3.99654 37.0424 5.20052 35.6718 6.51986 34.4187C9.15249 31.8516 10.1461 28.7248 10.2428 25.1114C10.2732 22.6019 10.5158 20.0996 10.968 17.6315C11.6787 13.9816 14.0575 11.6748 17.6837 11.0081C20.2225 10.5689 22.7909 10.3249 25.3665 10.2781C28.6615 10.1881 31.4754 9.19289 33.8735 6.85207C35.6241 5.11821 37.4925 3.50916 39.4651 2.0366C43.1542 -0.671639 46.8578 -0.691109 50.5323 2.02443C52.7298 3.6523 54.7508 5.53566 56.7621 7.40199C58.7735 9.26832 61.1764 10.12 63.8913 10.2368C66.1032 10.3317 68.3225 10.4193 70.5175 10.6869C76.2977 11.3853 79.1358 14.4585 79.5565 20.3446C79.7257 22.6903 79.8683 25.036 80.0013 27.3841C80.1257 29.5912 81.0243 31.6822 82.5372 33.2848C83.7846 34.6645 85.0441 36.032 86.2601 37.4384C86.956 38.2291 87.6019 39.0629 88.1941 39.935C90.5946 43.5338 90.6454 47.1472 88.1796 50.7023C86.9735 52.4749 85.5969 54.1237 84.0699 55.6248C81.0432 58.5447 79.687 62.0024 79.7837 66.1828C79.799 68.007 79.6566 69.8291 79.3582 71.6285C78.5701 76.86 75.6957 79.5488 70.4402 80.0306C68.1146 80.2447 65.7817 80.3494 63.4513 80.5173C63.0137 80.5392 62.5955 80.6195 61.9742 80.6998ZM45.7336 3.80073C43.2364 3.77884 41.8222 4.73025 40.5192 5.83009C38.7327 7.34116 37.0163 8.9374 35.2781 10.5093C32.9211 12.6506 30.1071 13.6993 26.9402 13.8672C24.5687 13.9962 22.1947 14.1106 19.8305 14.3539C16.2574 14.7067 14.7006 16.208 14.2896 19.7679C14.0261 22.0601 13.9294 24.3717 13.8061 26.6785C13.6321 30.1118 12.5974 33.1826 10.2428 35.7449C8.93009 37.1732 7.6174 38.604 6.35548 40.0785C2.83564 44.2005 2.84048 46.5048 6.35548 50.5952C7.67542 52.1257 9.05337 53.6052 10.3902 55.1211C12.2009 57.1797 13.3661 59.5448 13.5982 62.309C13.84 65.2557 13.9608 68.2146 14.292 71.1516C14.645 74.271 16.0326 75.7188 19.1076 76.1763C21.141 76.4651 23.19 76.6276 25.2432 76.6629C29.4254 76.7603 33.1604 77.8991 36.204 80.9455C37.4296 82.1622 38.7326 83.3277 40.0478 84.4616C43.8093 87.6979 46.1398 87.6881 49.9376 84.4616C50.3389 84.121 50.7257 83.7657 51.1149 83.4153C52.3744 82.2765 53.6001 81.1013 54.8959 80.0087C56.6727 78.5049 58.6212 77.3005 61.0072 77.0888C63.7704 76.8454 66.5384 76.6289 69.3088 76.4318C73.6458 76.1252 75.2074 74.7577 75.7659 70.4313C76.0439 68.2657 76.0729 66.066 76.1889 63.8833C76.3654 60.5376 77.3977 57.5568 79.6604 55.0286C81.3405 53.1696 83.0449 51.3252 84.5872 49.3518C86.8717 46.4318 86.8596 44.2687 84.5872 41.322C83.3458 39.7261 82.0123 38.2051 80.5935 36.7668C77.6104 33.7179 76.1672 30.0924 76.1261 25.8171C76.0961 23.7911 75.9549 21.7684 75.703 19.7582C75.2703 16.2032 73.7134 14.7164 70.1428 14.3514C68.5826 14.1708 67.0138 14.075 65.4433 14.0643C60.4754 14.1057 56.2375 12.5046 52.7733 8.8206C51.4878 7.47712 50.0767 6.26135 48.5597 5.19014C47.583 4.46259 46.3308 4.0757 45.7336 3.80073ZM58.3553 81.8775C56.5542 83.5005 54.9079 84.9799 53.2786 86.4618C50.2229 89.2211 46.9931 91.4646 42.2887 90.1701L56.211 114.447C57.4777 111.189 58.6889 108.201 59.7936 105.174C60.2094 104.03 60.6494 103.388 62.0105 103.848C62.9122 104.154 63.9106 104.174 64.8655 104.317L71.8254 105.364C67.2975 97.4627 62.8977 89.7856 58.3649 81.8775H58.3553ZM31.5624 81.9626L18.1745 105.359C21.8007 104.811 25.1465 104.361 28.4632 103.782C29.394 103.619 29.7252 103.877 30.0249 104.704C30.8179 106.909 31.7002 109.084 32.5536 111.262C32.938 112.235 33.3369 113.208 33.7623 114.277C33.8913 114.153 34.0109 114.019 34.1201 113.878C36.9075 109.011 39.7093 104.144 42.4483 99.2365C42.6538 98.8691 42.5571 98.1488 42.3298 97.7473C40.1831 93.9027 37.9325 90.1166 35.8027 86.2598C34.8043 84.4543 33.2692 83.279 31.5721 81.9626H31.5624Z" fill="#A6FF00"/>
<path d="M45.0085 73.6239C29.5705 73.6409 16.9658 60.9538 16.944 45.3734C16.9355 41.6577 17.6549 37.9766 19.0613 34.541C20.4676 31.1054 22.5333 27.9827 25.1399 25.3515C27.7466 22.7203 30.8432 20.6323 34.2525 19.207C37.6618 17.7817 41.3168 17.0471 45.0085 17.0452C60.4803 17.0452 73.0825 29.7153 73.0753 45.2712C73.0875 52.7769 70.1376 59.9801 64.8743 65.297C59.6111 70.6139 52.4653 73.609 45.0085 73.6239ZM45.0278 20.7486C38.5489 20.7654 32.3408 23.3667 27.7641 27.9825C23.1873 32.5983 20.6152 38.8521 20.6114 45.3734C20.6114 58.8587 31.5746 69.8596 45.0278 69.8717C58.481 69.8839 69.3983 58.883 69.4249 45.3953C69.4491 31.8395 58.4641 20.7438 45.0085 20.7486H45.0278Z" fill="#A6FF00"/>
<path d="M45.0254 9.50439C45.5109 9.51265 45.9739 9.71176 46.3154 10.0592C46.657 10.4066 46.8499 10.8747 46.853 11.3634C46.8314 11.8455 46.6247 12.3002 46.2764 12.6318C45.9281 12.9634 45.4655 13.146 44.9861 13.1409C44.5068 13.1359 44.0481 12.9436 43.7068 12.6048C43.3655 12.2659 43.1683 11.8069 43.1567 11.3245C43.1748 10.8371 43.3793 10.3755 43.7275 10.0363C44.0758 9.69716 44.5408 9.50657 45.0254 9.50439Z" fill="#A6FF00"/>
<path d="M46.853 79.2788C46.8422 79.7607 46.646 80.2196 46.3055 80.5586C45.9651 80.8977 45.5071 81.0904 45.0283 81.096C44.5494 81.1017 44.0871 80.92 43.7388 80.5891C43.3905 80.2582 43.1835 79.8041 43.1615 79.3226C43.1722 78.8407 43.3685 78.3818 43.709 78.0428C44.0494 77.7037 44.5073 77.5111 44.9862 77.5054C45.4651 77.4997 45.9274 77.6815 46.2757 78.0123C46.624 78.3432 46.831 78.7973 46.853 79.2788Z" fill="#A6FF00"/>
<path d="M21.1384 23.1332C20.8982 23.1406 20.659 23.0985 20.4356 23.0095C20.2122 22.9204 20.0092 22.7863 19.8391 22.6154C19.6691 22.4444 19.5356 22.2403 19.4468 22.0155C19.358 21.7907 19.3159 21.5501 19.3229 21.3083C19.32 21.0669 19.365 20.8275 19.4553 20.6039C19.5455 20.3803 19.6792 20.1771 19.8486 20.0062C20.0179 19.8353 20.2194 19.7001 20.4413 19.6087C20.6633 19.5172 20.9011 19.4713 21.1408 19.4736C21.6257 19.478 22.0897 19.6732 22.4335 20.0174C22.7773 20.3616 22.9736 20.8275 22.9805 21.3156C22.979 21.5569 22.93 21.7956 22.8364 22.0177C22.7428 22.2399 22.6065 22.4413 22.4353 22.6103C22.2641 22.7792 22.0613 22.9124 21.8387 23.0021C21.6162 23.0919 21.3782 23.1365 21.1384 23.1332Z" fill="#A6FF00"/>
<path d="M80.5719 45.3589C80.57 45.6001 80.5208 45.8386 80.4271 46.0606C80.3334 46.2827 80.1971 46.4839 80.0259 46.6528C79.8547 46.8217 79.6521 46.9549 79.4297 47.0448C79.2073 47.1346 78.9694 47.1794 78.7298 47.1765C78.2458 47.1638 77.7864 46.9598 77.4507 46.6087C77.115 46.2576 76.9301 45.7877 76.936 45.3004C76.9365 45.0587 76.9854 44.8195 77.0798 44.5971C77.1742 44.3748 77.3122 44.1739 77.4855 44.0065C77.6588 43.8391 77.864 43.7086 78.0885 43.6228C78.3131 43.537 78.5526 43.4976 78.7926 43.5071C79.0325 43.5032 79.2707 43.5488 79.4923 43.6413C79.714 43.7337 79.9144 43.871 80.0812 44.0446C80.248 44.2182 80.3776 44.4244 80.462 44.6505C80.5464 44.8765 80.5838 45.1177 80.5719 45.3589Z" fill="#A6FF00"/>
<path d="M22.966 69.3657C22.9466 69.8574 22.739 70.3225 22.3866 70.6636C22.0342 71.0047 21.5644 71.1953 21.0755 71.1955C20.8339 71.1927 20.5953 71.1419 20.3731 71.0462C20.151 70.9505 19.9498 70.8117 19.781 70.6377C19.6122 70.4637 19.4791 70.258 19.3893 70.0322C19.2995 69.8064 19.2547 69.5651 19.2576 69.3219C19.2604 69.0787 19.3108 68.8385 19.4059 68.6149C19.501 68.3914 19.639 68.1889 19.8118 68.0189C19.9847 67.849 20.1891 67.7151 20.4134 67.6247C20.6377 67.5343 20.8774 67.4892 21.119 67.4921C21.6077 67.5039 22.0728 67.7056 22.4171 68.0548C22.7613 68.4041 22.958 68.8738 22.966 69.3657Z" fill="#A6FF00"/>
<path d="M68.9148 71.1954C68.4269 71.2002 67.957 71.0098 67.6086 70.6659C67.2602 70.3221 67.0618 69.853 67.057 69.3619C67.0522 68.8708 67.2414 68.3979 67.583 68.0472C67.9246 67.6965 68.3906 67.4968 68.8786 67.4919C69.1201 67.4895 69.3599 67.535 69.584 67.6259C69.8081 67.7167 70.0122 67.8511 70.1847 68.0214C70.3573 68.1916 70.4948 68.3944 70.5894 68.6181C70.6841 68.8419 70.734 69.0822 70.7364 69.3254C70.7388 69.5686 70.6935 69.8098 70.6033 70.0354C70.513 70.261 70.3795 70.4665 70.2104 70.6401C70.0412 70.8137 69.8398 70.9521 69.6175 71.0474C69.3952 71.1427 69.1564 71.193 68.9148 71.1954Z" fill="#A6FF00"/>
<path d="M68.8592 23.1138C68.6175 23.1144 68.3781 23.0667 68.1549 22.9732C67.9317 22.8797 67.7293 22.7425 67.5594 22.5694C67.3895 22.3964 67.2555 22.191 67.1653 21.9653C67.0751 21.7396 67.0305 21.498 67.034 21.2547C67.0421 21.011 67.0979 20.7713 67.1982 20.5492C67.2985 20.3272 67.4414 20.1273 67.6185 19.961C67.7957 19.7946 68.0038 19.6651 68.2308 19.5798C68.4578 19.4945 68.6993 19.4551 68.9414 19.4638C69.4087 19.4766 69.8525 19.6729 70.1778 20.0108C70.5031 20.3486 70.684 20.8013 70.682 21.2718C70.6914 21.5156 70.6508 21.7588 70.5627 21.9861C70.4745 22.2134 70.3407 22.4199 70.1696 22.5928C69.9985 22.7657 69.7938 22.9012 69.5684 22.9908C69.3429 23.0805 69.1015 23.1223 68.8592 23.1138Z" fill="#A6FF00"/>
<path d="M13.081 45.2809C13.0902 45.7685 12.9089 46.2402 12.5762 46.5947C12.2435 46.9491 11.7859 47.158 11.3017 47.1764C11.0621 47.1822 10.8237 47.1402 10.6003 47.0528C10.3768 46.9654 10.1728 46.8343 10 46.6672C9.82717 46.5 9.68895 46.3 9.59329 46.0788C9.49764 45.8576 9.44645 45.6195 9.44269 45.3782C9.4281 45.1369 9.46296 44.8951 9.5451 44.6679C9.62724 44.4407 9.7549 44.2329 9.92016 44.0574C10.0854 43.882 10.2847 43.7426 10.5058 43.6479C10.7268 43.5532 10.9648 43.5053 11.205 43.507C11.4448 43.4959 11.6843 43.5334 11.9094 43.6171C12.1346 43.7009 12.3407 43.8293 12.5156 43.9947C12.6906 44.1601 12.8307 44.3592 12.9278 44.5801C13.025 44.801 13.077 45.0393 13.081 45.2809Z" fill="#A6FF00"/>
<path d="M57.1079 62.1995C54.3738 60.759 51.8596 59.4207 49.3334 58.1019C47.9095 57.3573 46.4711 56.0798 45.0375 56.0774C43.604 56.075 42.1632 57.3476 40.7393 58.0873C38.5224 59.2382 36.3201 60.4111 34.1081 61.5693C33.7624 61.7518 33.4047 61.9124 32.8075 62.1995C33.1412 60.1434 33.4312 58.3233 33.7334 56.5056C34.1275 54.1502 34.5747 51.8046 34.8962 49.4491C34.9179 49.1719 34.8839 48.893 34.7962 48.6292C34.7086 48.3655 34.5691 48.1221 34.3861 47.9137C31.7269 45.2104 28.9952 42.5605 26.2755 39.9204C25.9607 39.6645 25.6232 39.4381 25.2675 39.2439L25.4826 38.8522C27.286 38.5772 29.087 38.2925 30.8905 38.0249C33.1581 37.6866 35.4232 37.2949 37.7005 37.0516C38.6675 36.9542 39.0857 36.5187 39.4677 35.7206C41.0874 32.3286 42.7603 28.9609 44.4162 25.5859C44.5709 25.2696 44.7523 24.963 45.0303 24.4496C45.492 25.3864 45.8764 26.165 46.2559 26.9437C47.733 29.9561 49.2246 32.9612 50.6654 35.9882C50.9845 36.6549 51.3906 36.9226 52.1159 37.0199C56.1023 37.5552 60.0935 38.1538 64.0606 38.7354C64.209 38.7705 64.3539 38.8193 64.4933 38.8814L64.8511 39.3145C64.4619 39.5238 64.0026 39.66 63.6956 39.9569C60.9662 42.5946 58.2442 45.242 55.5777 47.9429C55.397 48.1548 55.2609 48.4015 55.1778 48.668C55.0947 48.9344 55.0662 49.2151 55.0942 49.4929C55.6889 53.3302 56.3706 57.1553 57.0282 60.9853C57.0813 61.2992 57.0717 61.6204 57.1079 62.1995ZM33.5352 41.3974C35.0969 43.0666 36.5184 44.7091 38.0776 46.2299C38.8367 46.9599 39.0664 47.6485 38.856 48.6778C38.4136 50.8434 38.097 53.0382 37.6884 55.4569C39.0978 54.7269 40.4081 54.2403 41.4838 53.4422C43.8723 51.6683 46.0964 51.5612 48.5066 53.4202C49.5775 54.2476 50.9241 54.7221 52.3383 55.4618C51.9031 52.9433 51.5454 50.712 51.1295 48.4928C50.97 47.6607 51.1054 47.0572 51.7605 46.4562C53.2472 45.0936 54.6615 43.6458 56.0926 42.2223C56.307 41.9751 56.5064 41.715 56.6897 41.4436C54.3955 41.0981 52.2972 40.6723 50.1795 40.5068C48.9272 40.4095 48.3833 39.8085 47.9167 38.7719C47.0464 36.8423 46.0674 34.9638 45.0158 32.8176C43.8505 35.1779 42.8014 37.2608 41.8005 39.3632C41.6859 39.6612 41.4878 39.9193 41.2304 40.1063C40.973 40.2933 40.6671 40.4012 40.35 40.4168C38.0462 40.6893 35.7593 41.0665 33.5352 41.3974Z" fill="#A6FF00"/>
</g>
<defs>
<clipPath id="clip0_864_25560">
<rect width="90" height="123" fill="white"/>
</clipPath>
</defs>
</svg>
