<svg width="107" height="123" viewBox="0 0 107 123" fill="none" xmlns="http://www.w3.org/2000/svg">
<g clip-path="url(#clip0_864_25574)">
<path d="M43.3307 101.017L40.4924 97.6745L40.0982 97.8555V123H9.59894V80.8487H0.0123291V79.2346C0.0123291 69.062 0.0123291 58.8904 0.0123291 48.7195C0.0123291 37.6337 5.95254 28.777 16.1723 24.6684L16.9336 24.361C12.6836 20.8104 10.7742 16.3795 11.7153 10.9718C12.3239 7.44592 14.1791 4.62426 17.0864 2.51918C22.7137 -1.5695 30.5855 -0.540518 35.0721 4.83997C39.3147 9.93036 39.7779 18.5193 32.7241 24.3833C33.1971 24.5767 33.5815 24.7404 33.956 24.8966C38.3686 26.6818 41.8598 29.6076 44.9149 33.2648C46.2281 34.8393 48.31 35.7666 50.0716 36.9444C50.2244 37.0485 50.6038 36.8601 50.8576 36.7535C52.7892 35.9526 54.7282 35.1691 56.6303 34.3062C57.0882 34.0953 57.4554 33.7256 57.6651 33.2648C58.3254 31.4895 58.8969 29.6795 59.4612 27.867C59.6755 27.1678 60.0057 26.8925 60.762 26.9C64.8289 26.938 68.8958 26.938 72.9627 26.9C73.7856 26.9 74.1035 27.2174 74.3277 27.9513C74.8697 29.7266 75.4413 31.4945 76.1065 33.2252C76.339 33.71 76.7343 34.0964 77.2226 34.3161C79.0491 35.1542 80.9003 35.9344 82.776 36.6568C83.2807 36.8452 83.8358 36.8452 84.3405 36.6568C86.0652 35.8782 87.7405 35.0079 89.4061 34.1153C90.0048 33.7954 90.3916 33.8103 90.8843 34.3285C93.7883 37.3039 96.7203 40.2578 99.6801 43.1902C100.141 43.6465 100.21 43.9936 99.9043 44.5713C99.0222 46.2474 98.1575 47.9409 97.3962 49.6741C97.1941 50.2151 97.1889 50.8106 97.3814 51.3552C98.0762 53.247 98.8473 55.1166 99.6727 56.9539C99.9009 57.4427 100.294 57.8345 100.781 58.0597C102.506 58.7218 104.263 59.2995 106.022 59.8425C106.695 60.0532 107.007 60.3384 106.993 61.1219C106.95 65.2544 106.95 69.3869 106.993 73.5193C106.993 74.3004 106.709 74.593 106.007 74.8062C104.243 75.3517 102.489 75.9344 100.769 76.6014C100.277 76.818 99.878 77.2039 99.6431 77.6898C98.8153 79.5296 98.0466 81.4091 97.3543 83.2935C97.1635 83.841 97.1696 84.4385 97.3715 84.982C98.1107 86.6805 98.9656 88.3343 99.8353 89.9757C100.153 90.5757 100.156 90.9675 99.6407 91.4634C96.6841 94.3892 93.7489 97.3398 90.8351 100.315C90.3867 100.774 90.0245 100.851 89.448 100.541C87.8564 99.6854 86.2081 98.9341 84.6239 98.0613C83.8527 97.6373 83.2417 97.7092 82.4582 98.0812C80.7557 98.887 78.9645 99.5019 77.2522 100.288C76.729 100.529 76.3068 100.948 76.0597 101.471C75.3748 103.239 74.7933 105.049 74.239 106.861C74.0468 107.488 73.7462 107.699 73.1105 107.697C68.9615 107.67 64.8125 107.67 60.6635 107.697C59.9613 107.697 59.6509 107.466 59.4513 106.809C58.8945 104.994 58.3204 103.184 57.6503 101.411C57.4241 100.918 57.03 100.522 56.5391 100.295C54.7126 99.4689 52.859 98.6986 50.9783 97.9845C50.4757 97.7986 49.9238 97.7986 49.4212 97.9845C47.46 98.9019 45.5333 99.9135 43.3307 101.017ZM41.6479 35.5584C41.5963 35.4215 41.5311 35.2903 41.4533 35.1666C36.2178 28.7051 29.4694 25.8189 21.297 27.2322C10.7027 29.0621 3.7425 37.7403 3.73265 48.5757C3.73265 57.5465 3.73265 66.5164 3.73265 75.4856V76.8741H9.59649V65.5503H13.3168V119.241H23.002V88.2475H26.7322V119.241H36.3015V117.798C36.3015 110.813 36.2128 103.824 36.3533 96.8414C36.3976 94.6099 36.0354 92.8023 34.1556 91.4981C33.5051 91.0468 33.5987 90.5609 33.9338 89.9261C34.8011 88.2872 35.6412 86.6284 36.3976 84.9349C36.5957 84.4312 36.6088 83.873 36.4346 83.3604C35.7102 81.4339 34.9144 79.5321 34.0718 77.6576C33.8671 77.1987 33.5062 76.8285 33.0542 76.6137C31.2926 75.9418 29.5039 75.3418 27.7004 74.7888C26.9884 74.5706 26.7321 74.2384 26.7371 73.4822C26.7691 69.391 26.7765 65.2998 26.7371 61.2062C26.7371 60.3756 27.0574 60.0532 27.7743 59.8301C29.499 59.2896 31.2236 58.7391 32.8965 58.0796C33.4202 57.8452 33.8451 57.4326 34.0964 56.9142C34.9366 55.0819 35.7053 53.2123 36.4149 51.3254C36.6034 50.8178 36.6034 50.2586 36.4149 49.751C35.5131 47.7674 34.5029 45.8284 33.4731 43.758L41.6479 35.5584ZM44.2325 96.3282C46.0803 95.3984 47.8222 94.476 49.6109 93.6578C50.0778 93.4975 50.5869 93.5142 51.0424 93.7049C53.8856 94.8504 56.714 96.0364 59.5277 97.2629C59.9822 97.4534 60.3543 97.8006 60.5773 98.2423C61.1809 99.8193 61.686 101.433 62.1886 103.048C62.3881 103.687 62.6961 103.972 63.4205 103.958C65.7192 103.913 68.0204 103.905 70.3191 103.958C71.1075 103.977 71.3835 103.643 71.5929 102.966C72.0856 101.389 72.5784 99.8168 73.1943 98.287C73.433 97.8117 73.8309 97.4366 74.3178 97.2282C77.0904 96.0149 79.8827 94.8463 82.6947 93.7222C83.1863 93.5204 83.7336 93.5028 84.237 93.6726C85.7769 94.3471 87.2724 95.1256 88.7556 95.9215C89.3174 96.224 89.6722 96.2067 90.1329 95.7306C91.7886 94.0074 93.5108 92.3511 95.1492 90.6105C95.2759 90.4336 95.359 90.2289 95.3916 90.0133C95.4242 89.7978 95.4052 89.5775 95.3364 89.3707C94.6318 87.7913 93.7818 86.2788 93.0796 84.6969C92.9148 84.2318 92.9244 83.7222 93.1067 83.2637C94.24 80.3958 95.4136 77.5452 96.6275 74.712C96.8192 74.2534 97.1692 73.88 97.613 73.6607C99.1775 73.0482 100.779 72.5226 102.385 72.0316C103.038 71.8308 103.309 71.5357 103.297 70.8216C103.255 68.5058 103.248 66.19 103.297 63.8791C103.314 63.1055 103.006 62.7832 102.324 62.5724C100.757 62.0765 99.1898 61.5806 97.6647 60.9855C97.1919 60.7508 96.8186 60.3532 96.6127 59.8648C95.412 57.0712 94.2565 54.2612 93.1461 51.4345C92.9466 50.9423 92.9282 50.3945 93.0944 49.8898C93.767 48.3401 94.548 46.8376 95.3364 45.3424C95.6296 44.787 95.6222 44.425 95.1418 43.9589C93.4566 42.3249 91.796 40.6612 90.1772 38.9627C89.6845 38.4445 89.2878 38.4073 88.699 38.7296C87.2207 39.5231 85.7153 40.2992 84.1804 40.9835C83.7148 41.1437 83.2074 41.1296 82.7514 40.9438C79.9049 39.8082 77.0748 38.6305 74.2612 37.4105C73.8062 37.2101 73.4387 36.8508 73.2264 36.3989C72.6153 34.8244 72.0906 33.2152 71.5904 31.5986C71.4056 30.9986 71.1494 30.7234 70.4817 30.7333C68.1 30.7713 65.7184 30.7713 63.3367 30.7333C62.6592 30.7209 62.4128 31.0283 62.2305 31.6036C61.7229 33.2177 61.2154 34.8269 60.6093 36.4088C60.3963 36.8622 60.028 37.2231 59.572 37.4254C56.7337 38.6354 53.8897 39.8107 51.0399 40.9513C50.5446 41.1352 50.0003 41.1352 49.505 40.9513C48.0021 40.2917 46.5484 39.5256 45.0948 38.7569C44.5133 38.447 44.1093 38.4147 43.6017 38.9503C41.9855 40.6537 40.2781 42.2703 38.6741 43.9886C38.5391 44.181 38.4504 44.4023 38.4149 44.6351C38.3794 44.8679 38.3981 45.1058 38.4697 45.33C39.1423 46.8797 39.9849 48.3525 40.655 49.9022C40.8246 50.4099 40.8097 50.9616 40.6131 51.4593C39.5094 54.2909 38.3596 57.101 37.1638 59.8896C36.949 60.3803 36.5672 60.7777 36.0872 61.0103C34.5621 61.6128 32.9951 62.1063 31.4281 62.5922C30.7974 62.7856 30.4993 63.0559 30.5165 63.7898C30.5683 66.1453 30.5584 68.5009 30.5165 70.8588C30.5165 71.5085 30.726 71.806 31.3394 71.9994C32.9828 72.5151 34.6187 73.0606 36.2251 73.6805C36.4363 73.7698 36.627 73.902 36.7851 74.0688C36.9432 74.2356 37.0654 74.4335 37.1441 74.65C37.9142 77.6962 39.1078 80.6178 40.6895 83.3282C40.7843 83.534 40.8367 83.757 40.8434 83.9837C40.8502 84.2104 40.8113 84.4361 40.729 84.6473C40.0194 86.2267 39.2507 87.7739 38.4327 89.3063C38.1346 89.8741 38.1863 90.2385 38.6544 90.6972C40.5097 92.5246 42.3156 94.3842 44.2325 96.3257V96.3282ZM34.3773 13.4934C34.3807 11.5909 33.8237 9.7301 32.7766 8.14611C31.7295 6.56211 30.2393 5.32602 28.4944 4.59402C26.7495 3.86201 24.8281 3.66695 22.9731 4.03348C21.1181 4.40002 19.4126 5.3117 18.0723 6.65332C16.7319 7.99494 15.8168 9.70629 15.4426 11.5711C15.0684 13.436 15.2518 15.3706 15.9697 17.1305C16.6876 18.8905 17.9078 20.3968 19.4761 21.4591C21.0444 22.5214 22.8904 23.0921 24.7808 23.0989C27.317 23.0983 29.7499 22.0873 31.5476 20.287C33.3453 18.4866 34.3618 16.0432 34.3748 13.4909L34.3773 13.4934Z" fill="#A6FF00"/>
<path d="M66.919 48.0599C69.4502 48.0423 71.9597 48.5301 74.3022 49.495C76.6448 50.4599 78.774 51.8827 80.5666 53.6811C82.3592 55.4796 83.7796 57.6179 84.7457 59.9724C85.7117 62.327 86.2041 64.8509 86.1945 67.3982C86.1849 69.9455 85.6735 72.4656 84.6897 74.8127C83.7059 77.1598 82.2694 79.2872 80.4633 81.0719C78.6572 82.8566 76.5173 84.2631 74.1675 85.21C71.8177 86.157 69.3046 86.6256 66.7737 86.5887C56.2533 86.5639 47.7015 77.8683 47.7483 67.2487C47.7531 64.7214 48.253 62.2198 49.2194 59.8871C50.1859 57.5545 51.5998 55.4364 53.3803 53.6542C55.1609 51.872 57.2732 50.4605 59.5963 49.5006C61.9194 48.5407 64.4077 48.0511 66.919 48.0599ZM66.9412 51.8486C58.4559 51.8362 51.5253 58.7366 51.5006 67.2214C51.4869 71.3396 53.0981 75.2949 55.9804 78.2182C58.8626 81.1416 62.7801 82.794 66.8722 82.8124C75.2861 82.8124 82.2414 75.8426 82.2734 67.3553C82.3054 58.868 75.3674 51.861 66.9412 51.861V51.8486Z" fill="#A6FF00"/>
<path d="M93.4836 67.3256C94.0084 80.809 82.3522 94.3198 66.8969 94.171C66.8969 93.1172 66.8156 92.0486 66.9535 91.0072C66.9856 90.7592 67.7173 90.4319 68.1411 90.4071C72.7256 90.1909 77.1308 88.5503 80.7508 85.711C86.2696 81.3992 89.3395 75.7186 89.7559 68.6694C89.8175 67.6008 90.0959 67.1817 91.1825 67.3082C91.9485 67.3586 92.7169 67.3644 93.4836 67.3256Z" fill="#A6FF00"/>
<path d="M43.8678 67.2016H40.3618C39.3886 54.6455 51.136 40.1405 66.7244 40.5347V44.1498C60.4664 44.3606 55.0263 46.5475 50.5989 51.023C46.1714 55.4984 44.0649 60.9112 43.8678 67.2016Z" fill="#A6FF00"/>
</g>
<defs>
<clipPath id="clip0_864_25574">
<rect width="107" height="123" fill="white"/>
</clipPath>
</defs>
</svg>
