<svg width="129" height="73" viewBox="0 0 129 73" fill="none" xmlns="http://www.w3.org/2000/svg">
<g clip-path="url(#clip0_864_25593)">
<path d="M111.211 7.50895H99.7153C98.4652 7.50532 97.2325 7.21692 96.1118 6.66586C94.9911 6.1148 94.0121 5.31571 93.2498 4.32986C92.2364 3.01482 90.9332 1.94864 89.4405 1.21337C87.9479 0.478108 86.3057 0.0933636 84.6401 0.0887451H44.3739C42.7066 0.0922816 41.0622 0.476479 39.5675 1.21176C38.0728 1.94703 36.7677 3.01378 35.7525 4.32986C34.9911 5.31713 34.0125 6.11765 32.8917 6.66996C31.7709 7.22227 30.5378 7.51168 29.287 7.51596H15.101V43.0485H26.9786C27.7592 43.0453 28.5374 43.1354 29.2964 43.3169C28.8488 44.1379 28.5622 45.0362 28.4519 45.9638C28.2896 47.314 28.5129 48.6824 29.0964 49.9121C29.6799 51.1419 30.5998 52.1831 31.7508 52.9165C32.9017 53.6498 34.2371 54.0457 35.6038 54.0586C36.9705 54.0715 38.3132 53.701 39.4779 52.9895C39.5578 54.1575 39.9222 55.2886 40.5397 56.2851C41.1572 57.2816 42.0092 58.1135 43.0221 58.7091C44.0351 59.3047 45.1785 59.646 46.3537 59.7036C47.5289 59.7612 48.7005 59.5333 49.7673 59.0396C49.6924 60.9635 50.3886 62.8382 51.7026 64.2516C53.0167 65.665 54.8411 66.5012 56.7747 66.5765H57.0844C58.4195 66.5723 59.728 66.205 60.8684 65.5145C60.8495 66.4668 61.0193 67.4135 61.3682 68.3005C61.7171 69.1874 62.2382 69.9973 62.9019 70.6838C63.5655 71.3703 64.3585 71.92 65.2357 72.3014C66.113 72.6828 67.0571 72.8885 68.0143 72.9067H68.1503C69.7888 72.9027 71.3783 72.3511 72.664 71.3405L78.5429 66.7096C79.1116 66.2591 79.6117 65.7292 80.028 65.1364C80.563 65.3788 81.1254 65.5567 81.703 65.6662C82.1622 65.7544 82.6287 65.7998 83.0965 65.8016C84.8745 65.7945 86.5888 65.1417 87.9171 63.9657C89.2455 62.7898 90.0965 61.1716 90.3103 59.4154C90.9076 59.728 91.5467 59.9544 92.2082 60.0876C92.6677 60.1735 93.1342 60.2165 93.6017 60.216C94.8429 60.2162 96.0636 59.9004 97.1474 59.2985C98.2313 58.6966 99.1423 57.8288 99.7937 56.7775C100.445 55.7263 100.815 54.5266 100.869 53.2928C100.922 52.059 100.658 50.832 100.1 49.7287V49.6751L99.8021 49.2316C99.7895 49.2071 99.7737 49.1843 99.7552 49.1639C99.7083 49.0775 99.6543 48.9958 99.6003 48.9165L96.6538 44.554C97.0857 44.2948 97.5375 44.07 98.0051 43.8817C98.1412 43.8234 98.2772 43.7697 98.4109 43.7184C98.615 43.639 98.8168 43.5713 99.0185 43.5106C99.14 43.4656 99.2647 43.4297 99.3916 43.4032C99.5933 43.3496 99.7974 43.2959 100.006 43.2562C100.215 43.2165 100.424 43.1745 100.64 43.1488C100.855 43.1231 101.109 43.0881 101.343 43.0741C101.578 43.0601 101.813 43.0741 102.047 43.0741H113.932V7.50895H111.211ZM32.0717 49.6214C31.4718 48.864 31.1263 47.9382 31.0842 46.9748C31.0421 46.0114 31.3055 45.0592 31.8371 44.2529C32.1063 43.8588 32.4392 43.5117 32.8224 43.2259L33.9109 42.3716L34.0447 42.2642C34.5146 41.8778 35.0573 41.5886 35.641 41.4136C36.2247 41.2385 36.8376 41.1812 37.4439 41.2448C38.0501 41.3084 38.6375 41.4918 39.1717 41.7842C39.7058 42.0765 40.1759 42.472 40.5545 42.9475C40.933 43.4229 41.2124 43.9687 41.3763 44.5529C41.5401 45.1372 41.5852 45.7481 41.5087 46.3498C41.4323 46.9516 41.2359 47.5321 40.9311 48.0574C40.6263 48.5827 40.2192 49.0422 39.7336 49.409L39.1401 49.8758L38.5043 50.373C37.6865 51.0216 36.6691 51.3703 35.6233 51.3605C34.5775 51.3508 33.5669 50.9831 32.7614 50.3193C32.5062 50.1128 32.2749 49.8787 32.0717 49.6214ZM49.5492 56.0612C48.8791 56.586 48.075 56.9142 47.2276 57.0088C46.3801 57.1034 45.523 56.9607 44.7527 56.5968C43.9823 56.2329 43.3294 55.6622 42.8675 54.949C42.4056 54.2357 42.153 53.4084 42.1382 52.56V51.9602C42.2212 51.2045 42.4948 50.4819 42.9335 49.8595C43.1911 49.5002 43.4983 49.1788 43.8461 48.9048L49.7345 44.2832C50.4451 43.7253 51.3059 43.3892 52.2083 43.3176C53.1106 43.2459 54.0141 43.4418 54.8047 43.8805C55.5952 44.3193 56.2375 44.9812 56.6503 45.7827C57.0631 46.5843 57.2281 47.4896 57.1243 48.3843C57.0672 48.9026 56.9162 49.4064 56.6785 49.8711C56.509 50.2424 56.2809 50.5844 56.0029 50.8841L53.8915 52.56L52.5004 53.6548C52.2333 53.8595 51.9823 54.0842 51.7497 54.327L49.5492 56.0612ZM59.8573 62.9049C58.9594 63.606 57.8308 63.9484 56.6925 63.865C55.5542 63.7817 54.4881 63.2786 53.7031 62.4543C52.918 61.6299 52.4704 60.5437 52.448 59.4083C52.4256 58.2729 52.8299 57.17 53.5819 56.3157L57.1008 53.5404C57.3824 53.3212 57.6467 53.0809 57.8914 52.8215L58.2175 52.5647L61.6356 49.8781C62.4449 49.2399 63.4473 48.8926 64.4801 48.8926C65.5128 48.8926 66.5152 49.2399 67.3245 49.8781C67.5979 50.0964 67.8465 50.3438 68.0659 50.6157C68.7867 51.5203 69.1357 52.6632 69.0425 53.8139C68.9493 54.9645 68.4209 56.0371 67.5638 56.8152L63.9182 59.6838L63.5475 59.9873C63.4654 60.055 63.3786 60.1226 63.3129 60.195L61.8068 61.3621L59.8573 62.9049ZM68.087 70.2178C67.4845 70.2175 66.888 70.099 66.3315 69.8693C65.775 69.6395 65.2695 69.3029 64.8438 68.8787C64.4181 68.4546 64.0806 67.9511 63.8505 67.397C63.6204 66.843 63.5023 66.2493 63.503 65.6499C63.5037 65.4759 63.5139 65.3022 63.5335 65.1294C63.5712 64.8119 63.6411 64.4991 63.7422 64.1957C63.9912 63.4506 64.432 62.7835 65.0208 62.2607L65.4595 61.9176L69.0207 59.1166L69.3585 58.8342L71.1133 57.4501C71.6359 57.039 72.243 56.7473 72.8915 56.5958C73.5409 56.4441 74.2157 56.4353 74.8689 56.57C75.5221 56.7046 76.1378 56.9795 76.6732 57.3754C76.9817 57.6007 77.2593 57.8651 77.499 58.162H77.5318C77.924 58.6564 78.2091 59.2262 78.3694 59.8355C78.4191 60.021 78.4551 60.2098 78.4773 60.4004C78.5265 60.7691 78.5265 61.1427 78.4773 61.5114C78.3349 62.7082 77.7205 63.7997 76.7694 64.5458L70.8904 69.1767C70.5999 69.4033 70.2852 69.5975 69.952 69.7556C69.3713 70.0337 68.7382 70.1871 68.094 70.2061L68.087 70.2178ZM96.0908 56.7195C95.0855 57.3966 93.8511 57.6489 92.659 57.4209C91.4668 57.1928 90.4145 56.5031 89.7332 55.5034L89.1725 54.6771C89.1725 54.6164 89.0975 54.5557 89.0576 54.495L87.7063 52.56L87.0917 51.6591L85.8835 49.8711L81.154 42.9061L79.9318 41.1041L77.6867 42.6096L78.9113 44.4116L82.6202 49.8711L84.4548 52.56L86.8008 56.0006C87.31 56.7492 87.5838 57.6316 87.5875 58.5355C87.5912 59.4395 87.3246 60.3241 86.8216 61.0768C86.3186 61.8296 85.6019 62.4164 84.7626 62.7627C83.9234 63.1091 82.9997 63.1992 82.1088 63.0216C81.7289 62.9506 81.3604 62.8289 81.0133 62.6598C81.0742 62.3961 81.1212 62.1277 81.1564 61.8592C81.3803 59.9657 80.8404 58.0611 79.6549 56.5631V56.5234C79.0059 55.7085 78.188 55.0423 77.2569 54.5702C76.3258 54.0982 75.3033 53.8313 74.2592 53.7878L73.4287 52.56L71.6059 49.8711L70.1444 47.7191L69.4688 46.7457L68.5163 47.4156C67.2355 46.5769 65.7218 46.1607 64.1899 46.2261C62.658 46.2914 61.1856 46.835 59.9817 47.7797L59.8738 47.8614C59.8677 46.5022 59.4778 45.1719 58.7485 44.0225C58.0193 42.873 56.98 41.9507 55.7493 41.3605C54.5185 40.7704 53.1459 40.5363 51.7879 40.685C50.4299 40.8336 49.1412 41.359 48.0688 42.2012L44.1581 45.2355C44.0582 43.924 43.6008 42.6644 42.8352 41.5922C42.0696 40.5199 41.0248 39.6756 39.813 39.1499C38.6012 38.6243 37.2683 38.4372 35.9577 38.6088C34.647 38.7803 33.4082 39.3041 32.3743 40.1238L31.2013 41.0388C29.8437 40.5678 28.4164 40.3264 26.9786 40.3245H17.7895V10.1979H29.2847C30.9525 10.1923 32.5967 9.80647 34.0913 9.07005C35.5858 8.33363 36.8908 7.26621 37.9061 5.94975C38.6665 4.96194 39.6452 4.16143 40.7663 3.61017C41.8875 3.0589 43.121 2.77166 44.3716 2.77066H57.8023C56.088 4.09798 54.7407 5.83683 53.8868 7.82406L45.7792 27.6642H50.2365C53.8972 27.6654 57.4775 26.5961 60.5323 24.5892C63.5871 22.5823 65.9817 19.7263 67.4184 16.3763L67.5404 16.0682H74.0598L88.8136 37.799L92.1191 42.6657L93.5431 44.7664L96.2456 48.7531L96.9963 49.8548L97.36 50.38C97.5801 50.703 97.7576 51.0529 97.8878 51.421C97.9274 51.5288 97.9611 51.6387 97.9887 51.7501C97.9998 51.8232 98.0178 51.8951 98.0426 51.9648C98.0828 52.1511 98.1102 52.3398 98.1247 52.5297C98.1978 53.3466 98.048 54.1681 97.6913 54.9075C97.3346 55.6468 96.7841 56.2769 96.0978 56.7311L96.0908 56.7195ZM111.199 40.3525H101.489C101.113 40.3605 100.739 40.3916 100.367 40.4459L99.8983 40.5206C99.8024 40.5313 99.7075 40.5492 99.6144 40.5743L99.3235 40.628C99.1335 40.6676 98.9458 40.7073 98.7628 40.761C98.4438 40.8427 98.1271 40.9361 97.8244 41.0434C97.6555 41.0971 97.4866 41.1648 97.3248 41.2255L96.9001 41.3936L96.7383 41.4683C96.4403 41.6013 96.1494 41.7437 95.8656 41.8977C95.706 41.9771 95.5512 42.0658 95.3964 42.1592L95.1313 42.3155L75.5401 13.363H65.7574L64.9598 15.326C63.7323 18.1875 61.6859 20.6265 59.0754 22.3394C56.465 24.0522 53.4058 24.9632 50.2788 24.9589H49.826L56.3032 9.07516L56.3642 8.94678C57.1306 7.10897 58.4288 5.53929 60.0938 4.43712C61.7587 3.33495 63.7154 2.75003 65.7152 2.75666H84.619C85.87 2.76097 87.1035 3.04962 88.2252 3.60059C89.347 4.15156 90.3274 4.95027 91.0915 5.93575C92.1046 7.25177 93.4081 8.31861 94.9012 9.05395C96.3944 9.7893 98.0375 10.1735 99.7036 10.1769H111.199V40.3525Z" fill="#A6FF00" stroke="#A6FF00" stroke-width="0.75" stroke-miterlimit="10"/>
<path d="M0.0891418 2.13806V47.9197H17.7895V2.13806H0.0891418ZM15.0869 45.2332H2.78935V4.82698H15.0869V45.2332Z" fill="#A6FF00" stroke="#A6FF00" stroke-width="0.75" stroke-miterlimit="10"/>
<path d="M111.211 2.13806V47.9197H128.911V2.13806H111.211ZM126.213 45.2332H113.913V4.82698H126.213V45.2332Z" fill="#A6FF00" stroke="#A6FF00" stroke-width="0.75" stroke-miterlimit="10"/>
</g>
<defs>
<clipPath id="clip0_864_25593">
<rect width="129" height="73" fill="white"/>
</clipPath>
</defs>
</svg>
