<?xml version="1.0" encoding="utf-8"?>
<!-- Generator: Adobe Illustrator 23.1.0, SVG Export Plug-In . SVG Version: 6.00 Build 0)  -->
<svg version="1.1" id="Layer_1" xmlns="http://www.w3.org/2000/svg" xmlns:xlink="http://www.w3.org/1999/xlink" x="0px" y="0px"
	 viewBox="0 0 262.1 344.8" style="enable-background:new 0 0 262.1 344.8;" xml:space="preserve">
<style type="text/css">
	.st0{fill:#FFFFFF;}
	.st1{fill:#729EFC;}
	.st2{fill:none;stroke:#000000;stroke-width:1.5232;stroke-miterlimit:10;}
	.st3{fill:none;stroke:#000000;stroke-width:1.4813;stroke-miterlimit:10;}
	.st4{stroke:#000000;stroke-width:1.5232;stroke-miterlimit:10;}
	.st5{fill:none;stroke:#000000;stroke-width:1.4186;stroke-miterlimit:10;}
</style>
<g>
	<path class="st0" d="M55.9,31c-8.5-3-16-8.5-21.5-15.7c-1.7-2.2-3.3-4.7-5.5-6.4S23.5,6.4,21,7.8c-3.5,2-3.8,7.1-4.5,10.6
		c-0.9,4.6-1,9.3-0.4,14c0.4,3.1,1.1,6.2,2.2,9.1c1.1,3,2,3.3,4.4,5.1c-2.3,3.3-1.4,8.8,2.8,10.2l0.1-1.2
		C16.1,65.3,11.3,81.4,14,94.7c0.3-1.9,0.8-4.8,1-5.7c-0.1,7.8,2,10.8,2.9,15.7c0.4,2.3,1,4.2,0.4,6.4c-0.6,2.6-2.3,4.9-3.4,7.3
		c-3.2,6.9-2.9,15.3,0.7,22l5.9,8.6c-1.1,9.9-2.2,20.2,0.6,29.8l3.5,10c2.7,9.7,3.2,20.1,1.4,30c-0.5,2.6-1.1,5.5,0,7.9
		c0.8,1.7,2.4,2.9,3,4.7c0.7,2.1-0.1,4.5,0.4,6.7c0.8,3.3,4.3,5.1,7.6,6l5.5,1.1c8.7,14.9,12.7,32.5,11.4,49.6
		c-0.2,3.2-0.6,6.4,0.1,9.5c1.5,6.3,7.9,10.9,14.4,10.9c6.5,0,12.6-4.2,15.7-9.9c3.1-5.7,3.3-12.8,1.2-18.9
		c-1.4-4.3-3.9-8.2-5.2-12.6c-2.3-7.5-1.3-16.6-6.8-22.3c1,0.3-0.3-1.7-1.9-3c0.4-0.3,0.8-0.6,1.2-0.9c-0.5-1.4-1.8-2.5-3.2-2.7
		l2.1-1.9c3.3,3.1,7.2,5.5,11.5,7.1l2.5,1.7c2.6,10.7,5.3,22,7.9,32.9l0.6,2.6c-3.4,3.6-5.3,8.5-5.3,13.4c0,1.5,0.2,3.1,1,4.4
		s2.1,2.4,3.7,2.5c0.3,3.7,3.3,7.1,7,7.6l1.3,3.2c2.7,10.8,4.8,18.4,5.5,20.3c3.8-1,78.6-28.7,82.1-31c-0.1-1.1-8-38.3-15.3-72.5
		l-1.4-2.5c2.9-4.9,6.9-9.1,11.8-12.2c2.7-1.7,5.8-3.3,6.7-6.3c1.2-4.1-2.4-8.1-2.9-12.3l0.2-1.8c3.3-5.3,4.7-11.7,3.8-17.9
		c-0.6,1.1-1.5,2.1-2.5,2.9c0.3-5.8,0.6-11.7,0.9-17.5l-0.4-0.9c8.9-4.3,18.4-7.5,28-9.7c-1.3-0.5-2.6-0.9-3.9-1.4
		c7.8-3.3,15.2-7.7,21.8-13c-1.9-0.2-3.8,0.5-5.2,1.8c9.6-0.4,18.7-6.5,22.9-15.1c-0.5,0.4-1,0.8-1.5,1.2c1.1-4.1,1-7.4,0.8-11.6
		c-5.7,3.4-12.5,6.7-19,7.8c1.1-0.7,2.2-1.3,3.3-2c-8.1,0.4-16.1,3.5-22.3,8.8c1.6-1.8,3.3-3.7,4.9-5.5c-7.6,3.3-14.7,7.5-21.3,12.5
		c0.5-1,0.9-2,1.4-3c-7.1,2.7-13.5,7.1-18.5,12.7c-2.5-2.8-5.8-4.8-9.4-5.8l-1.2-2.3c-6.9-13.7-21.3-23.3-36.7-24.5l-7.1-10.2
		l1.5-4.2c1-5.2,2.2-14-0.4-18.9c0.7,1.2,1.3,2.5,2,3.7c2-10.4-1-21.6-8-29.6l0.4-0.1c4.6-4.4,5.6-11.8,2.4-17
		c3.8-8.7,5.5-18.2,4.8-27.5c-0.1-2-0.4-4-1.7-5.5c-1.7-2-4.7-2.5-7.3-1.7s-4.8,2.4-6.8,4.2c-7.5,6.9-13.2,16.1-22.7,19.9l1.9-0.3
		c-3.4-2-8-1.9-11.4,0.2c0-0.8,0.1-1.5,0.1-2.3c-3.6,0.4-7.1,2.1-9.7,4.6c-0.8-0.8-1.2-2.1-0.9-3.2c-1.8-0.2-3.7,1.4-3.8,3.2
		c-4.6-2-9.7-2.9-14.7-2.5c1.6,0.9,3.2,1.9,4.8,2.8"/>
	<g>
		<path class="st1" d="M23.8,56.8c3.2-5.2,10.7,7,9.5-2.5c-0.7-4.9,1.7-6.4,4.9-7.4c3.2-1-14.2-2.7-13.2-14.2c1-11.5-0.7-24.4,8-8.6
			s16.2,10,23,6.8c-10.8-4.1-17.6-9-22.7-16.8s-14-9.5-16.2-2S9.9,37.5,22,46C20.8,50.9,19.6,52.7,23.8,56.8z"/>
		<path class="st1" d="M83.9,38.5c0.3-0.8,0.5-1.5,0.8-2.3c1.6,2.4,3.2,4.8,4.8,7.2c-0.3-1.1,0.3-2.4,1.4-2.8
			c0.2,1.7,0.6,3.7,2.2,4.3c2.4,0.7,5-2.6,7-1.2c-0.9,1.2-1.8,2.5-2.7,3.7c1.6-0.7,3.7,0,4.6,1.4c-3.3,0.1-6.5,1.6-8.8,4.1
			c4.7-1,9.9,0.9,12.8,4.7c1,1.3,1.8,2.8,1.6,4.5c-0.2,2.6-2.6,4.5-4.8,6c4.4,1.4,9,2.1,13.5,2.1c-0.4-0.9-0.9-1.7-1.3-2.6
			c2.6-0.5,5.3,0.3,7.2,2.2c-0.6-0.8-2.1-0.3-2.4,0.6c-0.3,1,0.4,2,1.2,2.5c0.9,0.5,1.9,0.6,2.9,0.7c-0.9,0.4-1.7,0.9-2.4,1.5
			c5.1,1.3,9.3,5.4,10.7,10.5c0.4-7.2-1.8-14.5-6-20.3c-1.1-1.5-2.3-2.9-2.7-4.7c-0.6-3,1.2-5.8,3-8.3c-1.2,1-2.8,1.6-4.3,1.5
			c0.7-1.4,1.3-2.8,2-4.2c-3.7,2-8.5,1.8-12-0.6c0.7-0.9,2-0.8,3.1-0.8c1.1,0,2.5-0.6,2.5-1.7c0-0.8-0.9-1.3-1.7-1.7
			c-2.3-1.1-4.7-2.2-7-3.3c1.8-1.6,4.2-2.6,6.6-2.9c-3.1-0.4-6.3-0.1-9.2,1c-0.5-5.7,1.6-11.3,4.8-16c3.2-4.7,7.4-8.6,11.6-12.5
			c-0.6-0.1-1.2-0.1-1.8-0.2c0.9-1,1.8-2,2.7-3c-5.2-0.3-10,2.7-13.6,6.4s-6.5,8.1-10.1,11.7c-2.1,2-4.5,3.9-7.4,4.2
			c-1.8,0.2-3.5-0.3-5.3-0.4c-2.3-0.2-4.6,0.3-5.3,2.7C81.5,34.4,82,37,83.9,38.5z"/>
		<path class="st1" d="M179.9,180.7c1.2-0.9,2.4-1.8,3.6-2.7c-0.5,1.1-1.1,2.3-1,3.6c0.1,1.3,1.1,2.5,2.4,2.4
			c1.3-0.1,2.1-1.5,2.5-2.8c1.6-4.6,2.3-9.5,2.1-14.3c9.2-4.7,19.2-7.8,29.4-9.2c-1.8-1.3-4-1.9-6.2-1.8c7.9-2.8,15.1-7.7,20.7-13.9
			c-0.1-0.7-1.3,0-1,0.6c0.3,0.6,1.2,0.6,1.9,0.4c6.4-1.7,12.2-5.5,16.3-10.6c-5.3,1.4-10.6,2.8-16,4.3c1.4-2.1,3.4-3.7,5.6-4.8
			c-2.8-0.1-5.7-0.3-8.5-0.4c2.4-1,4.8-2,7.3-3.1c-7.3-2.3-15.6-0.9-21.8,3.6c0.7-1,1.5-2,2.2-3.1c-7.5,2.5-14.5,6.6-20.5,11.9
			c0.3-1,0.5-2,0.8-3.1c-6.8,3.3-13.1,7.8-18.5,13.1c-2.3-2.4-5.2-4.1-8.3-5c1.8,0.5,2.3,8.7,2.3,10.2c0,2.8-0.5,5.6-0.6,8.3
			c0,0.9-0.7,5.1,0.2,5.7c1.3,1,2.4-2.8,3.1-3.8C180.6,170.2,180.9,176.2,179.9,180.7z"/>
		<path class="st1" d="M122.6,214.3c0.2-1,1-1.9,1.3-2.9c0.4-1.5-0.7-3-1.9-4.1c-1.2-1-2.6-1.9-3.3-3.4c-1.4,2.4-1,5.4-0.1,8
			c0.5,1.5,1.5,6.9,3.6,7.3C124.7,219.8,122.3,215.8,122.6,214.3z"/>
		<path class="st1" d="M134.9,210.4c1.6,0,3.1,0,4.7,0.1c-0.4,0.4-0.8,0.8-1,1.3s0,1.2,0.5,1.4c0.6,0.3,1.3-0.2,1.9-0.4
			c1.2-0.2,2.4,1,2.2,2.2c-0.6-0.1-1.3,0.3-1.6,0.8c1.5,0.2,2.6,1.8,2.4,3.3c-0.2,1.5-1.8,2.6-3.3,2.4c3.3,1.1,6.9,1.3,10.3,0.7
			c-0.8-2.8-2.4-5.3-3.6-8c-1.1-2.7-1.7-5.8-0.5-8.5c-0.1,0.9-0.1,1.8-0.7,2.5c-0.6,0.7-1.8,0.8-2.3,0c-0.2-0.4-0.2-0.8-0.1-1.2
			c0.1-1.3,0.3-2.6,0.4-3.8c-2,0.8-3.5,2.2-4.9,3.9C138.5,208.2,136.5,210.4,134.9,210.4z"/>
		<path class="st1" d="M162.4,242.1c0.4-1,0.9-2.1,1.3-3.1c0.2,2,0.4,4,0.6,5.9c0.4-0.1,0.8-0.2,1.2-0.3c0.4,4.2,0,8.5-1.1,12.6
			c3.3-2.4,5.2-6.6,4.9-10.6c0.3,0.1,0.7,0.1,1,0.2c-0.2-1.8-0.4-3.6-0.5-5.3c-1.9-2.1-3.1-4.7-4.3-7.2c-1.8-3.5-4.1-7.8-8.2-9.1
			c-4.3-1.4,0.1,4.8,0.8,6.2c0.3-0.4,0.9-0.8,1.1-1.2c1.1,1.7,1.8,4,2.3,6C161.9,237.5,163,240.8,162.4,242.1z"/>
		<path class="st1" d="M40.7,52.4c-0.6-0.4-1.2-0.8-1.6-1.3c-0.4-0.6-0.6-1.4-0.2-2c0.4-0.6,1.1-0.8,1.8-0.9
			c0.8-0.1,1.6-0.1,2.4-0.4c0.7-0.3,1.3-1.2,1-1.9c-0.1-0.3-0.3-0.5-0.5-0.8c-0.3-0.8,0.3-1.8,1.1-2.1s1.7-0.2,2.6,0
			c-0.7-1.1-0.6-2.7,0.3-3.6c0.9-1,2.4-1.3,3.6-0.8c-0.1-0.7-0.1-1.3-0.2-2c1.6,0,3.2,0.3,4.6,0.9c-0.2-1.2,1.5-2.2,2.5-1.4
			c0.9,0.7,0.6,2.3-0.4,2.9c-1,0.6-2.3,0.4-3.3-0.3c0.8,0.4,0.7,1.7,0,2.3c-0.7,0.6-1.7,0.7-2.6,0.7s-1.9,0.2-2.6,0.8
			c1.5,0.5,1.6,2.8,0.5,4c-1,1.2-2.7,1.5-4.2,1.8c0.7-0.6,1.9,0.1,1.9,1c0.1,0.9-0.7,1.7-1.5,2c-0.9,0.3-1.8,0.2-2.7,0.1
			c2.1,0.2,1.5,3.5-0.4,3.7c1.1,0.5,0.8,1.9,0,2.5c-0.8,0.6-2.2,0.3-3.1,0c-1.2-0.5-2.2-1.4-2.4-2.7C37.3,53.2,39,51.7,40.7,52.4z"
			/>
		<path class="st1" d="M76,91.8c-2,0.5-2.9-7.1-6.5-7.5c-3.6-0.4-10.4-6.1-4.9-5.3c5.5,0.8,3.3-1.3,10.2-1.6c7-0.2,5.7,1.6,8.8,0.6
			c3.1-1,7.4,0.9-3.7,5.7C76.7,85.1,78,91.3,76,91.8z"/>
		<g>
			<path class="st2" d="M25,55.4c-9.6,9.7-14.3,25.8-11.7,39.1c0.3-1.9,0.8-4.8,1-5.7c-0.1,7.8,2,10.8,2.9,15.7
				c0.4,2.3,1,4.2,0.4,6.4c-0.6,2.6-2.3,4.9-3.4,7.2c-3.2,6.9-2.9,15.3,0.7,21.9c2.5,4.6,5.7,9.3,9.5,13.1
				c4.7,4.6,12.9,6.8,19.1,8.8c7.4,2.3,14.9,3.9,22.6,4.6c9.1,0.9,18.6,0.6,27.1-2.8c7.5-3,13.8-8.3,19.5-14
				c4.1-4.1,8-8.5,10.3-13.7c1.2-2.6,1.9-5.4,2-8.3c0.1-3-1.2-5.6-1.3-8.4c-0.2-5.6,4.3-10.8,5.3-16.2c1-5.2,2.2-14-0.4-18.9
				c0.6,1.2,1.3,2.5,1.9,3.7c2-10.4-1-21.6-8-29.5"/>
			<path class="st2" d="M55.3,30.9c-8.5-3-16-8.5-21.5-15.7c-1.7-2.2-3.3-4.7-5.5-6.4s-5.4-2.5-7.9-1.2c-3.5,2-3.8,7.1-4.5,10.6
				c-0.9,4.6-1,9.3-0.4,13.9c0.4,3.1,1.1,6.2,2.2,9.1c1.1,3,2,3.3,4.4,5.1c-2.3,3.3-1.4,8.8,2.8,10.2"/>
			<path class="st2" d="M58.6,33.4c-1.6-0.9-3.2-1.9-4.8-2.8c5-0.4,10.1,0.5,14.6,2.5c0.2-1.8,2-3.4,3.8-3.2
				c-0.3,1.1,0.1,2.4,0.9,3.2c2.6-2.6,6.1-4.2,9.7-4.6c0,0.8-0.1,1.5-0.1,2.3c3.4-2.1,7.9-2.2,11.4-0.2"/>
			<path class="st3" d="M92.3,30.8c9.4-3.8,15.2-13,22.7-19.9c2-1.8,4.2-3.5,6.8-4.2s5.6-0.2,7.3,1.7c1.3,1.5,1.5,3.6,1.7,5.5
				c0.6,9.3-1.1,18.8-4.8,27.5c3.2,5.2,2.2,12.6-2.4,17"/>
			<path class="st2" d="M70.7,65.2c-1.3,3.8-3.5,7.3-6.5,10.1"/>
			<path class="st2" d="M78,64.8c0.9,3,2.4,5.8,4.6,8.1"/>
			<path class="st2" d="M62.6,79.4c2,0.9,3.5,1.2,6.1,0.9c0.3,0,0.7-0.1,1,0s0.7,0.3,0.7,0.7c0.1,0.6-0.7,0.9-1.3,0.9
				c-0.9,0-1.8-0.4-2.5-1"/>
			<path class="st2" d="M86,78.6c-0.9,0.5-3.5,1.5-6,1.5c-0.4,0-0.8,0-1.2,0.2s-0.6,0.6-0.5,1c0.2,0.5,0.9,0.6,1.4,0.6
				c1.3-0.1,2.6-0.6,3.7-1.4"/>
			<path class="st2" d="M101.2,92.8c0.7,0.5,1.7-0.6,1.4-1.4c-0.4-0.8-1.4-1.2-2.3-1.2c-4.9-0.5-9.5,2.9-14.4,2.9
				c-2.8,0-5.6-1.1-8.4-1c-2.4,0.1-4.6,1.1-6.9,1.7c-4.8,1.3-10.1,1-14.7-0.9c-1.9-0.8-4.4-1.7-5.9-0.2c-0.7,0.7,0.4,1.7,1.3,1.8"/>
			<path class="st2" d="M31.9,92.9c-0.9-2.9-0.8-6.2,0.5-9s3.6-5.1,6.5-6.3"/>
			<path class="st2" d="M29.4,83.3c1.3-2.3,3.4-4.1,5.8-5"/>
			<path class="st2" d="M109.5,77.3c2.9,0.9,5.2,3.3,6.5,6c1.3,2.7,1.8,5.8,2,8.9"/>
			<path class="st2" d="M115,79.5c1.7,1.1,3.1,2.6,4.1,4.4"/>
			<path class="st2" d="M26.6,53.2c-2.5-3-2.3-7.9,0.4-10.7c-4.3-1.6-6.9-6.2-7.6-10.8c-0.7-4.6,0.3-9.2,1.3-13.7
				c0.4-2,1.1-4.4,3.1-5.1c2.3-0.8,4.5,1.3,5.9,3.2c2.9,3.7,5.4,7.6,8.6,11.1c3.1,3.5,7,6.5,11.5,7.7"/>
			<path class="st2" d="M36.4,32.9c3.2-0.4,6.6,0.9,8.8,3.3"/>
			<path class="st2" d="M31.6,47.9c-1.2,0.4-2.3,0.7-3.5,1.1c-0.2,0.1-0.4,0.1-0.6,0c-0.4-0.2-0.2-0.9,0.1-1.3
				c2.2-2.5,5.7-3.3,9-3.9c-2.1-0.2-4.3-0.4-6.4-0.6c-0.2,0-0.4-0.1-0.5-0.3c-0.1-0.3,0.2-0.5,0.5-0.6c2.8-1.1,5.7-1.8,8.6-2.3
				c-2.4-0.3-4.8-0.7-7.2-1c-0.5-0.1-1-0.2-1.1-0.7c-0.1-0.5,0.5-0.8,0.9-0.9c3.4-1.1,7.2-1.4,10.8-0.7"/>
			<path class="st2" d="M104.8,39.7c-1-1.6-1.2-3.7-0.8-5.6c0.4-1.9,1.3-3.6,2.3-5.3c3.6-5.9,8.1-11.3,13.5-15.7
				c1.1-0.9,2.5-1.9,3.9-1.5c1.7,0.4,2.5,2.2,2.9,3.9c2.4,9.1,0.6,19.3-4.9,27c-0.3,0-0.6-0.1-0.9-0.1c1.3,1.5,2.9,3.5,2.9,5.4
				c0,2-0.8,3.9-2.1,5.4"/>
			<path class="st2" d="M106,38.1c0.8-2.2,2.9-3.9,5.2-4.3"/>
			<path class="st2" d="M106.3,41.6c2.2-2.1,5.6-3,8.6-2.2c-2.2,0.4-4.1,1.8-5,3.8c2.4-0.3,4.9-0.6,7.3,0.1
				c-1.8,0.6-3.3,1.9-4.4,3.4c1.2-0.4,2.4-0.8,3.7-0.8c1.3,0,2.6,0.5,3.3,1.5c-1.4,0-2.8,0.6-3.7,1.7c1.5,0.4,2.9,0.8,4.4,1.2"/>
			<path class="st2" d="M98.5,80.7c7.6-1.9,15.7-1.8,23.2,0.5c7.5,2.2,14.3,6.5,19.6,12.3"/>
			<path class="st2" d="M100.7,83.8c13.5-0.5,27.1,6.6,34.3,18.1"/>
			<path class="st2" d="M99,86.8c6.7,1,12.9,5,16.4,10.7"/>
			<path class="st2" d="M6.3,100.7c4.8-8,13.2-13.4,22.1-16c8.9-2.7,18.4-2.8,27.7-1.9"/>
			<path class="st2" d="M9.5,110c2.8-8,9.2-14.5,16.8-18.3s16.1-5.4,24.6-5.6"/>
			<path class="st2" d="M22.6,107.4c5.5-9.6,15.5-16.5,26.4-18.3"/>
			<path class="st2" d="M75.7,91.6c0-1.5-0.1-3-0.1-4.4"/>
			<path class="st2" d="M54.9,68.6c-8.4,4.4-21.6-5.4-9.2-13.3C54.7,50.5,67,62.5,54.9,68.6z"/>
			<path class="st4" d="M49,65.8c-3.6-4-2.6-8,1.4-9.5C54.9,59.4,53.4,64.2,49,65.8z"/>
			<path class="st2" d="M91.7,68.2c2.1,1,5.3,0,7.5-0.5c6.6-1.5,10.7-7.6,1.2-13.2C91.3,50.1,79.5,62.6,91.7,68.2z"/>
			<path class="st4" d="M97.5,65.2c3.5-4.1,2.3-8.1-1.7-9.4C91.4,59,93.1,63.8,97.5,65.2z"/>
			<path class="st2" d="M35.8,123.5c9.2,3.7,20.1,3.2,28.9-1.6"/>
			<path class="st2" d="M59.5,128.3c3.8-1.6,7.6-3.2,11.3-4.7"/>
			<path class="st2" d="M72.4,128.6c0.7-0.8,1.4-1.6,2-2.4"/>
			<path class="st2" d="M85.4,123.4c4.3,3.2,9.8,4.9,15.3,4.5c5.4-0.4,10.7-2.7,14.5-6.5"/>
			<path class="st2" d="M80.9,124.8c2,1.9,4.3,3.4,6.9,4.5"/>
			<path class="st2" d="M46.8,137.7c4.1-0.2,8.2-1.1,12-2.6"/>
			<path class="st2" d="M53.3,140c3.1-0.3,6.1-1.7,8.3-3.9"/>
			<path class="st2" d="M60.9,140.9c1-0.7,2-1.5,3-2.2"/>
			<path class="st2" d="M83.6,135.7c0.3,1,0.9,1.9,1.7,2.5"/>
			<path class="st2" d="M86.1,135.3c1.5,1.3,3.3,2.2,5.3,2.5"/>
			<path class="st2" d="M88.3,134.2c2.8,0.2,5.4,1.4,8,2.5s5.5,1.9,8.2,1.2"/>
			<path class="st2" d="M20.9,148.7c-1.1,9.9-2.2,20.2,0.6,29.8c3.8,13,14.3,23.7,15.8,37.2"/>
			<g>
				<path class="st1" d="M48.9,198.8c0-1.2,0.7-2,0.8-3.2c0.1-1.9-1.1-4.4-2.4-6.3c-1.3-1.9-2.8-3.7-3.7-6.1
					c-0.8,3,0.1,7.4,1.3,11.2c0.7,2.1,2.3,9.1,4.2,10.3C51.4,206.1,48.9,200.5,48.9,198.8z"/>
				<path class="st1" d="M60.1,198.4c1.6,0.7,3.1,1.3,4.7,2c-0.4,0.4-0.8,0.7-1,1.4c-0.2,0.6,0,1.6,0.5,2.1c0.6,0.6,1.3,0.3,2,0.3
					c1.2,0.2,2.4,2.3,2.1,3.7c-0.6-0.3-1.3-0.2-1.6,0.4c1.5,0.9,2.5,3.3,2.2,4.9c-0.3,1.6-1.8,2.2-3.2,1.3c3.1,2.6,6.5,4.4,9.9,5.2
					c-0.5-3.5-1.9-7.1-2.8-10.9c-1-4-1.4-8.6,0.2-11.9c-0.2,1.3-0.3,2.6-1,3.3c-0.7,0.7-2.1,0.3-2.5-1c-0.2-0.6-0.1-1.2,0-1.8
					c0.2-1.8,0.5-3.7,0.7-5.6c-2.3,0.5-4,1.9-5.5,3.8C63.8,196.9,61.7,199.1,60.1,198.4z"/>
				<path class="st5" d="M53.3,216.2c1.1,1.1,2.3,1.6,3.4,1.8c1.1,0.3,2.3,0.3,3.5,0.8c1.2,0.5,2.5,1.5,3.7,2.3
					c1.4,0.9,2.8,1.5,4.2,2"/>
				<path class="st5" d="M60.6,215.9c0.5-0.2,1-0.3,1.5-0.5"/>
				<path class="st5" d="M58.1,214.9c-0.3-0.4-0.7-0.7-1-1.1"/>
				<path class="st5" d="M60.2,218.9c0-0.4,0-0.8,0-1.3"/>
				<path class="st5" d="M51.8,203.3c0.9-0.4,2.3,0.4,3.2,1.8c0.9,1.4,1.3,3.2,1,4.4"/>
				<path class="st5" d="M62.7,211.2c-0.3-1,0-1.8,0.5-2.3c1.4-1.4,4.1-1,6,1.2"/>
				<path class="st5" d="M53.4,208.3c-0.1-1.3,0.1-2.6,0.5-3.6"/>
				<path class="st5" d="M65.6,213.3c0.1-1.3-0.3-3-1.2-4.4"/>
				<path class="st5" d="M45.9,211.8c0.2-1.6,1-2.7,2.2-3"/>
				<path class="st5" d="M46.1,205.7c0.6-0.3,1.2-0.8,1.1-1.8c0-0.7-0.3-1.5-0.6-2.3c-2-5.6-3-11.7-2.7-17.3c2.5,3.5,4.9,7.2,6.9,11
					"/>
				<path class="st5" d="M51,193.9c4.4,0,9.4,1.4,14.5,4.1"/>
				<path class="st5" d="M64.2,197.6c2.4-3.5,5.7-6.4,9.5-8.5c0.2,5.8-0.7,10.9-2.5,14.8"/>
				<path class="st5" d="M72.4,205.9c0.1,1.6,0.2,3.1,0.7,4.6c0.5,1.5,1.6,2.9,2.8,3.1"/>
				<path class="st5" d="M73,213.9c1.3,1.8,2.9,3.3,4.6,4.4"/>
				<path class="st5" d="M74.3,218.8c0.3,0.8,0.9,1.6,1.6,2.1c0.7,0.4,1.5,0.5,2,0.2"/>
			</g>
			<path class="st2" d="M25,188.5c2.7,9.7,3.2,20,1.4,30c-0.5,2.6-1.1,5.5,0,7.9c0.8,1.7,2.4,2.9,3,4.7c0.7,2.1-0.1,4.5,0.4,6.7
				c0.8,3.3,4.3,5.1,7.6,6c6.5,1.9,13.4,2.2,20.1,1c2.2-0.4,4.5-1,6.2-2.5s2.8-3.9,2-6"/>
			<path class="st2" d="M31.3,231.5c9.9,6.1,23.3,6,33.1-0.2"/>
			<path class="st2" d="M129.1,130.7c11.1,14.1,17.4,32,17.5,49.9"/>
			<path class="st2" d="M134,185.4c2-11.4,1.8-23.2-0.4-34.5"/>
			<path class="st2" d="M140.4,183.2c1.6-4.3,1.9-9,0.9-13.5"/>
			<path class="st2" d="M127.9,107.4c2.9,5.7,7.6,10.2,11.4,15.3c8.1,10.9,12.2,24.7,11.4,38.3"/>
			<path class="st2" d="M135,117.6c15.3,1.1,29.7,10.8,36.6,24.5c3.8,7.4,5.2,16.8,0.8,23.9c-3.3,5.2-9.4,8.5-11.9,14.1"/>
			<path class="st2" d="M156.9,172.7c3.4-9.4-0.7-20.3,3.3-29.4c1.8,4.1,2.2,8.9,1,13.2"/>
			<path class="st2" d="M163.9,168.7c1-4,2-8.1,3.1-12.1c1.2,2,1.2,4.5,0.2,6.5"/>
			<path class="st2" d="M62.3,225.3c1.7,11.2,10.4,20.6,21,24.5"/>
			<path class="st2" d="M42.9,244.8c8.7,14.8,12.6,32.4,11.4,49.6c-0.2,3.2-0.6,6.4,0.1,9.5c1.5,6.3,7.9,10.9,14.4,10.9
				c6.5,0,12.6-4.2,15.7-9.9c3.1-5.7,3.3-12.7,1.2-18.9c-1.4-4.3-3.9-8.2-5.2-12.6c-2.3-7.5-1.3-16.6-6.8-22.2c1,0.3-0.3-1.7-1.9-3
				c0.4-0.3,0.8-0.6,1.2-0.9c-0.5-1.4-1.8-2.4-3.2-2.7"/>
			<path class="st2" d="M60.7,311.9c-1.6-3.1-2.1-6.8-1.5-10.2"/>
			<path class="st2" d="M70.5,314.6c-1.9-1.9-3.2-4.4-3.6-7.1"/>
			<path class="st2" d="M79.8,309.7c-2.9-1.6-4.6-5.2-3.9-8.5"/>
			<path class="st2" d="M100.7,314.8c-3.7-0.6-6.8-3.9-7-7.6c-1.5-0.1-2.9-1.1-3.7-2.4c-0.8-1.3-1-2.9-1-4.4
				c-0.1-4.9,1.9-9.8,5.3-13.4"/>
			<path class="st2" d="M94.6,307.5c-0.2,0-0.5,0-0.7,0c0-2.3,0.3-4.6,1-6.8"/>
			<path class="st2" d="M190.6,166.5c8.9-4.3,18.3-7.5,28-9.7c-1.3-0.5-2.6-0.9-3.9-1.4c7.8-3.3,15.2-7.7,21.8-12.9
				c-1.9-0.2-3.8,0.5-5.2,1.8c9.6-0.4,18.7-6.5,22.9-15.1c-0.5,0.4-1,0.8-1.5,1.2c1.1-4.1,1-7.4,0.8-11.6c-5.7,3.4-12.4,6.7-19,7.8
				c1.1-0.7,2.2-1.3,3.3-2c-8.1,0.4-16,3.5-22.2,8.7c1.6-1.8,3.3-3.7,4.9-5.5c-7.6,3.3-14.7,7.5-21.3,12.5c0.5-1,0.9-2,1.4-2.9
				c-7,2.7-13.4,7.1-18.5,12.6c-2.5-2.8-5.8-4.8-9.4-5.8"/>
			<path class="st2" d="M172.9,232.4c2.9-4.9,6.9-9.1,11.7-12.1c2.7-1.7,5.8-3.3,6.7-6.3c1.2-4.1-2.4-8-2.9-12.3"/>
			<path class="st2" d="M185.2,204.4c5.7-5.9,8.5-14.4,7.4-22.5c-0.6,1.1-1.5,2.1-2.5,2.9c0.3-5.8,0.6-11.6,0.9-17.5"/>
			<path class="st2" d="M126,228.8c1.3,0.6,2.8,0.5,4.2,0.2c1.4-0.3,2.8-0.8,4.2-0.8c1.5-0.1,2.9,0.3,4.3,0.5c1.6,0.2,3.2,0.2,4.8,0
				"/>
			<path class="st2" d="M134.9,225.1c0.6-0.4,1.2-0.8,1.8-1.2"/>
			<path class="st2" d="M132.1,225.1c-0.4-0.2-0.8-0.4-1.1-0.6"/>
			<path class="st2" d="M134.4,228.2c0-0.4,0-0.8,0-1.3"/>
			<path class="st2" d="M125.5,217.1c1.1-0.7,2.6-0.5,3.6,0.3s1.3,2.3,0.8,3.5"/>
			<path class="st2" d="M137.3,219.9c-0.3-0.7,0.1-1.6,0.6-2.2c1.5-1.7,4.2-2.2,6.2-1.2"/>
			<path class="st2" d="M127,221c0-1.2,0.3-2.3,0.8-3.4"/>
			<path class="st2" d="M140.5,220.6c0.1-1.2-0.4-2.5-1.3-3.3"/>
			<path class="st2" d="M122.5,244.2c0.3-2.3-0.5-4.8-2.1-6.6"/>
			<path class="st2" d="M119.1,238.5c0-2.3,0.4-4.6,1.4-6.7"/>
			<path class="st2" d="M117.7,233.3c0.6-1.6,1.2-3.1,1.8-4.7"/>
			<path class="st2" d="M116.8,227.8c0.6-1.7,1.9-3.3,3.5-4.2"/>
			<path class="st2" d="M118.2,221.5c0.8-0.6,1.6-1.2,1.7-2.2c0.1-0.6-0.2-1.2-0.4-1.8c-1.6-4.1-1.9-8.7-0.7-12.9
				c2.4,1.8,4.5,3.8,6.4,6.1"/>
			<path class="st2" d="M125.5,209.7c4.7-1.3,9.7-1.7,14.6-1.2"/>
			<path class="st2" d="M138.9,208.6c2.2-3.1,5-5.7,8.2-7.8c0.5,3.5,0,7.1-1.4,10.3"/>
			<path class="st2" d="M146.9,212.2c0.2,1.1,0.4,2.3,1,3.3c0.6,1,1.7,1.7,2.9,1.5"/>
			<path class="st2" d="M147.9,218.3c1.4,1,3,1.7,4.8,2"/>
			<path class="st2" d="M149.6,222c0.3,0.6,1,1.1,1.7,1.2c0.7,0.1,1.5-0.2,2-0.7"/>
			<path class="st2" d="M152,224.6c5.2-0.2,10.4,2.8,12.9,7.4c2.5,4.7,2.2,10.5,5.1,14.9"/>
			<path class="st2" d="M124.4,247.2c0.3,6.4,4,12,7.2,17.5s6.4,11.6,5.5,18c-0.3,2.3-1,5,0.7,6.5c1.2,1,3,0.9,4.3-0.1
				c1.2-0.9,1.9-2.4,2.3-3.9c0.4-1.8,0.3-3.7,0.3-5.5c-0.1-3.7-0.2-7.3-0.4-11"/>
			<path class="st2" d="M139.1,288.8c0.1-1,0.1-1.9,0.2-2.9"/>
			<path class="st2" d="M142.6,288.2c-0.5-0.8-0.7-1.8-0.7-2.7"/>
			<path class="st2" d="M144.2,264.7c3.3,7.2,4.5,15.4,3.3,23.3c-0.3,2.1-0.8,4.3-0.4,6.4c0.4,2.1,2,4.2,4.1,4.3
				c2.7,0.2,4.7-2.7,4.9-5.4c0.2-2.7-0.7-5.3-0.9-8c-0.3-3.4,0.6-6.7,1.4-10c1.7-7.2,2.9-14.5,3.7-21.9"/>
			<path class="st2" d="M149.4,297.6c0.1-1.5,0.1-3,0.2-4.6"/>
			<path class="st2" d="M153.3,297.3c-0.4-1.7-0.7-3.5-0.7-5.2"/>
			<path class="st2" d="M172.6,254.8c-2.1,3.9-4.2,7.8-6.3,11.6c0.3-0.9,1.7-1,2.4-0.2c0.6,0.7,0.6,1.8,0.2,2.7
				c-0.4,0.9-1.1,1.6-1.7,2.3c-1.8,2-3.1,4.3-4,6.8c-0.5,1.3-0.8,2.7-1.4,3.9c-0.7,1.2-1.8,2.3-3.1,2.5c-1.4,0.2-2.9-0.8-3-2.2"/>
			<path class="st2" d="M159.1,283.8c-0.7-1.3-0.5-3,0.5-4.1"/>
			<path class="st2" d="M168.4,238.6c1.2,1.4,2.4,2.8,3.6,4.2"/>
			<path class="st2" d="M144.6,295.4c-2.4-0.4-4.6,1-6.6,2.4c-1.9,1.4-4,3-6.4,3.1c-1.3,0.1-2.6-0.3-3.8-0.9
				c-1.2-0.5-2.3-1.2-3.3-1.9"/>
			<path class="st2" d="M122.7,298c0-1.6,0.3-3.1,0.8-4.6"/>
			<path class="st2" d="M121,293.9c-0.1-1.6,0.3-3.2,1-4.6"/>
			<path class="st2" d="M119.6,287.9c0.5-1.1,1-2.1,1.5-3.2c-3.4-2-5.5-5.9-5.3-9.8c0-0.2,0-0.5,0.2-0.6c0.3-0.3,0.8-0.2,1.2-0.1
				c2.9,1,5.6,2.6,7.9,4.6"/>
			<path class="st2" d="M125.4,277.5c1.7-1.5,4-2.6,6.3-2.9"/>
			<path class="st2" d="M125,284.9c0.3-1.7,1.6-3.1,3.3-3.4c1.6-0.4,3.5,0.4,4.4,1.8"/>
			<path class="st2" d="M129.7,293.7c3-1.3,6.1-2.5,9.1-3.8"/>
			<path class="st2" d="M129.2,286c-0.2-0.7-0.3-1.5-0.5-2.2"/>
			<path class="st2" d="M74.6,203.7c19.8-4.6,87.8-24.9,87.8-24.9s26.9,126.4,27.2,128.5c-3.6,2.3-78.2,30-82,31
				C104.3,330.1,75.6,209.3,74.6,203.7z"/>
			<path class="st2" d="M81.7,209.3c7.4-3,79.2-23.1,79.2-23.1c0.8,4.3,24.4,116,24.6,117.5c-4.1,1.8-71.8,28.2-74.9,28.4
				C107.3,324.3,82,214.9,81.7,209.3z"/>
			<path class="st2" d="M94.7,259.6c2-5.2,7.3-8.9,12.8-9c1.4,0,2.9,0.2,4.3-0.4c2.9-1.3,3.8-5.7,7-6.3"/>
			<path class="st2" d="M163.4,227.3c0.8-0.4,1.5-0.8,2.3-1.3"/>
			<path class="st2" d="M126.4,320c4-5.8,9-11,14.5-15.5"/>
			<path class="st2" d="M143.2,314.6c6.4-8.6,14.1-16.4,22.7-22.8c-0.3,3.9-3.9,6.6-7.1,8.7"/>
			<path class="st2" d="M167.4,279.8c3.2-3.3,6.3-6.6,9.5-9.8"/>
			<path class="st2" d="M187.6,157.7c1.7,2.8,2.9,5.9,3.4,9.1"/>
		</g>
	</g>
</g>
</svg>
