<svg width="25" height="25" viewBox="0 0 25 25" fill="none" xmlns="http://www.w3.org/2000/svg">
<g clip-path="url(#clip0_705_1944)">
<path d="M9.37768 8.79735C9.13691 8.79735 8.90952 8.75718 8.66875 8.67684C7.70566 8.32868 6.94322 7.33779 6.55532 5.93179C5.96677 3.74914 6.52856 1.31208 7.83943 0.401526C8.42798 -0.0135785 9.11016 -0.107312 9.76559 0.133717C10.7287 0.481869 11.4911 1.47276 11.879 2.87876C12.4676 5.04802 11.9058 7.48508 10.5949 8.39563C10.2204 8.66344 9.80572 8.79735 9.37768 8.79735ZM9.04328 1.60667C8.94965 1.60667 8.85601 1.64684 8.749 1.71379C8.0802 2.18246 7.65216 3.85627 8.10695 5.50329C8.38785 6.53436 8.88276 7.0432 9.21717 7.16371C9.37768 7.21727 9.51144 7.20388 9.67196 7.08337C10.3408 6.6147 10.7688 4.94089 10.314 3.29387C10.0331 2.2628 9.55157 1.75396 9.21717 1.63345C9.15029 1.62006 9.09678 1.60667 9.04328 1.60667Z" fill="white"/>
<path d="M15.61 8.79755C15.182 8.79755 14.7673 8.66365 14.3928 8.39584C13.082 7.4719 12.5202 5.04822 13.1221 2.86558C13.51 1.47297 14.2724 0.468685 15.2355 0.120533C15.8909 -0.120495 16.5731 -0.0267621 17.1617 0.388342C18.4725 1.31228 19.0343 3.73596 18.4458 5.9186C18.0579 7.31121 17.2954 8.3155 16.3324 8.66365C16.0916 8.75738 15.8508 8.79755 15.61 8.79755ZM15.9444 1.60687C15.8909 1.60687 15.8374 1.62027 15.7839 1.63366C15.4495 1.75417 14.9546 2.26301 14.6737 3.29407C14.2189 4.9411 14.647 6.61491 15.3158 7.08357C15.4763 7.1907 15.61 7.21748 15.7706 7.16392C16.105 7.0434 16.5999 6.53457 16.8808 5.5035C17.3356 3.85647 16.9075 2.18266 16.2387 1.714C16.1317 1.64705 16.0381 1.60687 15.9444 1.60687Z" fill="white"/>
<path d="M21.375 10.7792C20.8132 10.7792 20.2782 10.5516 19.8635 10.1097C18.7533 8.95812 18.6596 6.4541 19.6628 4.43214C20.3049 3.13326 21.2546 2.30305 22.2578 2.15576C22.94 2.04864 23.5954 2.27627 24.0904 2.7985C25.2006 3.96347 25.2942 6.4541 24.291 8.47606C23.6489 9.77494 22.6992 10.6051 21.696 10.7524C21.589 10.7658 21.482 10.7792 21.375 10.7792ZM22.5922 3.73583C22.5655 3.73583 22.5387 3.73583 22.512 3.74922C22.1642 3.80279 21.589 4.2045 21.1208 5.15522C20.3584 6.68174 20.4654 8.40911 21.0406 8.99829C21.1744 9.13219 21.3081 9.18575 21.482 9.15897C21.8298 9.10541 22.405 8.7037 22.8731 7.75297C23.6356 6.22646 23.5286 4.49909 22.9534 3.90991C22.833 3.7894 22.7126 3.73583 22.5922 3.73583Z" fill="white"/>
<path d="M3.62543 10.7793C3.51842 10.7793 3.41141 10.7659 3.29102 10.7525C2.28781 10.5918 1.33811 9.7616 0.696053 8.46273C-0.307157 6.44077 -0.213524 3.95014 0.896695 2.78517C1.39161 2.27633 2.04704 2.04869 2.72923 2.15582C3.74581 2.3165 4.68214 3.14671 5.3242 4.4322C6.32741 6.45416 6.24715 8.94478 5.12355 10.1098C4.70889 10.5516 4.18722 10.7793 3.62543 10.7793ZM2.4082 3.73589C2.27444 3.73589 2.16743 3.78945 2.04704 3.90997C1.48525 4.49915 1.37824 6.22652 2.14068 7.75303C2.60884 8.70375 3.18401 9.10547 3.53179 9.15903C3.70568 9.18581 3.83945 9.13225 3.97321 8.99834C4.54838 8.40916 4.64201 6.68179 3.89295 5.15528C3.41141 4.20456 2.83624 3.80284 2.48846 3.74928C2.4617 3.73589 2.43495 3.73589 2.4082 3.73589Z" fill="white"/>
<path d="M12.4932 25.0002C6.63441 25.0002 2.55469 21.3446 2.55469 16.1089C2.55469 11.4223 7.7045 9.27979 12.4932 9.27979C17.2818 9.27979 22.4316 11.4089 22.4316 16.1089C22.445 21.3446 18.3519 25.0002 12.4932 25.0002ZM12.4932 10.8866C8.48032 10.8866 4.15982 12.5203 4.15982 16.1089C4.15982 20.4073 7.58412 23.4067 12.4932 23.4067C17.4022 23.4067 20.8265 20.4073 20.8265 16.1089C20.8265 14.5288 19.9972 13.2434 18.3653 12.2926C16.8672 11.3955 14.7136 10.8866 12.4932 10.8866Z" fill="white"/>
</g>
<defs>
<clipPath id="clip0_705_1944">
<rect width="25" height="25" fill="white"/>
</clipPath>
</defs>
</svg>
