<svg width="25" height="25" viewBox="0 0 25 25" fill="none" xmlns="http://www.w3.org/2000/svg">
<path d="M23.7114 0.173508C22.9076 -0.16403 22.0211 -0.00108017 21.3828 0.592521L19.0779 2.75742V1.2094C19.0779 0.964976 18.9478 0.743831 18.7469 0.615799C18.5341 0.487768 18.2741 0.476128 18.0613 0.580882L14.6453 2.24529C14.3143 1.84956 13.806 1.5935 13.2387 1.5935H12.0212C11.4538 1.5935 10.9574 1.84956 10.6146 2.24529L7.21034 0.592521C6.99758 0.487768 6.72571 0.499407 6.52477 0.627439C6.312 0.75547 6.1938 0.976616 6.1938 1.22104V3.01348L3.62881 0.592521C2.99052 -0.00108017 2.104 -0.16403 1.30023 0.173508C0.49645 0.511046 0 1.25596 0 2.11726V12.6857C0 19.3433 5.49641 24.872 12.2576 25C12.3403 25 12.4112 25 12.494 25C15.7209 25 18.7942 23.7546 21.1464 21.4733C23.605 19.0989 24.9998 15.8166 24.9998 12.4529V2.11726C25.0116 1.25596 24.5152 0.511046 23.7114 0.173508ZM15.0826 3.5838L17.6594 2.33841V5.65559L15.0826 4.41019V3.5838ZM11.6075 3.38594C11.6075 3.16479 11.7966 2.97856 12.0212 2.97856H13.2387C13.4632 2.97856 13.6524 3.16479 13.6524 3.38594V4.58478C13.6524 4.80592 13.4632 4.99215 13.2387 4.99215H12.0212C11.7966 4.99215 11.6075 4.80592 11.6075 4.58478V3.38594ZM7.61223 2.33841L10.189 3.5838V4.39855L7.61223 5.64395V2.33841ZM23.5932 12.4645C23.5932 15.4558 22.3402 18.3773 20.1535 20.484C18.0613 22.4976 15.3545 23.6033 12.494 23.6033C12.4231 23.6033 12.3521 23.6033 12.2812 23.6033C6.28837 23.4869 1.40661 18.5984 1.40661 12.6857V2.11726C1.40661 1.67497 1.74939 1.50038 1.84396 1.45382C1.95034 1.40727 2.31677 1.29088 2.63591 1.5935L6.18198 4.93396V6.77295C6.18198 7.01738 6.312 7.23852 6.51295 7.36656C6.63115 7.43639 6.76117 7.47131 6.8912 7.47131C6.99758 7.47131 7.10396 7.44803 7.19852 7.40147L10.6264 5.7487C10.9574 6.14444 11.4656 6.4005 12.0212 6.4005H13.2387C13.806 6.4005 14.3025 6.14444 14.6453 5.7487L18.0495 7.40147C18.1441 7.44803 18.2504 7.47131 18.3568 7.47131C18.4868 7.47131 18.6169 7.43639 18.7351 7.36656C18.9478 7.23852 19.066 7.01738 19.066 6.77295V4.67789L22.3521 1.5935C22.6712 1.29088 23.0376 1.40727 23.144 1.45382C23.2504 1.50038 23.5814 1.67497 23.5814 2.11726V12.4645H23.5932ZM12.5767 15.7352C11.312 15.7352 9.73987 15.7352 9.73987 16.934C9.73987 17.6556 10.3072 18.3191 11.442 18.9127C11.5956 18.9942 11.7493 19.0407 11.9148 19.0873V20.1115C11.9148 20.4956 12.2339 20.8099 12.624 20.8099C13.0141 20.8099 13.3332 20.4956 13.3332 20.1115V19.064C13.4632 19.0174 13.6051 18.9825 13.7233 18.9127C14.8462 18.3191 15.4254 17.6556 15.4254 16.934C15.4136 15.7352 13.8415 15.7352 12.5767 15.7352ZM13.0495 17.6789C12.754 17.8302 12.3994 17.8302 12.1039 17.6789C11.7257 17.4811 11.4893 17.3065 11.3474 17.1784C11.7375 17.1319 12.3167 17.1319 12.5767 17.1319C12.8368 17.1319 13.416 17.1319 13.806 17.1784C13.6642 17.3065 13.4278 17.4811 13.0495 17.6789ZM7.21034 10.2414C5.79191 10.2414 4.63353 11.6032 4.63353 13.2909C4.63353 13.8612 4.99996 14.3617 5.62643 14.6527C6.05196 14.8506 6.61933 14.9553 7.21034 14.9553C8.74697 14.9553 9.78715 14.2803 9.78715 13.2909C9.79897 11.6149 8.64059 10.2414 7.21034 10.2414ZM7.21034 13.5703C6.51295 13.5703 6.09924 13.3608 6.05196 13.2909C6.05196 12.3947 6.58387 11.6382 7.21034 11.6382C7.83681 11.6382 8.36872 12.3831 8.36872 13.2676C8.2978 13.3724 7.89592 13.5703 7.21034 13.5703ZM17.8013 10.2414C16.3828 10.2414 15.2245 11.6032 15.2245 13.2909C15.2245 13.8612 15.5909 14.3617 16.2174 14.6527C16.6429 14.8506 17.2103 14.9553 17.8013 14.9553C19.3379 14.9553 20.3781 14.2803 20.3781 13.2909C20.3781 11.6149 19.2197 10.2414 17.8013 10.2414ZM17.8013 13.5703C17.1039 13.5703 16.6902 13.3608 16.6429 13.2909C16.6429 12.3947 17.1748 11.6382 17.8013 11.6382C18.4277 11.6382 18.9597 12.3831 18.9597 13.2676C18.8769 13.3724 18.475 13.5703 17.8013 13.5703Z" fill="#729EFC"/>
</svg>
