<svg width="25" height="30" viewBox="0 0 25 30" fill="none" xmlns="http://www.w3.org/2000/svg">
<path d="M23.7114 0.178893C22.9076 -0.16912 22.0093 -0.00111377 21.3828 0.610909L16.9739 4.89507C14.1252 4.30705 10.8864 4.31905 8.04958 4.89507L3.62881 0.610909C2.99052 -0.00111377 2.104 -0.16912 1.30023 0.178893C0.49645 0.526906 0 1.29493 0 2.18297V13.0794C0 17.5195 2.31677 21.6357 6.06378 23.9398V29.28C6.06378 29.532 6.1938 29.76 6.39475 29.892C6.51295 29.964 6.64297 30 6.77299 30C6.87938 30 6.98576 29.976 7.08032 29.928L10.4845 28.2239C10.8155 28.632 11.3238 28.896 11.8912 28.896H13.1086C13.676 28.896 14.1725 28.632 14.5152 28.2239L17.9195 29.928C18.014 29.976 18.1204 30 18.2268 30C18.3568 30 18.4868 29.964 18.605 29.892C18.8178 29.76 18.936 29.532 18.936 29.28V23.9278C22.683 21.5517 24.9998 17.3515 24.9998 12.8394V2.18297C25.0116 1.29493 24.5152 0.526906 23.7114 0.178893ZM10.059 26.8319L7.48221 28.1159V24.6958L10.059 25.9799V26.8319ZM13.5342 27.0359C13.5342 27.2639 13.345 27.4559 13.1205 27.4559H11.903C11.6784 27.4559 11.4893 27.2639 11.4893 27.0359V25.7998C11.4893 25.5718 11.6784 25.3798 11.903 25.3798H13.1205C13.345 25.3798 13.5342 25.5718 13.5342 25.7998V27.0359ZM17.5294 28.1279L14.9526 26.8439V26.0039L17.5294 24.7198V28.1279ZM23.5932 12.8514C23.5932 16.9315 21.3592 20.8917 17.884 22.9317L14.5152 24.6118C14.1843 24.2038 13.676 23.9398 13.1086 23.9398H11.8912C11.3238 23.9398 10.8273 24.2038 10.4845 24.6118L7.11578 22.9197C3.60517 20.9277 1.41843 17.1595 1.41843 13.0794V2.18297C1.41843 1.72695 1.76121 1.54694 1.85578 1.49894C1.96216 1.45094 2.31677 1.33094 2.64773 1.64295L7.23398 6.08311L7.43493 6.23912C7.60041 6.35912 7.81317 6.40713 8.0023 6.35912C10.8273 5.7351 14.1134 5.7231 16.9502 6.34712C17.1275 6.38312 17.3048 6.35912 17.4585 6.26312L17.7067 6.11911C17.754 6.09511 17.8013 6.05911 17.8367 6.02311L22.3521 1.64295C22.6712 1.33094 23.0376 1.45094 23.144 1.49894C23.2504 1.54694 23.5814 1.72695 23.5814 2.18297V12.8514H23.5932ZM12.5767 16.2235C11.312 16.2235 9.73987 16.2235 9.73987 17.4595C9.73987 18.2036 10.3072 18.8876 11.442 19.4996C11.5956 19.5836 11.7493 19.6316 11.9148 19.6796V20.7357C11.9148 21.1317 12.2339 21.4557 12.624 21.4557C13.0141 21.4557 13.3332 21.1317 13.3332 20.7357V19.6556C13.4632 19.6076 13.5933 19.5716 13.7233 19.5116C14.858 18.8996 15.4254 18.2156 15.4254 17.4715C15.4136 16.2235 13.8415 16.2235 12.5767 16.2235ZM13.0495 18.2276C12.754 18.3836 12.3994 18.3836 12.1039 18.2276C11.7257 18.0236 11.4893 17.8436 11.3474 17.7115C11.7375 17.6635 12.3167 17.6635 12.5767 17.6635C12.8368 17.6635 13.416 17.6635 13.806 17.7115C13.6642 17.8436 13.4278 18.0236 13.0495 18.2276ZM7.21034 10.5593C5.79191 10.5593 4.63353 11.9633 4.63353 13.7034C4.63353 14.2914 4.99996 14.8074 5.62643 15.1074C6.06378 15.3115 6.61933 15.4315 7.21034 15.4315C8.75879 15.4315 9.78715 14.7354 9.78715 13.7034C9.79897 11.9753 8.64059 10.5593 7.21034 10.5593ZM7.21034 13.9914C6.51295 13.9914 6.09924 13.7754 6.05196 13.7034C6.05196 12.7794 6.58387 11.9993 7.21034 11.9993C7.83681 11.9993 8.36872 12.7674 8.36872 13.6794C8.2978 13.7874 7.89592 13.9914 7.21034 13.9914ZM17.7895 10.5593C16.371 10.5593 15.2126 11.9633 15.2126 13.7034C15.2126 14.2914 15.5791 14.8074 16.2055 15.1074C16.6429 15.3115 17.1984 15.4315 17.7895 15.4315C19.3379 15.4315 20.3663 14.7354 20.3663 13.7034C20.3781 11.9753 19.2197 10.5593 17.7895 10.5593ZM17.7895 13.9914C17.0921 13.9914 16.6783 13.7754 16.6311 13.7034C16.6311 12.7794 17.163 11.9993 17.7895 11.9993C18.4159 11.9993 18.9478 12.7674 18.9478 13.6794C18.8769 13.7874 18.475 13.9914 17.7895 13.9914Z" fill="#729EFC"/>
</svg>
