<svg width="33" height="28" viewBox="0 0 33 28" fill="none" xmlns="http://www.w3.org/2000/svg">
<path d="M13.0132 5.47945C13.1862 5.53352 13.3592 5.57408 13.5323 5.57408C13.8383 5.57408 14.1444 5.47945 14.4106 5.27669C14.9563 4.87116 15.2757 4.11416 15.2623 3.19496C15.249 1.76208 14.4905 0.423821 13.5056 0.0858774C13.0265 -0.0763354 12.5341 -0.00874677 12.1216 0.288643C11.5759 0.694175 11.2565 1.45117 11.2698 2.37037C11.2698 3.80325 12.0284 5.14151 13.0132 5.47945ZM12.9866 1.61338C13.2262 1.69449 13.652 2.35686 13.6653 3.19496C13.6653 3.70863 13.5189 3.92491 13.5323 3.93843C13.2927 3.85733 12.8668 3.19496 12.8535 2.35686C12.8535 1.8567 13.0132 1.6269 12.9866 1.61338ZM9.30017 5.65518C9.3401 5.65518 9.38003 5.65518 9.40664 5.65518C9.87244 5.65518 10.285 5.45242 10.5778 5.08744C11.0037 4.54673 11.1101 3.73567 10.8706 2.8435C10.4846 1.46469 9.41995 0.383268 8.38189 0.315679C7.87617 0.275126 7.41037 0.477892 7.09097 0.883424C6.6651 1.42413 6.55864 2.2352 6.79819 3.12737C7.18414 4.49266 8.24881 5.5876 9.30017 5.65518ZM8.27542 1.92429C8.52828 1.93781 9.11385 2.465 9.3401 3.27606C9.47318 3.7627 9.38003 4.01954 9.40664 4.03306C9.15378 4.01954 8.56821 3.49235 8.35528 2.68128C8.20888 2.19464 8.30204 1.93781 8.27542 1.92429ZM5.69359 7.58822C5.72021 7.58822 5.76013 7.58822 5.78675 7.58822C6.27916 7.56118 6.71834 7.29083 6.98451 6.85826C7.54346 5.95257 7.30391 4.43859 6.42555 3.31662C5.85329 2.60018 5.14795 2.20816 4.46922 2.2352C3.97681 2.26223 3.53763 2.53259 3.27146 2.96515C2.7125 3.87084 2.95205 5.38483 3.83041 6.5068C4.37606 7.19621 5.04148 7.58822 5.69359 7.58822ZM4.56238 3.85733C4.61561 3.85733 4.88177 3.93843 5.18787 4.33045C5.70689 4.99282 5.77344 5.77684 5.70689 5.96609C5.64035 5.93906 5.40081 5.8985 5.08141 5.49297C4.56238 4.8306 4.48253 4.04657 4.56238 3.85733ZM15.981 7.76395C14.6502 5.11447 11.2432 5.37131 8.64806 6.70957C7.30391 7.41249 6.186 8.38577 5.50727 9.45367C4.68215 10.7514 4.57568 12.1437 5.18787 13.3603C5.91983 14.8202 7.14421 15.807 8.64806 16.1585C9.06063 16.2531 9.47318 16.3072 9.91236 16.3072C10.9504 16.3072 12.0417 16.0368 13.0665 15.4961C14.5171 14.7391 15.635 13.5901 16.1806 12.2518C16.7795 10.8054 16.713 9.22387 15.981 7.76395ZM14.7167 11.6165C14.3041 12.6033 13.4657 13.4684 12.3345 14.0497C11.2166 14.631 10.0321 14.8202 9.00739 14.5769C7.95602 14.3336 7.1309 13.6577 6.61187 12.6168C6.25254 11.9139 6.33239 11.1434 6.85142 10.3188C7.35714 9.50774 8.27542 8.71019 9.36671 8.15596C10.3648 7.64229 11.4428 7.3449 12.3478 7.3449C12.4277 7.3449 12.5075 7.3449 12.574 7.3449C13.5323 7.39897 14.1977 7.79099 14.557 8.49391C15.076 9.53477 15.1293 10.6162 14.7167 11.6165ZM3.21822 6.54735C2.48626 5.99313 1.68775 5.80388 1.04894 6.02016C0.583149 6.18238 0.223827 6.54735 0.0774341 7.04751C-0.22866 8.06134 0.396831 9.46719 1.52805 10.3188C2.06038 10.7108 2.63266 10.9271 3.13838 10.9271C3.32469 10.9271 3.51101 10.9001 3.68402 10.846C4.16312 10.6838 4.50914 10.3188 4.65554 9.81865C4.97494 8.80482 4.36275 7.39897 3.21822 6.54735ZM2.48626 9.00758C1.82083 8.50743 1.54136 7.76395 1.56798 7.56118C1.58129 7.56118 1.5946 7.56118 1.60791 7.56118C1.71437 7.56118 1.95392 7.60174 2.27333 7.85858C2.93875 8.35873 3.21822 9.10221 3.1916 9.30497C3.15168 9.30497 2.88551 9.30497 2.48626 9.00758ZM32.9226 18.7133C32.7762 18.2132 32.4302 17.8482 31.9511 17.686C31.3123 17.4697 30.5138 17.6589 29.7818 18.2132C28.6506 19.0648 28.0251 20.4706 28.3312 21.4845C28.4776 21.9846 28.8236 22.3496 29.3027 22.5118C29.4757 22.5659 29.6621 22.5929 29.8484 22.5929C30.3674 22.5929 30.9264 22.3901 31.4587 21.9846C32.6032 21.133 33.2287 19.7271 32.9226 18.7133ZM30.5271 20.6734C30.1279 20.9708 29.8484 20.9708 29.8617 21.0113C29.7951 20.768 30.0613 20.0245 30.7267 19.5244C31.126 19.227 31.4055 19.227 31.3922 19.2C31.472 19.4298 31.1925 20.1732 30.5271 20.6734ZM26.0156 18.5241C26.2817 18.9566 26.7209 19.227 27.2133 19.254C27.2399 19.254 27.2799 19.254 27.3065 19.254C27.9586 19.254 28.6373 18.862 29.1697 18.1726C30.048 17.0506 30.2876 15.5366 29.7286 14.631C29.4491 14.1849 29.0233 13.928 28.5308 13.901C27.8787 13.8469 27.1468 14.2525 26.5745 14.9824C25.7095 16.1044 25.4699 17.6184 26.0156 18.5241ZM27.8388 15.9963C28.1449 15.6042 28.4111 15.5231 28.3978 15.4961C28.5308 15.7124 28.451 16.4964 27.932 17.1588C27.6259 17.5508 27.3597 17.6319 27.373 17.6589C27.2399 17.4426 27.3198 16.6586 27.8388 15.9963ZM18.6028 16.9425C18.8689 17.1317 19.1617 17.2399 19.4811 17.2399C19.6541 17.2399 19.8271 17.2128 20.0002 17.1453C20.985 16.8073 21.7436 15.4691 21.7569 14.0362C21.7702 13.117 21.4508 12.3465 20.9051 11.9409C20.5059 11.6435 20.0002 11.576 19.521 11.7382C18.5362 12.0761 17.7776 13.4144 17.7643 14.8472C17.751 15.78 18.0571 16.537 18.6028 16.9425ZM19.9602 13.2657C20.0002 13.2927 20.1599 13.5225 20.1465 14.0227C20.1332 14.8608 19.7074 15.5231 19.5344 15.6313C19.4944 15.6042 19.3347 15.3744 19.348 14.8743C19.3613 14.0227 19.7872 13.3603 19.9602 13.2657ZM24.3653 18.3889C21.7702 17.0371 18.3632 16.7938 17.0324 19.4433C15.5684 22.3496 16.7662 25.5263 19.9469 27.1754C21.0249 27.7296 22.1029 28 23.1143 28C25.1106 28 26.854 26.9727 27.8255 25.0396C29.1563 22.3901 26.9605 19.7271 24.3653 18.3889ZM26.4015 24.2961C25.1904 26.7023 22.6485 26.7429 20.6789 25.7155C18.6959 24.6882 17.2453 22.5794 18.4564 20.1732C19.2549 18.5917 21.6637 18.8079 23.6333 19.8218C24.7246 20.3895 25.6429 21.1735 26.1486 21.9981C26.6677 22.8227 26.7475 23.5932 26.4015 24.2961ZM23.5934 17.321C23.6333 17.321 23.6733 17.321 23.6999 17.321C24.7379 17.2534 25.8159 16.1585 26.1886 14.7797C26.4281 13.8875 26.3217 13.0764 25.8958 12.5357C25.5764 12.1437 25.1106 11.9409 24.6049 11.968C23.5668 12.0356 22.4888 13.1305 22.1162 14.5093C21.8766 15.4015 21.9831 16.2125 22.409 16.7532C22.7151 17.1317 23.1276 17.321 23.5934 17.321ZM23.6733 14.9554C23.8995 14.1443 24.4851 13.6171 24.6714 13.5631C24.698 13.6036 24.7912 13.8604 24.6581 14.3471C24.4319 15.1582 23.8463 15.6853 23.66 15.7394C23.6334 15.6989 23.5402 15.442 23.6733 14.9554Z" fill="white"/>
</svg>
