<svg width="35" height="33" viewBox="0 0 35 33" fill="none" xmlns="http://www.w3.org/2000/svg">
<path d="M34.8751 27.0619C34.8127 26.9072 34.719 26.7526 34.6253 26.567C34.0009 25.3608 33.0018 24.6804 31.628 24.6186C31.066 24.5876 31.066 24.5567 31.066 24C31.066 22.3918 31.066 20.8144 31.066 19.2062V16.8866C31.066 16.5464 31.066 16.2062 30.9411 15.866C30.6601 15.1237 30.0045 14.7217 29.0054 14.7217C27.2569 14.7217 25.5085 14.7217 23.76 14.7217H21.3559C21.1998 14.7217 21.0437 14.7217 20.8564 14.7217C20.669 14.7217 20.5754 14.6289 20.5754 14.4433C20.5754 14.3196 20.5754 14.1959 20.5754 14.0722V3.52577C20.5754 3.43299 20.5754 3.30928 20.5754 3.2165C20.5754 3.15464 20.5754 3.12371 20.6066 3.09278C20.6378 3.09278 20.6378 3.12371 20.7003 3.15464C20.9813 3.40206 21.231 3.61856 21.4184 3.80412C21.6681 4.05155 21.9492 4.29897 22.1989 4.54639C22.6985 5.01031 23.198 5.50515 23.6976 5.96907C24.1971 6.43299 24.4157 6.92784 24.3845 7.57732C24.3533 8.75258 24.3533 9.92784 24.3845 11.0722C24.3845 11.5361 24.3845 12 24.3845 12.4639V12.5567C24.3845 12.6495 24.3845 12.7423 24.3845 12.866C24.3845 13.268 24.4781 13.5155 24.6655 13.6701C24.7904 13.7938 24.9465 13.8247 25.1338 13.8247C25.7895 13.7938 25.8207 13.2371 25.8207 12.8351C25.8207 12.5258 25.8207 12.2474 25.8207 11.9381V10.268C25.8207 9.24742 25.8207 8.25773 25.8207 7.23711C25.8207 6.46392 25.5397 5.81443 24.9777 5.25773C23.5415 3.89691 22.1365 2.53608 20.7627 1.20619C20.2944 0.742268 19.7636 0.618557 19.0767 0.865979C17.3595 1.45361 15.6111 2.01031 13.9251 2.56701L12.1142 3.15464C11.9581 3.2165 11.802 3.24742 11.6459 3.30928C11.5522 3.34021 11.4897 3.34021 11.4585 3.30928C11.4273 3.27835 11.3961 3.2165 11.3961 3.12371C11.3961 3 11.3961 2.90722 11.3961 2.78351C11.3961 2.59794 11.3961 2.38144 11.3961 2.19588C11.4585 1.17526 11.0214 0.43299 10.116 0L9.05441 0H8.99197C8.11775 0.402062 7.68064 1.14433 7.71186 2.25773C7.71186 2.53608 7.71186 2.78351 7.71186 3.06186C7.71186 3.40206 7.71186 3.7732 7.71186 4.1134C7.71186 4.48454 7.58698 4.6701 7.21231 4.76289C6.7752 4.8866 6.33809 5.04124 5.90098 5.19588C4.55843 5.69072 4.05888 6.37113 4.05888 7.79382C4.05888 11.6598 4.05888 15.4948 4.05888 19.3608V23.5052C4.05888 23.567 4.05888 23.6289 4.05888 23.6598C4.05888 23.7835 4.05888 23.9072 4.05888 24.0619C4.0901 24.4948 3.96521 24.6495 3.49688 24.7423C1.405 25.2062 0.0312221 26.8454 0 29.0103C0 29.7526 0 30.5567 0 31.3608C0 32.2887 0.561998 32.9072 1.52988 33C1.68599 33 1.81088 33 1.96699 33H8.83586C16.8912 33 24.9777 33 33.033 33C34.0009 33 34.6253 32.6598 34.9688 31.9175V27.3402L34.8751 27.0619ZM20.669 29.9381C20.7315 29.8763 20.95 29.8763 21.2935 29.8763C21.3559 29.8763 21.4184 29.8763 21.4808 29.8763H21.6057C22.1677 29.8763 22.7297 29.8763 23.3229 29.8763H23.9161H24.9777C25.6958 29.8763 26.4139 29.8763 27.132 29.8763C27.6004 29.8763 27.6316 29.9072 27.6316 30.4021C27.6316 30.9897 27.6628 31.3608 27.5379 31.4845C27.413 31.6082 27.0696 31.6082 26.4764 31.6082H25.446C24.041 31.6082 22.636 31.6082 21.2623 31.6082C20.6066 31.6082 20.6066 31.5773 20.6066 30.9278V30.6186C20.5754 30.2474 20.5754 30.0309 20.669 29.9381ZM27.1945 28.4536C25.2587 28.4536 23.1668 28.4536 21.0749 28.4536C20.8876 28.4536 20.7627 28.4227 20.7003 28.3608C20.6378 28.299 20.6066 28.1753 20.6066 27.9588C20.6066 26.5979 20.6066 25.2062 20.6066 23.8454V20.9072C20.6066 19.5464 20.6066 18.1856 20.6066 16.8247C20.6066 16.2371 20.6066 16.2371 21.1998 16.2371C22.4487 16.2371 23.6976 16.2371 24.9465 16.2371C26.289 16.2371 27.6004 16.2371 28.9429 16.2371C29.5673 16.2371 29.661 16.3299 29.661 16.9175C29.661 18.5258 29.661 20.134 29.661 21.7423C29.661 22.6701 29.661 23.6289 29.661 24.5567C29.661 24.866 29.5361 25.0825 29.2551 25.268C28.256 25.9175 27.7565 26.8144 27.694 28.0206C27.6628 28.3608 27.5379 28.4536 27.1945 28.4536ZM33.5013 28.3918C33.4389 28.4536 33.3452 28.4845 33.1891 28.4845C32.7208 28.4845 32.2837 28.4845 31.8153 28.4845H31.2533C31.066 28.4845 30.8475 28.4845 30.6601 28.4845C30.2542 28.4845 29.8796 28.4845 29.4737 28.4845C29.2863 28.4845 29.1615 28.4536 29.099 28.3918C29.0366 28.3299 29.0366 28.2062 29.0366 28.0206C29.1302 26.9072 30.0981 26.1031 31.3158 26.1031C31.347 26.1031 31.3782 26.1031 31.4095 26.1031C32.5334 26.134 33.5013 27.0619 33.5326 28.1134C33.595 28.2371 33.5638 28.3299 33.5013 28.3918ZM29.1615 29.9381C29.2239 29.8763 29.4112 29.8763 29.7235 29.8763C29.7859 29.8763 29.8483 29.8763 29.9108 29.8763C30.0045 29.8763 30.1293 29.8763 30.2855 29.8763C30.504 29.8763 30.7538 29.8763 30.9723 29.8763H31.8466C32.2837 29.8763 32.7208 29.8763 33.1579 29.8763C33.4389 29.8763 33.5638 29.9691 33.5638 30.2784C33.595 30.9278 33.6262 31.299 33.5013 31.4536C33.3764 31.5773 32.9706 31.5773 32.3149 31.5773H31.5343C30.9099 31.5773 30.2855 31.5773 29.661 31.5773C29.0678 31.5773 29.0678 31.5773 29.0678 31.0206V30.7113C29.0678 30.3093 29.0678 30.0309 29.1615 29.9381ZM9.21053 2.53608C9.21053 2.28866 9.21053 2.07217 9.21053 1.82474C9.21053 1.57732 9.33541 1.48454 9.55397 1.48454C9.67886 1.48454 9.77252 1.51546 9.83497 1.57732C9.89741 1.63918 9.92863 1.73196 9.92863 1.85567C9.95986 2.56701 9.95986 3.15464 9.92863 3.71134C9.92863 3.80412 9.89741 4.08247 9.36664 4.1134C9.30419 4.1134 9.24175 4.1134 9.24175 4.08247C9.21053 4.05155 9.21053 3.92784 9.21053 3.80412C9.21053 3.74227 9.21053 3.71134 9.21053 3.68041C9.21053 3.49485 9.21053 3.30928 9.21053 3.15464V3.06186V2.53608ZM9.21053 28.5464C9.1793 28.1134 9.33541 27.8969 9.77252 27.8351C9.95986 27.8041 10.1784 27.7423 10.3657 27.6804L10.4282 27.6495C10.4906 27.6186 10.5531 27.6186 10.6155 27.6186C10.6467 27.6186 10.678 27.6186 10.7092 27.6495C10.7716 27.6804 10.7716 27.7732 10.7716 27.9278C10.7716 28.299 10.7716 28.6701 10.7716 29.0412V29.6907V30C10.7716 30.3402 10.7716 30.7113 10.7716 31.0515C10.7716 31.3608 10.678 31.4845 10.3345 31.4845H10.3033C9.77252 31.5155 9.42908 31.5155 9.33541 31.4227C9.21053 31.3299 9.21053 30.9897 9.21053 30.433C9.21053 30.2474 9.21053 30.0619 9.21053 29.8763C9.21053 29.4742 9.21053 29.0103 9.21053 28.5464ZM18.6084 12.0928C16.7663 12.6804 14.9242 13.299 13.1133 13.8866L11.5834 14.3814C10.6155 14.6907 9.64763 15.0309 8.67975 15.3402C8.46119 15.4021 8.24264 15.4948 8.05531 15.6495C7.83675 15.866 7.77431 16.1134 7.86797 16.3918C7.96164 16.6392 8.1802 16.7938 8.46119 16.7938C8.74219 16.7938 8.96075 16.732 9.21053 16.6392L13.4567 15.2165C15.1427 14.6598 16.8599 14.0722 18.5459 13.5155C18.6708 13.4845 19.0143 13.3608 19.0767 13.4227C19.1392 13.4845 19.1392 13.8247 19.1392 13.9485C19.1392 14.134 19.1392 14.3196 19.1392 14.4742C19.1392 15.433 19.1392 15.433 18.3586 15.6804C18.2025 15.7423 18.0152 15.8041 17.7966 15.866C15.9233 16.5155 14.0187 17.134 12.1142 17.7526C10.9902 18.1237 9.83497 18.4948 8.71097 18.8969C8.49242 18.9588 8.30508 19.0515 8.14897 19.1443C7.86797 19.299 7.74309 19.6082 7.86797 19.9175C7.99286 20.2577 8.24264 20.4433 8.6173 20.3814C8.83586 20.3505 9.02319 20.2887 9.27297 20.1959C11.0839 19.6082 12.8947 18.9897 14.7368 18.4021L18.6396 17.1031C18.7645 17.0722 19.0767 16.9485 19.1392 16.9794C19.2016 17.0103 19.1704 17.3505 19.1704 17.5052C19.1704 17.7526 19.1704 17.9381 19.1704 18.1237C19.1704 19.0206 19.1704 19.0206 18.3274 19.268C18.1713 19.3299 17.9839 19.3918 17.7342 19.4536C16.6726 19.7938 15.6111 20.165 14.5807 20.5052L13.0508 21C12.8947 21.0619 12.7386 21.0928 12.5825 21.1546C11.8956 21.4021 11.8956 21.8351 12.0205 22.1134C12.2391 22.732 12.8635 22.5155 13.0508 22.4536C14.0812 22.1134 15.1115 21.7732 16.1731 21.433L18.5459 20.6598C18.7021 20.5979 19.0455 20.5052 19.1079 20.5361C19.1704 20.5979 19.1704 20.9381 19.1704 21.1237V30.8041C19.1704 31.5155 19.1704 31.5155 18.4523 31.5155C18.1401 31.5155 17.8278 31.5155 17.5156 31.5155C16.8912 31.5155 16.2979 31.5155 15.6735 31.5155C15.4862 31.5155 15.3925 31.4845 15.2988 31.4227C15.2364 31.3608 15.2052 31.2371 15.2052 31.0515C15.2052 29.9072 15.2052 28.7938 15.2052 27.6495V27.2784C15.2052 27.0309 15.2052 26.7835 15.174 26.5361C15.1115 26.0412 14.893 25.6701 14.5807 25.4536C14.3934 25.3299 14.1748 25.268 13.8938 25.268C13.7377 25.268 13.5504 25.299 13.3631 25.3299C12.6137 25.5155 11.8332 25.732 11.0839 25.9485C10.397 26.134 9.71008 26.3196 9.02319 26.5052C8.18019 26.7217 7.74309 27.2474 7.71186 28.0825C7.68064 28.701 7.68064 29.3505 7.68064 29.9691C7.68064 30.2784 7.68064 30.5876 7.68064 30.8969C7.68064 31.4536 7.68064 31.4536 7.08742 31.4845C6.93131 31.4845 6.74398 31.4845 6.58787 31.4845C6.36931 31.4845 6.15076 31.4845 5.96343 31.4845C5.80731 31.4845 5.68243 31.4536 5.61998 31.3918C5.55754 31.3299 5.52632 31.2062 5.52632 31.0515C5.52632 30.5258 5.52632 29.9691 5.52632 29.4433V22.299C5.52632 21.5258 5.52632 20.7217 5.52632 19.9485C5.52632 18.1856 5.55754 16.3299 5.49509 14.5361C5.46387 12.1856 5.43265 9.83505 5.43265 7.82474C5.43265 6.86598 5.55754 6.71134 6.46298 6.40206C10.4594 5.07217 14.4871 3.74227 18.4835 2.41237C18.7645 2.31959 18.9206 2.28866 18.9518 2.31959C19.0143 2.35052 19.0143 2.69072 19.0143 2.81443C19.0143 2.93814 19.0143 3.09278 19.0143 3.2165C19.0143 3.46392 19.0143 3.74227 19.0143 3.98969C19.0455 4.36083 18.8894 4.54639 18.5147 4.70103C17.5468 5.01031 16.5789 5.35052 15.6111 5.65979C15.0803 5.84536 14.5495 6.03093 14.0187 6.18557C13.0821 6.49485 12.1454 6.80412 11.2087 7.1134C10.3345 7.39175 9.4603 7.70103 8.58608 7.97938C8.11775 8.13402 7.86797 8.31959 7.74309 8.53608C7.68064 8.69072 7.68064 8.84536 7.74309 9.03093C7.96164 9.61856 8.55486 9.52577 9.05441 9.34021C10.959 8.72165 12.8635 8.07217 14.7993 7.45361L18.5459 6.2165C18.6708 6.18557 18.983 6.06186 19.0455 6.09278C19.0767 6.15464 19.0767 6.46392 19.0767 6.5567C19.0767 6.86598 19.0767 7.1134 19.0767 7.3299C19.0767 8.16495 19.0767 8.16495 18.2649 8.41237C18.0776 8.47423 17.8591 8.53608 17.6093 8.62887C15.6423 9.30928 13.6441 9.95876 11.6771 10.6082C10.6467 10.9485 9.61641 11.2887 8.58608 11.6289C8.42997 11.6907 8.27386 11.7217 8.14897 11.8144C7.83675 12 7.71186 12.2784 7.83675 12.6186C7.93042 12.9278 8.21142 13.0825 8.55486 13.0515C8.80464 13.0206 9.05441 12.9588 9.30419 12.866C11.1151 12.2784 12.9572 11.6907 14.7681 11.1031L18.7021 9.83505C18.7957 9.80412 19.1079 9.71134 19.1704 9.74227C19.2328 9.7732 19.2328 10.1134 19.2328 10.2062C19.2328 10.299 19.2328 10.4227 19.2328 10.5155C19.2328 10.732 19.2328 10.9485 19.2328 11.1959C19.2016 11.7217 19.0455 11.9381 18.6084 12.0928ZM13.6441 31.4536C13.5816 31.5155 13.4567 31.5464 13.3006 31.5464C13.1445 31.5464 13.0196 31.5464 12.8947 31.5464C12.5201 31.5464 12.3015 31.5464 12.2391 31.4536C12.1766 31.3608 12.1766 31.0825 12.1766 30.6186V29.8144C12.1766 29.1031 12.1766 28.3608 12.1766 27.6495C12.1766 27.3093 12.3015 27.1237 12.6137 27.0619C12.8635 27 13.1445 26.9381 13.3943 26.8454L13.4567 26.8144C13.5192 26.7835 13.5816 26.7835 13.6128 26.7835C13.6441 26.7835 13.6753 26.7835 13.6753 26.8144C13.7065 26.8454 13.7377 26.9381 13.7377 27.0619C13.7377 27.5258 13.7377 28.0206 13.7377 28.4845V28.9485V29.6907C13.7377 30.1546 13.7377 30.6186 13.7377 31.0825C13.7377 31.299 13.7065 31.3918 13.6441 31.4536ZM3.96521 28.3918C3.90277 28.4536 3.84032 28.4536 3.71543 28.4536C3.49688 28.4536 3.2471 28.4536 3.02855 28.4536H1.77966C1.68599 28.4536 1.59233 28.4536 1.56111 28.3918C1.52988 28.3608 1.52988 28.268 1.56111 28.1443C1.77966 27.2784 2.84121 26.2887 3.71543 26.1649C3.74665 26.1649 3.77788 26.1649 3.84032 26.1649C3.90277 26.1649 3.96521 26.1649 3.99643 26.1959C4.05888 26.2268 4.05888 26.3505 4.05888 26.4124V28.1134C4.05888 28.268 4.02765 28.3299 3.96521 28.3918ZM1.43622 30.5567C1.43622 30.433 1.43622 30.3093 1.43622 30.1546C1.43622 30 1.49866 29.9072 1.71722 29.9072C1.84211 29.9072 1.99822 29.9072 2.1231 29.9072C2.21677 29.9072 2.34166 29.9072 2.43533 29.9072H2.90366H3.05977C3.27832 29.9072 3.5281 29.9072 3.74665 29.9072C3.87154 29.9072 3.93399 29.9381 3.99643 29.9691C4.05888 30.0309 4.05888 30.0928 4.05888 30.2165C4.05888 30.4021 4.05888 30.5567 4.05888 30.6804C4.05888 31.1443 4.05888 31.4227 3.99643 31.5155C3.90277 31.6082 3.65299 31.6082 3.21588 31.6082C3.09099 31.6082 2.93488 31.6082 2.77877 31.6082H2.49777C1.96699 31.6082 1.62355 31.6082 1.52988 31.5155C1.405 31.3918 1.405 31.0825 1.43622 30.5567Z" fill="#98A1A7"/>
<path d="M7.80551 23.4742C7.89917 23.8144 8.14895 23.9691 8.58606 23.9691H8.61728L8.77339 23.9382C9.39784 23.7526 10.0535 23.567 10.7092 23.2887C11.0214 23.134 11.1463 22.8247 11.0214 22.4845C10.8965 22.1443 10.5843 21.9897 10.2408 22.0516C9.4915 22.2062 8.80462 22.4536 8.14895 22.732C7.83673 22.8557 7.71184 23.165 7.80551 23.4742Z" fill="#98A1A7"/>
<path d="M23.0419 20.3505C23.6039 20.3505 24.1971 20.3505 24.7591 20.3505C25.1962 20.3505 25.6021 20.3505 26.0392 20.3505H26.8822C27.6316 20.3505 28.0687 20.2267 28.3185 19.9484C28.5995 19.67 28.6931 19.2371 28.6307 18.4639C28.6307 18.3711 28.5995 18.2783 28.5995 18.1546C28.5058 17.3505 28.1311 17.0103 27.3193 17.0103C26.7886 17.0103 26.2578 17.0103 25.727 17.0103C25.5397 17.0103 25.3836 17.0103 25.1962 17.0103H24.4469C23.9786 17.0103 23.5415 17.0103 23.0731 17.0103C23.0731 17.0103 23.0731 17.0103 23.0419 17.0103C21.8555 17.0103 21.4808 17.3505 21.4496 18.5566C21.4496 18.6804 21.4496 18.8041 21.4808 18.9587C21.6369 20.0412 21.9491 20.3505 23.0419 20.3505ZM22.9795 18.6494C22.9795 18.4948 23.0419 18.4329 23.3541 18.4329C23.6039 18.4329 23.8225 18.4329 24.0722 18.4329C24.2284 18.4329 24.4157 18.4329 24.5718 18.4329H25.0714H25.5709C25.9768 18.4329 26.3827 18.4329 26.7886 18.4329C27.1008 18.4329 27.1632 18.4948 27.1632 18.6494C27.1632 18.7422 27.1632 18.7731 27.132 18.8041C27.1008 18.8659 26.9759 18.8659 26.851 18.8659C25.6958 18.8659 24.5094 18.8659 23.3541 18.8659C23.198 18.8659 23.1044 18.835 23.0731 18.8041C23.0107 18.7731 22.9795 18.7422 22.9795 18.6494Z" fill="#98A1A7"/>
<path d="M28.6619 22.3917V22.3299C28.6619 22.268 28.6619 22.2371 28.6619 22.1753C28.6307 21.2165 28.2248 20.8144 27.2569 20.8144C26.7573 20.8144 26.289 20.8144 25.7895 20.8144C25.0401 20.8144 24.2596 20.8144 23.5102 20.8144H23.4166C22.6672 20.7835 22.1365 20.7835 21.8242 21.1237C21.5432 21.433 21.4496 21.9278 21.512 22.9794C21.5432 23.7216 21.9491 24.0928 22.6985 24.0928C23.2605 24.0928 23.7912 24.0928 24.3532 24.0928H24.9152H25.6646H26.9447C27.5691 24.0928 28.0374 24.0309 28.3184 23.7526C28.6307 23.5051 28.6619 23.0412 28.6619 22.3917ZM25.5709 22.701H25.2275H24.5406C24.1347 22.701 23.6976 22.701 23.2917 22.701C23.0107 22.701 22.9795 22.6082 22.9795 22.4845C22.9795 22.3917 22.9795 22.3608 23.0419 22.299C23.0731 22.268 23.1668 22.2371 23.3229 22.2371C24.4781 22.2371 25.6646 22.2371 26.8198 22.2371C26.9759 22.2371 27.0696 22.268 27.1008 22.299C27.1008 22.299 27.1632 22.3608 27.1632 22.4536C27.1632 22.6082 27.1008 22.6701 26.7886 22.6701C26.3827 22.701 25.9768 22.701 25.5709 22.701Z" fill="#98A1A7"/>
<path d="M24.2596 24.6804C23.76 24.6495 23.198 24.6495 22.5736 24.6804C21.9804 24.7114 21.6369 25.0206 21.5432 25.6392C21.512 25.8866 21.4496 26.165 21.4808 26.4433C21.512 27.5876 21.8555 27.9278 23.0419 27.9278H23.2917H23.5102C23.5415 27.9278 23.6039 27.9278 23.6351 27.9278C23.8225 27.9278 24.041 27.9278 24.2283 27.9278C25.1338 27.866 25.3211 27.2784 25.3211 26.4433C25.3211 25.4227 25.165 24.7423 24.2596 24.6804ZM23.8537 26.3196C23.8537 26.3505 23.8537 26.4124 23.8225 26.4433C23.76 26.5052 23.6351 26.5052 23.5102 26.5052H23.4478C23.4166 26.5052 23.3853 26.5052 23.3541 26.5052C23.0731 26.5052 23.0107 26.4742 23.0107 26.2887C23.0107 26.2268 23.0107 26.165 23.0419 26.134C23.0731 26.1031 23.1356 26.0722 23.2917 26.0722C23.3229 26.0722 23.3229 26.0722 23.3541 26.0722H23.4166C23.7288 26.1031 23.8225 26.134 23.8537 26.3196Z" fill="#98A1A7"/>
</svg>
