<?xml version="1.0" encoding="utf-8"?>
<!-- Generator: Adobe Illustrator 24.1.2, SVG Export Plug-In . SVG Version: 6.00 Build 0)  -->
<svg version="1.1" xmlns="http://www.w3.org/2000/svg" xmlns:xlink="http://www.w3.org/1999/xlink" x="0px" y="0px"
	 viewBox="0 0 25 25" style="enable-background:new 0 0 25 25;" xml:space="preserve">
<style type="text/css">
	.st0{fill:#E1E1E1;}
	.st1{fill:#FFFFFF;stroke:#729EFC;stroke-width:1.2;stroke-linecap:round;stroke-linejoin:round;stroke-miterlimit:10;}
	.st2{fill:#E4E4E4;}
	.st3{fill:#729EFC;}
	.st4{fill-rule:evenodd;clip-rule:evenodd;fill:#729EFC;}
	.st5{fill:none;stroke:#729EFC;stroke-width:1.2;stroke-linecap:round;stroke-linejoin:round;stroke-miterlimit:10;}
	.st6{fill:#98A1A7;}
	.st7{fill:#FFFFFF;}
	.st8{fill:#FFFFFF;stroke:#FFFFFF;stroke-width:3;stroke-linecap:round;stroke-linejoin:round;stroke-miterlimit:10;}
	.st9{fill:#E1E1E1;stroke:#729EFC;stroke-width:1.2;stroke-linecap:round;stroke-linejoin:round;stroke-miterlimit:10;}
	.st10{fill:none;stroke:#98A1A7;stroke-width:1.2;stroke-linecap:round;stroke-linejoin:round;stroke-miterlimit:10;}
	.st11{fill:none;stroke:#FFFFFF;stroke-width:1.2;stroke-linecap:round;stroke-linejoin:round;stroke-miterlimit:10;}
	.st12{fill:none;stroke:#729EFC;stroke-width:1.2;stroke-miterlimit:10;}
</style>
<g id="Layer_2">
</g>
<g id="Layer_1">
	<path class="st3" d="M15.41,11.83c-1.18-0.43-2.42-0.24-3.42,0.51C11,11.6,9.76,11.4,8.58,11.83c-1.54,0.56-2.65,2.03-2.81,3.76
		c-0.15,1.65,0.41,4.9,5.92,8.14l0.3,0.18l0.3-0.18c5.51-3.24,6.07-6.49,5.92-8.14C18.06,13.87,16.95,12.39,15.41,11.83z
		 M11.99,22.51c-3.41-2.08-5.24-4.55-5.03-6.81c0.12-1.27,0.91-2.34,2.02-2.74c0.28-0.1,0.57-0.15,0.85-0.15
		c0.63,0,1.24,0.26,1.73,0.75l0.42,0.42l0.42-0.42c0.72-0.72,1.66-0.93,2.58-0.6c1.11,0.4,1.9,1.48,2.02,2.74
		C17.23,17.96,15.4,20.43,11.99,22.51z M12.02,10.95c1.49,0,1.82-4.88,1.82-5.77c0-0.92-0.1-1.68-0.31-2.23
		c-0.4-1.08-1.12-1.25-1.51-1.25s-1.12,0.16-1.51,1.25C10.3,3.5,10.2,4.26,10.2,5.18C10.2,6.08,10.54,10.95,12.02,10.95z
		 M11.67,3.26c0.16-0.36,0.3-0.36,0.35-0.36s0.19,0,0.35,0.36c0.61,1.41,0.11,4.71-0.35,6.05C11.56,7.97,11.06,4.67,11.67,3.26z
		 M17.07,3.1c-0.53-0.11-1.04,0.07-1.44,0.52c-1.22,1.37-1.39,5.43-0.96,6.77c0.14,0.44,0.38,0.7,0.71,0.76
		c0.05,0.01,0.11,0.02,0.16,0.02c0.27,0,0.54-0.14,0.79-0.43c0.94-1.05,2.42-4.84,1.84-6.58C18,3.58,17.6,3.21,17.07,3.1z
		 M15.72,9.55c-0.16-1.22-0.03-3.94,0.72-5.02c0.16-0.22,0.27-0.26,0.34-0.26c0.02,0,0.04,0,0.05,0.01
		c0.05,0.01,0.18,0.04,0.25,0.39C17.34,5.95,16.36,8.5,15.72,9.55z M6.52,12.17c0.13-1.19-0.68-4.41-1.93-5.33
		c-0.43-0.31-0.9-0.38-1.34-0.18C2.81,6.85,2.53,7.25,2.48,7.77C2.3,9.32,4.12,12.09,5.08,12.8c0.22,0.17,0.44,0.25,0.64,0.25
		c0.1,0,0.2-0.02,0.3-0.06C6.31,12.86,6.48,12.59,6.52,12.17z M3.66,7.98c0-0.19,0.05-0.21,0.07-0.22c0,0,0.01-0.01,0.03-0.01
		c0.03,0,0.08,0.02,0.18,0.1c0.67,0.6,1.19,2.38,1.35,3.46C4.61,10.47,3.65,8.88,3.66,7.98z M8.52,11.16c0.05,0,0.1,0,0.14-0.02
		c1.39-0.29,0.83-4.4,0.66-5.2C8.78,3.36,7.64,3.2,7.02,3.33C6.4,3.47,5.43,4.07,5.97,6.65C6.13,7.42,7.2,11.16,8.52,11.16z
		 M7.05,4.86c0.07-0.32,0.18-0.34,0.22-0.35c0.01,0,0.03,0,0.04,0c0.06,0,0.16,0.03,0.3,0.24c0.71,1.01,0.85,3.58,0.7,4.78
		C7.71,8.48,6.8,6.08,7.05,4.86z M22.64,11.17c-0.55-0.36-1.17-0.4-1.75-0.1c-1.3,0.66-2.11,2.86-2.18,4.13
		c-0.03,0.64,0.12,1.07,0.47,1.3c0.15,0.1,0.32,0.15,0.51,0.15c0.25,0,0.54-0.08,0.86-0.25c1.13-0.58,2.81-2.22,2.89-3.67
		C23.48,12.08,23.2,11.53,22.64,11.17z M22.21,12.9c-0.29,1.03-1.67,2.21-2.3,2.48c0-0.68,0.51-2.43,1.33-3.11
		c0.17-0.14,0.32-0.2,0.44-0.2c0.11,0,0.21,0.04,0.31,0.11C22.2,12.32,22.32,12.49,22.21,12.9z"/>
</g>
</svg>
