<svg width="38" height="41" viewBox="0 0 38 41" fill="none" xmlns="http://www.w3.org/2000/svg">
<path d="M25.5888 8.44007C25.6578 8.44007 25.6923 8.44007 25.7612 8.44007C26.2096 8.44007 26.5889 8.09258 26.6924 7.57135L27.2786 2.01154C27.3476 1.31656 27.1752 0.96907 26.5544 0.69108L26.5199 0.656331H26.4854C26.382 0.656331 26.244 0.656331 26.1061 0.621582H26.0716L26.0371 0.656331C25.6233 0.864824 25.3819 1.24706 25.3129 1.80304C25.2095 3.054 25.0715 4.30496 24.9336 5.52117L24.8991 5.86866C24.8646 6.1119 24.8646 6.35514 24.8301 6.59838C24.7956 6.80688 24.7956 7.05012 24.7611 7.25861C24.7267 7.88409 25.037 8.33582 25.5888 8.44007Z" fill="#98A1A7"/>
<path d="M28.2446 20.9499C27.7618 18.726 26.7962 16.502 25.3133 14.2086C23.52 11.3939 21.5888 9.27427 19.4162 7.74532C17.8988 6.66811 16.5883 6.14687 15.2779 5.97313C14.1398 5.83413 12.519 6.25112 11.7603 7.81482C10.6222 10.143 9.41523 12.5754 8.27719 14.9036C7.48401 16.502 6.69084 18.1005 5.93214 19.6989C5.7942 19.9769 5.62177 20.1854 5.34588 20.3591C4.3113 21.0194 3.34569 21.6796 2.44906 22.3051C2.13868 22.5136 1.79382 22.7568 1.51794 23.0348C-0.413281 24.9807 -0.516739 27.9691 1.27653 30.1931C2.93186 32.2085 5.58728 32.695 7.86336 31.444C8.0013 31.3398 8.03579 31.3745 8.13925 31.5483C9.55317 33.7027 11.0361 35.8571 12.4155 37.9421C12.7949 38.5328 13.1742 39.1235 13.588 39.6448C14.2433 40.4787 15.2089 40.9652 16.209 41C16.2435 41 16.3124 41 16.3469 41C17.2436 41 18.1057 40.6177 18.7609 39.9575C19.8645 38.776 19.9679 37.0038 18.9679 35.5791C18.2092 34.4672 17.4505 33.3552 16.7263 32.2085C15.9676 31.0965 15.2089 29.9498 14.4502 28.8379C14.4157 28.8031 14.3812 28.7336 14.3812 28.6989C14.4502 28.6989 14.5192 28.6989 14.5536 28.6641C15.002 28.6294 15.4503 28.5946 15.8986 28.5599C16.3469 28.5251 16.7952 28.4904 17.2436 28.4556C18.0712 28.3861 18.8989 28.3166 19.7265 28.2471C21.3819 28.1081 23.1062 27.9691 24.7615 27.8649C26.8996 27.7259 28.0032 26.7182 28.417 24.668C28.5205 24.251 28.555 23.7993 28.555 23.4518C28.555 22.6178 28.4515 21.8533 28.2446 20.9499ZM9.93252 30.1236C10.3119 29.8803 10.6567 29.6371 11.0361 29.3938C11.2085 29.2549 11.3809 29.1506 11.5534 29.0464C11.6913 28.9421 11.8293 28.9074 11.9327 28.9074C12.0707 28.9074 12.2086 29.0116 12.3121 29.2201C13.8294 31.4788 15.4503 33.8764 17.3815 36.7259C17.6229 37.0386 17.7264 37.3513 17.7608 37.7336C17.6919 38.3938 17.3815 38.776 16.8987 38.9845C16.3469 39.2278 15.8296 39.1235 15.3813 38.7065C15.2089 38.5675 15.1054 38.359 14.9675 38.1506C14.8985 38.0463 14.864 37.9768 14.795 37.8726C14.3467 37.2123 13.8984 36.5521 13.4501 35.8919C12.2776 34.1544 11.0706 32.3822 9.89804 30.6101C9.79458 30.4711 9.76009 30.3668 9.79458 30.3321C9.76009 30.2278 9.79458 30.1931 9.93252 30.1236ZM11.7258 26.7877L7.72542 20.8456C7.65644 20.7066 7.65644 20.6719 7.69093 20.5676C8.34616 19.2472 9.0014 17.9267 9.62215 16.5715C10.2084 15.3553 10.8292 14.1391 11.4154 12.9229C12.9328 18.3437 15.9331 22.8263 20.4163 26.2317C20.1404 26.2665 19.8645 26.3012 19.6231 26.3359C17.1056 26.5097 14.5192 26.7182 12.0362 26.9267C11.8637 26.9267 11.8293 26.8919 11.7258 26.7877ZM5.44934 30.1583C3.89747 30.1583 2.62149 29.2201 2.13868 27.7259C1.69037 26.3707 2.17317 24.946 3.38018 24.112C3.75953 23.834 4.17336 23.556 4.5527 23.3128C5.06999 22.9653 5.58728 22.5831 6.10457 22.2356C6.20803 22.1661 6.24252 22.1661 6.24252 22.1661C6.24252 22.1661 6.277 22.1661 6.34598 22.2703L9.93252 27.5869C10.0015 27.6564 10.0015 27.6912 10.0015 27.6912C10.0015 27.6912 10.0015 27.7259 9.89804 27.7954C9.44972 28.1081 9.0014 28.4209 8.51859 28.7336C8.07028 29.0464 7.62196 29.3591 7.13915 29.6718C6.55289 30.0193 6.00112 30.1931 5.44934 30.1583ZM13.4501 12.7144C13.3466 12.4364 13.3122 12.0889 13.2432 11.7762V11.7067C13.1742 11.2897 13.1397 10.8727 13.1397 10.6642C13.1397 10.1777 13.1397 9.865 13.2432 9.51751C13.3466 8.92678 13.6225 8.4403 14.0019 8.19706C14.2778 8.02331 14.5881 7.91906 14.933 7.91906C15.1054 7.91906 15.3123 7.95381 15.5193 7.98856C16.7607 8.26655 17.9333 8.92678 19.2093 10.004C22.4165 12.7492 24.727 16.1545 26.072 20.1159C26.5548 21.5059 26.6927 22.7916 26.5203 23.973C26.3479 25.0502 25.7271 25.7452 24.865 25.8842C24.3477 25.9537 23.8304 25.7452 23.3131 25.5367C22.2095 25.0502 21.2094 24.39 20.3128 23.556C16.8987 20.4634 14.5881 16.8495 13.4501 12.7144Z" fill="#98A1A7"/>
<path d="M35.4176 8.33589C35.9349 7.9884 36.0728 7.43242 35.7624 6.94594C35.6245 6.73744 35.4176 6.5637 35.1762 6.52895C34.9003 6.45945 34.6244 6.52895 34.383 6.7027C33.4864 7.29343 32.5897 7.88416 31.7276 8.47489C30.8654 9.06562 29.9688 9.6216 29.1066 10.2123C28.7963 10.4208 28.6583 10.6988 28.6583 11.081C28.6583 11.4285 28.8308 11.7413 29.1411 11.915C29.2791 11.9845 29.4515 12.054 29.6239 12.054C29.8309 12.054 30.0378 11.9845 30.2447 11.8803C32.0724 10.5598 33.7967 9.44785 35.4176 8.33589Z" fill="#98A1A7"/>
<path d="M37.2109 16.224C36.6592 16.1197 36.0729 16.0155 35.4866 15.9112C34.9004 15.807 34.3486 15.7027 33.7623 15.5985C33.3485 15.529 32.9347 15.4595 32.5209 15.39C32.107 15.3205 31.6932 15.251 31.2794 15.1815H31.2104C30.9345 15.1467 30.6586 15.0773 30.3482 15.251C29.9344 15.4942 29.762 15.8417 29.8309 16.2935C29.8999 16.7452 30.2103 17.0232 30.7276 17.1274C32.0036 17.3359 33.3485 17.5792 34.659 17.8224C35.4177 17.9267 36.1419 18.0657 36.7971 18.2046H36.8316C37.4868 18.2046 37.9352 17.8572 37.9696 17.3359C38.1076 16.7452 37.7627 16.3282 37.2109 16.224Z" fill="#98A1A7"/>
<path d="M18.4159 13.4789C17.7262 13.4442 17.002 13.6179 16.3123 14.0349C15.8984 14.2782 15.657 14.5214 15.5536 14.8341C15.4846 15.0774 15.5191 15.3206 15.6915 15.5639C15.9329 15.9461 16.3812 16.2588 17.2779 15.7724C18.14 15.2859 19.1746 15.3554 19.8988 15.9461C20.692 16.5716 21.0024 17.4403 20.761 18.4828C20.6575 19.004 20.3471 19.421 19.7953 19.8727C19.3125 20.255 19.2436 20.7762 19.5884 21.2627C19.7953 21.5059 20.0712 21.6449 20.3471 21.6449C20.554 21.6449 20.7265 21.5754 20.9334 21.4712C21.1058 21.3669 21.2782 21.2279 21.4162 21.0889C22.7611 19.838 23.2439 17.9615 22.5887 16.2936C21.899 14.5561 20.3126 13.4789 18.4159 13.4789Z" fill="#98A1A7"/>
</svg>
