<svg width="63" height="61" viewBox="0 0 63 61" fill="none" xmlns="http://www.w3.org/2000/svg">
<path d="M13.1867 25.2098C12.356 24.4261 11.2917 24.0081 10.2274 24.0081L8.7738 6.13919C8.59209 3.86638 6.6712 2.06381 4.3869 2.06381C1.97281 2.06381 0 4.04925 0 6.50492V33.0994C0 35.2154 0.830655 37.2009 2.31026 38.7161L14.0433 50.5242V59.4325C14.0433 60.2946 14.7441 61 15.6007 61H28.6316C29.4883 61 30.1891 60.2946 30.1891 59.4325V52.6141C30.1891 45.5606 27.2818 38.7161 22.22 33.857L13.1867 25.2098ZM27.0742 57.8651H17.1582V49.8711C17.1582 49.4531 17.0025 49.0612 16.691 48.7739L4.49073 36.4955C3.5822 35.5812 3.089 34.3794 3.089 33.0994V6.50492C3.089 5.79957 3.66007 5.19872 4.3869 5.19872C5.0618 5.19872 5.60692 5.7212 5.65884 6.40043L7.1644 25.0531C7.1644 25.0792 7.1644 25.1054 7.1644 25.1315C7.13844 25.1837 7.06057 25.236 6.9827 25.3143C6.15204 26.1764 5.71075 27.2737 5.71075 28.4754C5.71075 29.6771 6.20396 30.7743 7.03461 31.6103L15.9382 40.3619C16.5612 40.9627 17.5476 40.9627 18.1446 40.3358C18.7417 39.7088 18.7417 38.7161 18.1187 38.1152L9.21508 29.3636C8.9555 29.1285 8.82571 28.7889 8.82571 28.4493C8.82571 28.1096 8.9555 27.77 9.18912 27.5088C9.68232 27.0124 10.513 26.9863 11.0062 27.4827L20.0136 36.1298C24.4784 40.4141 27.0222 46.4227 27.0222 52.6403V57.8651H27.0742ZM58.6131 2.06381C56.3288 2.06381 54.4079 3.84026 54.2262 6.13919L52.7726 23.982C51.7083 24.0081 50.644 24.4 49.8134 25.1837L40.8059 33.8308C35.7441 38.6899 32.8368 45.5345 32.8368 52.588V59.4064C32.8368 60.2685 33.5377 60.9739 34.3943 60.9739H47.4252C48.2818 60.9739 48.9827 60.2685 48.9827 59.4064V50.4981L60.7157 38.6899C62.1953 37.2009 63.026 35.1893 63.026 33.0732V6.50492C63 4.04925 61.0272 2.06381 58.6131 2.06381ZM59.885 33.0994C59.885 34.3794 59.3918 35.5812 58.4833 36.4955L46.2831 48.7739C45.9975 49.0612 45.8158 49.4531 45.8158 49.8711V57.8651H35.8999V52.6141C35.8999 46.4227 38.4697 40.388 42.9085 36.1298L51.9159 27.4827C52.4351 26.9863 53.2398 27.0124 53.733 27.5088C53.9666 27.77 54.1224 28.0835 54.0964 28.4493C54.0964 28.7889 53.9666 29.1285 53.707 29.3636L44.8035 38.1152C44.1805 38.7161 44.1805 39.7088 44.7775 40.3358C45.3745 40.9627 46.3609 40.9627 46.9839 40.3619L55.8875 31.6103C56.7441 30.7743 57.2114 29.6771 57.2114 28.4754C57.2114 27.2737 56.7701 26.1764 55.9394 25.3143C55.8616 25.236 55.8096 25.1837 55.7318 25.1054C55.7318 25.0792 55.7318 25.0531 55.7318 25.027L57.2373 6.40043C57.2892 5.7212 57.8603 5.19872 58.5093 5.19872C59.2101 5.19872 59.8072 5.77345 59.8072 6.50492V33.0994H59.885ZM48.0223 3.29165C45.9197 1.17559 43.1162 0 40.157 0C37.1978 0 34.3943 1.17559 32.2917 3.29165L31.487 4.07537L30.7083 3.29165C28.6057 1.17559 25.8282 0 22.843 0C19.8578 0 17.0803 1.17559 14.9778 3.29165C10.6428 7.65439 10.6428 14.7602 14.9778 19.1229L30.293 34.5362C30.5006 34.7452 30.8121 34.8758 31.1236 34.9281C31.2794 34.9803 31.4351 35.0064 31.6168 35.0064C32.0321 35.0064 32.4215 34.8497 32.707 34.5362L48.0223 19.1229C52.3572 14.734 52.3572 7.65439 48.0223 3.29165ZM31.513 31.2968L17.1842 16.9024C14.0692 13.7675 14.0692 8.64711 17.1842 5.51221C18.6897 3.97088 20.7145 3.1349 22.843 3.1349C24.9716 3.1349 26.9963 3.97088 28.5019 5.48608L30.3968 7.39315C30.6823 7.68051 31.0977 7.86338 31.487 7.86338C31.8764 7.86338 32.2917 7.70664 32.5773 7.39315L34.4722 5.48608C37.5871 2.35118 42.6749 2.35118 45.7899 5.48608C48.9048 8.62099 48.9048 13.7413 45.7899 16.8762L31.513 31.2968Z" fill="#729EFC"/>
</svg>
