<svg width="64" height="64" viewBox="0 0 64 64" fill="none" xmlns="http://www.w3.org/2000/svg">
<path d="M62.9528 16.976C61.0404 16.2687 58.7612 16.0329 56.3248 16.2687C55.3294 14.4873 54.1243 12.8107 52.6572 11.3436C51.1902 9.87657 49.5135 8.6715 47.7321 7.676C47.9679 5.21345 47.7321 2.96048 47.0248 1.02188C46.789 0.366952 46.1079 -0.0784021 45.4268 0.000189838C42.2307 0.262163 38.0129 2.51513 34.6335 4.92528C34.5811 4.92528 34.5287 4.89908 34.4763 4.89908C29.0273 5.47542 23.9974 8.01656 20.3036 12.0509L5.63307 28.0837C-2.12133 36.5716 -1.83316 49.5655 6.28801 57.7128C10.4796 61.9044 15.9548 64.0002 21.43 64.0002C26.5909 64.0002 31.778 62.1402 35.891 58.3678L51.9237 43.6973C56.0105 39.9511 58.5516 34.8426 59.0756 29.3412C61.4857 25.9617 63.7125 21.7701 63.9745 18.5741C64.0531 17.8667 63.6339 17.2118 62.9528 16.976ZM47.182 11.0031C48.3347 11.7366 49.4612 12.5749 50.4305 13.5704C51.426 14.5659 52.2381 15.6662 52.9978 16.8451C51.7141 17.1594 50.4043 17.5786 49.0682 18.1287C48.5704 17.5 48.0989 16.9498 47.575 16.4259C47.0772 15.9281 46.5271 15.4304 45.8983 14.9588C46.4485 13.5966 46.8676 12.2867 47.182 11.0031ZM8.51478 55.4861C1.57249 48.5438 1.33672 37.4361 7.96463 30.2057L19.3867 17.7096C16.6359 31.2012 17.6838 46.7886 22.3208 60.8041C17.3433 61.0399 12.3134 59.2847 8.51478 55.4861ZM33.7952 56.0362C31.3588 58.263 28.4771 59.7038 25.4906 60.385C23.2639 53.8094 21.8754 46.8672 21.3253 39.9511C28.189 43.7497 36.8341 46.0026 44.4051 46.0026C44.5361 46.0026 44.6671 46.0026 44.798 45.9764L33.7952 56.0362ZM49.8017 41.3657L48.5181 42.5446C40.0825 43.7235 28.9487 41.1037 21.0633 36.1001C20.8013 28.1099 21.6396 20.2769 23.7092 13.256C23.7354 13.1774 23.7092 13.125 23.7354 13.0464C25.4906 11.396 27.534 10.1123 29.7346 9.24784C27.6126 11.7366 26.1194 14.6969 25.4644 17.8929C25.3858 18.2073 25.3334 18.5217 25.281 18.836L25.2025 19.2814C25.1763 19.4386 25.1239 19.5958 25.1239 19.7792C25.1239 19.8577 25.1239 19.9363 25.1239 20.0411C24.6785 24.5995 26.7219 29.6031 30.5729 33.4541C34.0833 36.9646 38.5631 38.9556 42.6499 38.9556C43.0428 38.9556 43.4096 38.9294 43.7763 38.9032C43.8811 38.9294 44.1431 38.9294 44.2479 38.9032C44.5623 38.877 44.8766 38.7984 45.2172 38.7198L45.7935 38.5888C49.173 37.9339 52.2119 36.4144 54.7268 34.2663C53.6527 36.9384 51.9761 39.3747 49.8017 41.3657ZM53.6003 31.0702C51.3212 33.3232 48.4133 34.8688 45.0076 35.5237L44.4837 35.6285C44.2741 35.6809 44.0645 35.7333 44.0383 35.7333C43.9335 35.7333 43.6977 35.7071 43.593 35.7333C39.9253 36.0739 35.9172 34.371 32.7473 31.2012C29.5774 28.0313 27.8484 23.8397 28.2151 20.2507C28.2151 20.1197 28.2413 20.0935 28.2413 19.9887C28.2675 19.8577 28.2937 19.7268 28.3199 19.6482L28.3723 19.3338C28.3985 19.1504 28.4247 18.967 28.5033 18.6789C29.1583 15.4828 30.6777 12.6273 32.9045 10.3743C35.7338 7.54501 40.8946 4.24415 44.4313 3.35344C45.0862 6.47092 44.4313 10.6363 42.5451 14.8017C42.2307 15.4828 42.4665 16.2949 43.069 16.7403C43.9597 17.369 44.6932 17.9977 45.3482 18.6265C46.0031 19.2814 46.6319 20.0411 47.2606 20.9318C47.7059 21.5344 48.4919 21.7701 49.1992 21.4558C53.3646 19.5696 57.5299 18.8884 60.6474 19.5696C59.7305 23.08 56.4558 28.2409 53.6003 31.0702ZM36.5197 20.0149C36.9912 19.5434 37.2794 18.8884 37.2794 18.2073C37.2794 17.5262 37.0174 16.8974 36.5459 16.3997C35.5766 15.4304 33.9 15.4304 32.9569 16.3997C32.4853 16.8713 32.1971 17.5262 32.1971 18.2073C32.1971 18.8884 32.4591 19.5172 32.9307 20.0149C33.4022 20.4865 34.0571 20.7746 34.7383 20.7746C35.3932 20.7484 36.0219 20.4865 36.5197 20.0149ZM35.236 25.1758C34.7645 25.6473 34.4763 26.3023 34.4763 26.9834C34.4763 27.6645 34.7383 28.2933 35.236 28.791C35.7076 29.2626 36.3625 29.5507 37.0436 29.5507C37.7248 29.5507 38.3535 29.2888 38.8513 28.791C39.3228 28.3195 39.611 27.6645 39.611 26.9834C39.611 26.3023 39.349 25.6735 38.8513 25.1758C37.8296 24.1803 36.2315 24.1803 35.236 25.1758ZM43.9859 27.4812C43.5144 27.9527 43.2262 28.6076 43.2262 29.2888C43.2262 29.9699 43.4882 30.5986 43.9859 31.0964C44.4575 31.5679 45.1124 31.8561 45.7935 31.8561C46.4747 31.8561 47.1034 31.5941 47.6011 31.0964C48.5966 30.1009 48.5966 28.5028 47.6011 27.5074C46.6318 26.5119 44.9552 26.5119 43.9859 27.4812Z" fill="white"/>
</svg>
