<svg width="68" height="62" viewBox="0 0 68 62" fill="none" xmlns="http://www.w3.org/2000/svg">
<path d="M33.9167 0C13.3056 0 0 11.2752 0 28.6981V29.2219C0 35.2592 4.55556 40.1939 10.4167 40.9658C11.6111 52.7648 21.6667 62 33.8333 62C46.0278 62 56.0556 52.7648 57.25 40.9933C63.1944 40.2766 67.8055 35.3144 67.8055 29.2219V28.6981C67.8333 11.2752 54.5278 0 33.9167 0ZM64.5 29.2219C64.5 33.4398 61.4167 36.9409 57.3889 37.6576V21.1169C57.3889 20.2072 56.6389 19.4629 55.7222 19.4629C54.8056 19.4629 54.0555 20.2072 54.0555 21.1169V38.6225C54.0555 49.6772 45 58.6919 33.8333 58.6919C22.6667 58.6919 13.6111 49.6772 13.6111 38.6225V21.1169C13.6111 20.2072 12.8611 19.4629 11.9444 19.4629C11.0278 19.4629 10.2778 20.2072 10.2778 21.1169V37.6301C6.33333 36.8582 3.33333 33.3846 3.33333 29.2219V28.6981C3.33333 13.0396 15.0556 3.30814 33.9167 3.30814C52.7778 3.30814 64.5 13.0396 64.5 28.6981V29.2219ZM33.75 41.1863C30.2778 41.1863 25.9722 41.1863 25.9722 44.4117C25.9722 46.4518 27.5278 48.3539 30.6111 50.1183C31.1389 50.4215 31.6667 50.6145 32.2222 50.7523V54.088C32.2222 54.9978 32.9722 55.7421 33.8889 55.7421C34.8056 55.7421 35.5556 54.9978 35.5556 54.088V50.6696C36.0278 50.5318 36.4722 50.3664 36.8889 50.1183C39.9722 48.3539 41.5278 46.4518 41.5278 44.4117C41.5556 41.1863 37.2222 41.1863 33.75 41.1863ZM35.25 47.2512C34.3333 47.775 33.1944 47.775 32.2778 47.2512C30.5278 46.2312 29.6667 45.349 29.3889 44.7701C30.3889 44.4669 32.7778 44.4669 33.75 44.4669C34.7222 44.4669 37.1111 44.4669 38.1111 44.7701C37.8611 45.3766 37 46.2588 35.25 47.2512ZM29.4444 33.4122C29.4444 29.4424 26.7222 26.1894 23.3889 26.1894C20.0556 26.1894 17.3333 29.4149 17.3333 33.4122C17.3333 34.763 18.1944 35.9484 19.6667 36.6376C20.6667 37.1063 22 37.382 23.3889 37.382C27 37.3544 29.4444 35.783 29.4444 33.4122ZM23.3889 34.0462C21.75 34.0462 20.7778 33.55 20.6667 33.3846C20.6667 31.2619 21.9167 29.47 23.3889 29.47C24.8611 29.47 26.1111 31.2343 26.1111 33.3295C25.9167 33.5776 24.9722 34.0462 23.3889 34.0462ZM44.3056 26.1894C40.9722 26.1894 38.25 29.4149 38.25 33.4122C38.25 34.763 39.1111 35.9484 40.5833 36.6376C41.5833 37.1063 42.9167 37.382 44.3056 37.382C47.9444 37.382 50.3611 35.783 50.3611 33.4122C50.3611 29.4149 47.6389 26.1894 44.3056 26.1894ZM44.3056 34.0462C42.6667 34.0462 41.6944 33.55 41.5833 33.3846C41.5833 31.2619 42.8333 29.47 44.3056 29.47C45.7778 29.47 47.0278 31.2343 47.0278 33.3295C46.8611 33.5776 45.8889 34.0462 44.3056 34.0462Z" fill="white"/>
</svg>
