<svg width="65" height="62" viewBox="0 0 65 62" fill="none" xmlns="http://www.w3.org/2000/svg">
<path d="M57.9086 39.9561L64.9215 18.3307C65.0785 17.86 65 17.337 64.686 16.9186C64.372 16.5002 63.9271 16.2649 63.4038 16.2649H53.5386V14.9051C53.5386 11.0089 52.1256 3.9224 49.4827 0.810628C49.0378 0.261493 48.279 0.104597 47.6248 0.39224C44.4847 1.83045 41.6848 5.12526 39.7746 9.51835C38.5447 9.3876 37.4195 9.3876 36.1634 9.51835C34.2532 5.12526 31.4533 1.83045 28.3132 0.39224C27.6852 0.104597 26.9263 0.261493 26.4553 0.810628C23.8647 3.9224 22.4517 11.0089 22.4517 14.9051V16.291H13.7379L8.81844 1.09827C8.6091 0.444538 8.00725 0 7.32689 0H1.57005C0.706522 0 0 0.706031 0 1.56896C0 2.43189 0.706522 3.13792 1.57005 3.13792H6.17552L21.0648 48.9776C18.3957 49.8667 16.4593 52.3509 16.4593 55.3058C16.4593 58.9928 19.4686 62 23.1582 62C26.8478 62 29.8571 58.9928 29.8571 55.3058C29.8571 53.9983 29.4646 52.7954 28.8104 51.7495H46.0809C45.4267 52.7693 45.0342 53.9983 45.0342 55.3058C45.0342 58.9928 48.0435 62 51.7331 62C55.4227 62 58.432 58.9928 58.432 55.3058C58.432 51.6187 55.4227 48.6116 51.7331 48.6116C51.5761 48.6116 51.4191 48.6377 51.2359 48.6639C51.1574 48.6377 51.0789 48.6116 51.0004 48.6116H24.2311L21.7713 41.0283H56.4171C57.0974 41.0544 57.6993 40.6099 57.9086 39.9561ZM25.5918 14.9051C25.5918 11.558 26.6647 6.58962 28.1824 3.89625C30.3804 5.38676 32.3953 8.26318 33.7299 11.7933C33.9915 12.4994 34.7242 12.9178 35.4569 12.787C37.2886 12.4732 38.7017 12.4732 40.5072 12.787C41.2399 12.9178 41.9726 12.4994 42.2605 11.7933C43.595 8.23703 45.6361 5.38676 47.808 3.8701C49.3257 6.56348 50.3986 11.5318 50.3986 14.879V16.2649H25.5918V14.9051ZM26.6908 55.3058C26.6908 57.267 25.0946 58.8621 23.132 58.8621C21.1695 58.8621 19.5733 57.267 19.5733 55.3058C19.5733 53.3446 21.1695 51.7495 23.132 51.7495C25.0946 51.7495 26.6908 53.3446 26.6908 55.3058ZM55.2657 55.3058C55.2657 57.267 53.6695 58.8621 51.7069 58.8621C49.7444 58.8621 48.1481 57.267 48.1481 55.3058C48.1481 53.3446 49.7444 51.7495 51.7069 51.7495C53.6695 51.7495 55.2657 53.3446 55.2657 55.3058ZM20.7508 37.9165L14.7585 19.4289H61.2581L55.2657 37.9165H20.7508Z" fill="#729EFC"/>
</svg>
