<svg width="64" height="56" viewBox="0 0 64 56" fill="none" xmlns="http://www.w3.org/2000/svg">
<g clip-path="url(#clip0_705_1851)">
<path d="M32.1588 56C31.9746 56 31.8167 55.9737 31.6588 55.9211C31.2904 55.9211 30.9483 55.7895 30.6851 55.5263L5.10619 29.9474C-1.73592 23.1053 -1.73592 11.9737 5.10619 5.13158C11.9483 -1.71053 23.0799 -1.71053 29.922 5.13158L31.9746 7.18421L34.0272 5.13158C40.8693 -1.71053 52.0009 -1.71053 58.843 5.13158C65.6851 11.9737 65.6851 23.1053 58.843 29.9474L33.2641 55.5263C33.0009 55.8158 32.5799 56 32.1588 56ZM17.5536 3.15789C13.8693 3.15789 10.1851 4.55263 7.36935 7.36842C1.76408 12.9737 1.76408 22.1053 7.36935 27.7368L32.0009 52.3684L56.6325 27.7368C62.2378 22.1316 62.2378 13 56.6325 7.36842C51.0272 1.76316 41.8957 1.76316 36.2904 7.36842L33.1062 10.5263C32.5009 11.1316 31.4746 11.1316 30.8693 10.5263L27.7115 7.36842C24.922 4.55263 21.2378 3.15789 17.5536 3.15789Z" fill="#729EFC"/>
</g>
<defs>
<clipPath id="clip0_705_1851">
<rect width="64" height="56" fill="white"/>
</clipPath>
</defs>
</svg>
