<svg width="59" height="60" viewBox="0 0 59 60" fill="none" xmlns="http://www.w3.org/2000/svg">
<path d="M55.6945 0.410959C53.8056 -0.388508 51.7222 -0.00255858 50.2222 1.4034L39.8611 11.2451C33.1667 9.92185 25.5833 9.92185 18.8889 11.2451L8.52778 1.4034C7.02778 -0.00255858 4.94444 -0.388508 3.05555 0.410959C1.16666 1.21043 0 2.97476 0 5.01478V30.0464C0 45.8151 12.9167 58.9099 28.8056 59.2131C29 59.2131 29.1667 59.2131 29.3611 59.2131C36.9444 59.2131 44.1667 56.2633 49.6944 50.86C55.4444 45.2362 58.75 37.4621 58.75 29.495V5.01478C58.75 2.97476 57.5833 1.21043 55.6945 0.410959ZM55.4167 29.495C55.4167 36.5799 52.4722 43.4994 47.3333 48.4892C42.3056 53.3963 35.6944 55.9877 28.8333 55.8774C14.75 55.6017 3.27778 44.0232 3.27778 30.0188V5.01478C3.27778 3.96721 4.08333 3.55369 4.30555 3.44342C4.47222 3.38828 4.75 3.30558 5.05555 3.30558C5.38889 3.30558 5.80556 3.41585 6.22223 3.77423L17 13.9743L17.4722 14.3327C17.8611 14.6084 18.3333 14.7187 18.8056 14.6084C25.4722 13.1749 33.1667 13.1473 39.8333 14.5808C40.25 14.6635 40.6667 14.6084 41.0278 14.3878L41.6111 14.057C41.7222 14.0019 41.8333 13.9192 41.9167 13.8365L52.5278 3.77423C53.2778 3.05747 54.1389 3.33315 54.3889 3.44342C54.6389 3.55369 55.4167 3.96721 55.4167 5.01478V29.495ZM29.5556 37.2691C26.5833 37.2691 22.8889 37.2691 22.8889 40.1086C22.8889 41.8178 24.2222 43.3892 26.8889 44.7951C27.25 44.9881 27.6111 45.0984 28 45.2086V49.9503C28 50.86 28.75 51.6044 29.6667 51.6044C30.5833 51.6044 31.3333 50.86 31.3333 49.9503V45.1259C31.6389 45.0157 31.9722 44.933 32.25 44.7676C34.8889 43.3616 36.25 41.7902 36.25 40.081C36.2222 37.2691 32.5278 37.2691 29.5556 37.2691ZM30.6667 41.8729C29.9722 42.2313 29.1389 42.2313 28.4444 41.8729C27.5556 41.4043 27 40.9908 26.6667 40.66C27.5833 40.5497 28.9444 40.5497 29.5556 40.5497C30.1667 40.5497 31.5278 40.5497 32.4444 40.66C32.1111 40.9908 31.5556 41.4043 30.6667 41.8729ZM16.9444 24.2571C13.6111 24.2571 10.8889 27.4825 10.8889 31.4799C10.8889 32.8307 11.75 34.0161 13.2222 34.7053C14.25 35.174 15.5556 35.4496 16.9444 35.4496C20.5833 35.4496 23 33.8507 23 31.4799C23 27.5101 20.2778 24.2571 16.9444 24.2571ZM16.9444 32.1415C15.3056 32.1415 14.3333 31.6453 14.2222 31.4799C14.2222 29.3572 15.4722 27.5653 16.9444 27.5653C18.4167 27.5653 19.6667 29.3296 19.6667 31.4247C19.5 31.6729 18.5278 32.1415 16.9444 32.1415ZM41.8056 24.2571C38.4722 24.2571 35.75 27.4825 35.75 31.4799C35.75 32.8307 36.6111 34.0161 38.0833 34.7053C39.1111 35.174 40.4167 35.4496 41.8056 35.4496C45.4445 35.4496 47.8611 33.8507 47.8611 31.4799C47.8611 27.5101 45.1389 24.2571 41.8056 24.2571ZM41.8056 32.1415C40.1667 32.1415 39.1944 31.6453 39.0833 31.4799C39.0833 29.3572 40.3333 27.5653 41.8056 27.5653C43.2778 27.5653 44.5278 29.3296 44.5278 31.4247C44.3611 31.6729 43.3889 32.1415 41.8056 32.1415Z" fill="white"/>
</svg>
