<?xml version="1.0" encoding="utf-8"?>
<!-- Generator: Adobe Illustrator 23.1.0, SVG Export Plug-In . SVG Version: 6.00 Build 0)  -->
<svg version="1.1" id="Layer_1" xmlns="http://www.w3.org/2000/svg" xmlns:xlink="http://www.w3.org/1999/xlink" x="0px" y="0px"
	 viewBox="0 0 497.9 151.1" style="enable-background:new 0 0 497.9 151.1;" xml:space="preserve">
<style type="text/css">
	.st0{fill:#FFFFFF;}
	.st1{fill:#333232;}
	.st2{fill:#729EFC;}
	.st3{fill:#ED1C24;}
	.st4{fill:#394E7D;}
</style>
<g>
	<g>
		<path class="st0" d="M180.4,111.2 M177.9,109.8 M176.7,106.3c-0.1,0-0.1,0-0.2,0c0-0.1,0-0.1,0-0.2
			C176.6,106.1,176.6,106.2,176.7,106.3z M133.1,32.4c-0.1,0-0.2,0.1-0.2,0.2c-0.2,0-0.4,0-0.6,0C132.6,32.5,132.8,32.5,133.1,32.4z
			 M134.8,32.2c0,0.1,0,0.1,0,0.2c-0.2,0-0.3-0.1-0.5-0.1C134.5,32.2,134.7,32.2,134.8,32.2z M142.2,30.2
			C142.2,30.2,142.3,30.2,142.2,30.2c-0.1,0.1-0.1,0.2-0.2,0.3C142.1,30.4,142.2,30.3,142.2,30.2z M146.7,107.1
			c0.3,0.6,0.7,1.1,1,1.6c-0.1-0.1-0.2-0.2-0.3-0.3c0-0.1-0.1-0.2-0.2-0.3c-0.2-0.2-0.3-0.5-0.5-0.7
			C146.8,107.3,146.7,107.2,146.7,107.1z M138.6,110.2c0,0,0,0.1,0,0.1c0,0-0.1,0-0.1,0.1C138.5,110.3,138.6,110.2,138.6,110.2z
			 M186.3,111.5c0-0.3-0.2-0.6-0.4-0.8c0-0.2-0.1-0.3-0.1-0.6c0-0.1,0-0.2,0-0.3c-0.2-1-0.6-2.1-1.1-3c0-0.2,0-0.4-0.1-0.6
			c-1.2-2-2.8-3.6-4.8-4.9c-0.4-0.3-0.9-0.2-1.2,0.1c-0.1-0.1-0.2-0.1-0.3-0.2c-0.3-0.2-0.5-0.4-0.8-0.6c0,0,0,0,0,0
			c0.9-5.4,1.3-11,1.4-16.5c0-1,0-2.1,0-3.1c0.1-1.8,0.1-3.6,0.1-5.5c0.4-0.2,0.8-0.4,1.1-0.7c0.6-0.6,0.9-1.4,0.9-2.3
			c0.5-5-1.2-9.7-2.2-14.6c0,0,0-0.1,0-0.2c0.3-0.2,0.6-0.5,0.5-0.9c-0.3-2.5-0.6-5.2-1-7.7c-0.4-2.3-1.2-4.5-2.7-6.4
			c-0.3-0.3-0.7-0.4-1.1-0.3c-0.2-0.4-0.5-0.9-0.7-1.3c-0.3-0.5-0.7-0.9-1.2-1.2c-1.4-2.7-3.1-5.2-5.1-7.5c-0.9-1.1-1.9-2.1-2.9-3.1
			c-2.1-2.4-4.3-4.7-6.6-6.9c-0.5-0.4-1.1-0.3-1.5,0c-0.7-0.8-1.5-1.5-2.3-2.2c-0.9-0.8-2.3-1.2-3.4-0.7c-0.3-0.2-0.8-0.3-1.2-0.4
			c0.2-0.3,0.3-0.7,0.5-1.1c0.1-0.3,0.2-0.5,0.1-0.8c-0.1-0.3-0.3-0.5-0.5-0.6c-0.3-0.1-0.6-0.2-0.8-0.1c-0.3,0.1-0.5,0.3-0.6,0.5
			c-0.4,0.9-0.9,1.8-1.3,2.7c-3.3,1.2-6.6,2.8-9,5.4c-1.3,1.4-2.4,3.1-2.9,5c-0.1-0.1-0.3-0.1-0.5-0.1c-0.1-0.1-0.2-0.1-0.3-0.2
			c-0.5-0.1-0.9-0.1-1.4-0.1c-0.2-0.1-0.4-0.2-0.6-0.2c-1.7,0-3.3,0.5-4.9,1.3c-0.1,0-0.2,0.1-0.3,0.2c-1.2,0.2-2.4,0.3-3.5,0.5
			c-0.3,0-0.6,0.2-0.8,0.4c-0.2-0.1-0.5-0.3-0.7-0.3c-0.9-0.2-1.8,0.6-1.5,1.5c0.2,0.7,0.9,1,1.5,0.9c0.2,0.2,0.5,0.3,0.6,0.5
			c0.5,0.3,0.9,0.6,1.5,0.8c0.6,0.3,1.2,0.6,1.8,0.8c0.1,0.1,0.2,0.3,0.3,0.4c0.8,0.6,1.6,0.9,2.5,1.2c0.5,0.2,1,0.3,1.5,0.4
			c0,0.3,0.3,0.7,0.6,0.9c0.2,0.1,0.5,0.2,0.7,0.2c0.9,0.1,1.8,0.3,2.6,0.4c0.3,0,0.6,0,0.8-0.1c0,0,0.1,0,0.1-0.1
			c1.5,3.3,3,6.5,4.8,9.7c0.2,1.5,0.2,3,0,4.5c-0.3,1.6-0.7,3.2-0.9,4.8c-0.3,0-0.6,0.2-0.8,0.5c-0.6,1.4-0.5,2.8-0.3,4.3
			c0.2,1.5,0.5,3,1.2,4.3c0.2,0.3,0.3,0.4,0.6,0.5c0.1,1.1,0,2.2-0.1,3.4c-0.4,2.7-1.2,5.3-2,7.9c-0.9,2.9-1.5,5.8-1.9,8.8
			c-0.2,1.3-0.3,2.6-0.3,3.9c-0.1,0.1-0.2,0.3-0.3,0.4c-0.8,4.8-0.1,9.7,2,14c0,0.2,0.1,0.4,0.2,0.6c-1.2,0.6-2.2,1.7-2.7,3
			c-0.4,0.9-0.6,1.9-0.6,2.9c-0.4,0.3-0.6,0.7-0.5,1.2c0.6,3.4,0.9,6.7,0.9,10.1c-0.3,0.6-0.7,1.3-1.1,1.9c-1,1.7-1.9,3.4-2,5.4
			c0,0.4,0.2,0.7,0.5,0.9c-0.2,0.1-0.3,0.3-0.4,0.6c0,0.1,0,0.1,0,0.2c-0.2,1,0.1,2.1,0.9,2.8c0.1,0.3,0.2,0.5,0.3,0.7
			c0.3,0.6,1.2,0.8,1.7,0.2c0,0,0-0.1,0.1-0.1c0.5,0,1-0.3,1.1-1c0.2-2.2,0.8-4.5,1.5-6.6c0,0,0.1-0.1,0.2-0.2
			c1-1.3,1.8-2.7,2.3-4.2c0.9-0.9,1.6-1.9,2.2-3c0.1-0.1,0.2-0.2,0.3-0.3c0.6-0.5,1-1,1.5-1.6c0.6-0.9,1.2-1.8,1.7-2.7c0,0,0,0,0,0
			c0.4,0.4,0.9,0.9,1.4,1.2c1,0.7,2.2,1.2,3.4,1.4c1.4,0.2,2.8,0.3,4.2,0.4c1.5,0,3,0,4.4-0.4c0.3-0.1,0.6-0.3,0.6-0.6
			c0.1,0,0.2,0,0.3,0c0.8-0.2,1.6-0.4,2.4-0.7c0.3-0.1,0.5-0.2,0.8-0.3c0.8,4.4,0.6,8.8-0.6,13.1c-0.9,1.7-1.9,3.4-2.8,5.1
			c-0.6,1.1-1.2,2.3-1.6,3.5c-0.2,0.6-0.5,1.3-0.5,1.9c0,0,0,0.1,0,0.1c-0.2,0.8-0.3,1.6,0,2.4c0.5,1.2,1.7,2,2.9,1.8
			c1.4-0.3,1.9-1.7,2-3c0.2-0.3,0.3-0.7,0.4-1.1c1.2-2.9,2-5.9,2.9-8.9c0.5-1.8,1.1-3.5,1.9-5.2c1-0.9,2-1.9,3-2.8
			c0.8-0.2,1.6-0.7,2-1.5c0.1-0.2,0.3-0.5,0.4-0.7c3-2.4,3.3-6.8,2.9-10.3c0,0,0-0.1,0-0.2c0-0.5-0.1-1-0.3-1.5v0
			c0.2-0.3,0.4-0.6,0.5-1c0.1-0.3,0.1-0.6,0.2-0.9c0,0,0.1,0,0.1,0c0.5,0.1,1,0.3,1.5,0.4c0.1,0,0.3,0.1,0.4,0.2c0,0,0,0,0,0
			c0,0,0.1,0,0.1,0.1c0.3,0.1,0.5,0.2,0.7,0.3c0.5,0.3,0.9,0.5,1.3,0.8c0.1,0.1,0.2,0.1,0.3,0.2c0,0,0,0,0,0c0,0,0.1,0.1,0.1,0.1
			c0.1,0,0.1,0.1,0.2,0.2c0.3,0.4,0.7,0.8,1.1,1.2c0.5,1,0.4,2.2,0,3.1c-0.9,1.8-2.9,2.7-4.8,2.8c-0.8,0.1-1.4,0.9-0.9,1.6
			c1.1,1.9,3.5,2.3,5.3,1.5c0.5-0.2,0.9-0.5,1.3-0.9c0.1,0,0.3,0,0.4-0.1c1.4-1,2.2-2.4,2.7-4C186.3,115.1,186.3,113.3,186.3,111.5z
			"/>
		<path class="st0" d="M126.8,67.1c-1.7-14.4-11.1-34-27.9-34.1c-2.5-7.4-7.6-12.8-15.3-14.2c-14.9-5.9-43.2,7.1-40.6,23.9
			c8.9,0.3,10.8-14.3,20.4-16.3C72,20.5,97.1,31.1,83,39.3c-12.1,12.2-8,29.6,0.5,42.7c1.2,6.2-2.5,11.2,2.9,15.7
			c-24.9,32.7,16.4,46.1,16.2,29.4c0.6,0.9,1.7,1.7,2.9,1.6c7.5,7.7,16.8-5.7,15.8-13.4C119.8,99.3,128.9,83.6,126.8,67.1z M95,95.3
			c-0.1,1.2-1.3,0.5-2,1c-1.5-2,1.3-0.8,2.3-1.7C95.2,94.8,95.1,95,95,95.3z M99.8,90.7c0.4-1.7,0.4-3.5,0-5.2
			C101.7,86.7,101.1,89.3,99.8,90.7z M109.8,92.6c-1.1-2.2-2.4-3.2,0.3-4.6C111.3,89.2,109.9,91.1,109.8,92.6z"/>
		<path class="st1" d="M180.3,56.2c-0.1-3.4-0.5-6.9-1.6-10c-1-2.8-2.9-6.3-6.2-6.6c-3.3-0.3-5.9,2.6-6.5,5.6
			c-0.4,1.7-0.3,3.4-0.1,5.1c0.2,1.6,0.6,3.4,1.9,4.5c1.5,1.2,3.5,1.3,4.8-0.2c1.2-1.5,1.6-3.6,1.5-5.5c0-0.5-0.4-1-1-1
			c-0.5,0-1,0.5-1,1c0.1,1.3-0.1,2.8-0.8,3.9c-0.6,0.9-1.5,0.9-2.3,0.3c-0.9-0.8-1.1-2.2-1.2-3.4c-0.2-1.4-0.2-2.8,0.1-4.2
			c0.5-2.1,2.2-4.4,4.6-4.1c2.4,0.3,3.7,3.3,4.4,5.3c1.1,3,1.4,6.2,1.5,9.4C178.3,57.4,180.3,57.4,180.3,56.2z"/>
		<path class="st1" d="M140.8,114.3c3,4.5,8.1,7.3,13.5,7.6c1.5,0.1,3-0.1,4.5-0.4c1.2-0.3,0.7-2.2-0.5-1.9c-4.5,1.1-9.5-0.2-13-3.2
			c-1-0.9-1.9-1.9-2.7-3C141.9,112.3,140.1,113.3,140.8,114.3z"/>
		<path class="st1" d="M134.7,106.8c0-0.2-0.1,0.1-0.1,0.2c-0.1,0.2-0.2,0.3-0.3,0.5c-0.2,0.3-0.5,0.6-0.6,0.9
			c-0.4,0.7-0.8,1.5-1,2.3c-0.5,1.6-0.6,3.2-0.4,4.8c0.2,1.7,0.8,3.3,0.9,5c0.2,1.6-0.2,3.2-0.7,4.7c-1.2,3.1-3,6.1-2.6,9.5
			c0.2,1.6,0.9,3.3,2.4,4c1.4,0.6,3,0,3.9-1c1.3-1.4,1.4-3.4,1.5-5.3c0-1.3,0-3.1,1.2-4c0.4-0.3,0.6-0.9,0.3-1.4
			c-0.3-0.4-0.9-0.6-1.4-0.3c-1.2,0.8-1.8,2.1-2.1,3.5c-0.3,1.5,0,3.1-0.4,4.6c-0.2,0.9-1,2.2-2.1,2.2c-1.1-0.1-1.5-1.9-1.6-2.8
			c-0.2-3.1,1.7-6,2.7-8.8c0.6-1.5,0.8-3.1,0.7-4.7c-0.2-1.6-0.6-3.2-0.9-4.8c-0.3-1.7-0.2-3.3,0.4-5c0.3-0.7,0.7-1.5,1.2-2.1
			c0.6-0.8,1-1.5,0.9-2.5c-0.1-0.5-0.8-0.8-1.2-0.7C134.7,105.7,134.6,106.2,134.7,106.8z"/>
		<path class="st1" d="M138.9,55.7c-1.7,1.8-2.5,4.4-2.4,6.9c0.2,2.7,1.4,5.2,3.1,7.3c1.5,1.9,3.8,3.9,6.4,3.2
			c2.1-0.6,3.6-3,3.1-5.2c-0.3-1.4-1.3-2.3-2.2-3.4c-0.5-0.6-1.2-1.9-0.6-2.3c0.4-0.3,0.6-0.9,0.3-1.4c-0.3-0.4-0.9-0.7-1.4-0.3
			c-0.9,0.7-1.3,1.7-1.2,2.8c0.2,1.1,0.8,2,1.5,2.8c0.6,0.6,1.3,1.4,1.5,2.2c0.1,0.7-0.2,1.5-0.7,2c-1.5,1.6-3.4,0.3-4.7-0.9
			c-1.5-1.6-2.8-3.7-3.3-5.9c-0.5-2.2,0-4.8,1.6-6.5C141.1,56.2,139.8,54.8,138.9,55.7z"/>
		<path class="st1" d="M161.8,25.4c0.7-0.6,0.2-1.6-0.6-1.9c-0.9-0.3-1.7,0.7-1.4,1.6c0.2,0.7,1.1,1.2,1.6,1.6
			c0.6,0.5,1.1,0.9,1.7,1.5c2.2,2,4.3,4.2,6.1,6.6c1,1.3,2,2.7,2.8,4.1c0.7,1.1,2.4,0.1,1.7-1c-1.6-2.6-3.5-5.1-5.6-7.4
			c-1-1.1-2.1-2.2-3.2-3.2c-0.6-0.5-1.1-1-1.7-1.5c-0.3-0.3-0.6-0.5-0.9-0.8c-0.1-0.1-0.3-0.2-0.4-0.3c-0.1-0.1-0.2-0.1-0.3-0.2
			c-0.1-0.1-0.1-0.1,0,0c0,0.2,0,0.3,0,0.5c0,0,0-0.1,0-0.1c-0.1,0.1-0.2,0.3-0.3,0.4l0,0c-0.1,0.1-0.3,0.2-0.4,0.3
			c-0.2,0-0.3,0-0.5,0c-0.1-0.1-0.3-0.3-0.3-0.3l0,0c0-0.2-0.1-0.3-0.1-0.5v0c0.1-0.2,0.2-0.5,0.3-0.7l0,0c-0.4,0.3-0.3,1,0,1.4
			C160.8,25.8,161.4,25.8,161.8,25.4z"/>
		<path class="st1" d="M144.9,19.2c-5.2,2.6-11.5,6.1-12.6,12.5c-0.8,5.2,2.2,9.8,4.4,14.3c1.2,2.4,2.1,5,1.9,7.7c0,0.5,0.5,1,1,1
			c0.6,0,0.9-0.5,1-1c0.3-5-2.7-9.4-4.8-13.8c-0.9-2-1.8-4.2-1.7-6.5c0-2.6,1.3-5,3.1-6.9c2.4-2.5,5.5-4.1,8.6-5.6
			C147.1,20.4,146.1,18.7,144.9,19.2z"/>
		<path class="st1" d="M132.2,28c-4,0.9-8.1,1.8-12.1,2.7c-0.3,0.1-0.6,0.4-0.7,0.7c-0.5,1.7,0.8,3.1,2,4.2c1.2,1,2.4,1.9,3.7,2.7
			c2.7,1.6,5.7,2.5,8.8,2.8c0.5,0,1-0.5,1-1c0-0.6-0.5-0.9-1-1c-2.6-0.3-5.1-1.1-7.4-2.3c-1.1-0.6-2.2-1.3-3.2-2.1
			c-0.5-0.4-1-0.9-1.5-1.3c-0.3-0.4-0.8-0.9-0.6-1.4c-0.2,0.2-0.5,0.5-0.7,0.7c4-0.9,8.1-1.8,12.1-2.7C134,29.6,133.5,27.6,132.2,28
			z"/>
		<path class="st1" d="M141.4,36c0.3,0,0.5,0,0.8-0.1c-0.2-0.6-0.5-1.1-0.7-1.7c-0.1,0.1,0,0,0.1-0.1c0,0,0.1,0,0.2,0
			c-0.2,0,0.3,0,0.1,0s0.3,0,0.1,0c-0.2,0,0.2,0.1,0,0c-0.2-0.1,0,0,0,0c0,0-0.1-0.1-0.1-0.1c0.1,0.1,0.1,0.2,0.1,0.1c0,0,0,0,0-0.1
			c-0.1-0.1,0,0.2,0,0c0-0.2,0,0.3,0,0c0-0.2-0.1,0.3,0,0c0,0,0,0,0-0.1c0-0.1,0,0,0,0.1c0,0,0-0.1,0.1-0.2c0.1-0.2-0.1,0.2,0,0
			c0,0,0.1-0.1,0.1-0.1c0,0,0.1-0.1,0.1-0.1c0,0-0.2,0.2,0,0c0.2-0.2,0.5-0.3,0.7-0.4c0.1,0,0.1-0.1,0.2-0.1c0.2-0.1-0.2,0,0,0
			c0.1,0,0.3-0.1,0.4-0.2c0.6-0.2,1.2-0.3,1.8-0.5c-0.4-0.4-0.8-0.8-1.2-1.2c-0.2,0.7-0.4,1.4-0.6,2.1c-0.1,0.5,0.2,1.1,0.7,1.2
			c0.5,0.1,1.1-0.2,1.2-0.7c0.2-0.7,0.4-1.4,0.6-2.1c0.1-0.3,0-0.7-0.3-0.9c-0.3-0.3-0.6-0.3-0.9-0.3c-0.8,0.1-1.6,0.3-2.3,0.6
			c-0.8,0.3-1.6,0.6-2.1,1.3c-0.3,0.4-0.6,0.9-0.6,1.4c0,0.5,0.2,0.9,0.5,1.3c0.6,0.7,1.7,0.9,2.4,0.2c0.3-0.3,0.3-0.7,0.2-1.1
			c-0.1-0.3-0.5-0.6-0.9-0.6c-0.3,0-0.5,0-0.8,0.1c-0.5,0-1,0.4-1,1C140.4,35.5,140.9,36.1,141.4,36z"/>
		<path class="st1" d="M142.7,35.5c0.4,0.6,0.8,1.2,1.2,1.8c0.1,0.2,0.3,0.4,0.6,0.5c0.3,0.1,0.6,0,0.8-0.1c0.2-0.1,0.4-0.3,0.5-0.6
			c0-0.3,0-0.6-0.1-0.8c-0.4-0.6-0.8-1.2-1.2-1.8c-0.1-0.2-0.3-0.4-0.6-0.5c-0.3-0.1-0.6,0-0.8,0.1c-0.2,0.1-0.4,0.3-0.5,0.6
			C142.5,35,142.5,35.3,142.7,35.5z"/>
		<path class="st1" d="M139,40.7c0.1,0.2,0.1,0.5,0.2,0.7c0.3-0.4,0.6-0.8,0.9-1.3c0.3,0,0.6,0.3,0.7,0.6c0-0.2,0,0.3,0,0.1
			c0,0,0,0.1,0,0.2c0-0.1,0,0,0,0c-0.1,0.2,0.1-0.1,0,0c0,0.1,0,0.1,0,0c0,0-0.1,0-0.1,0.1c0.1,0,0,0,0,0c-0.1,0-0.2,0-0.3,0
			c-0.2,0-0.1,0,0,0c-0.1,0-0.1,0,0,0c0.3,0.1,0.5,0.3,0.8,0.5c0.4,0.2,0.8,0.3,1.2,0.3c1.5,0.1,2.7-1,3.7-2c0.3-0.4,0.4-1,0-1.4
			c-0.4-0.3-1-0.4-1.4,0c-0.3,0.3-0.6,0.6-0.9,0.9c-0.2,0.1,0.1-0.1-0.1,0c-0.1,0-0.2,0.1-0.3,0.2c-0.2,0.1-0.3,0.2-0.5,0.3
			c0.2-0.1,0,0-0.1,0c-0.1,0-0.2,0.1-0.3,0.1c0.1,0,0.1,0,0.1,0c0,0-0.1,0-0.1,0s-0.3,0-0.2,0c0.1,0-0.1,0-0.2,0c0.2,0,0,0,0,0
			c-0.2-0.1-0.3-0.2-0.5-0.3c-0.4-0.3-0.8-0.5-1.3-0.4c-0.5,0-1,0.3-1.2,0.7c-0.5,0.9-0.1,2.1,1,2.2c0.6,0,1.2-0.6,0.9-1.3
			c-0.1-0.2-0.1-0.5-0.2-0.7c-0.2-0.5-0.7-0.9-1.2-0.7C139.2,39.6,138.9,40.1,139,40.7z"/>
		<path class="st1" d="M147.1,38.6c1.7-0.3,3.4-0.7,4.8-1.7c0.7-0.5,1.3-1.1,1.8-1.9c0.2-0.4,0.3-0.9,0.5-1.3c0-0.1,0-0.2,0.1-0.3
			c0.1-0.3-0.1,0.1,0-0.1c0,0,0.1-0.3,0-0.1c0,0,0.1-0.1,0.1-0.1c-0.1,0-0.1,0,0,0c-0.5-0.2-1-0.4-1.5-0.6c0,0.1,0,0.1,0,0
			c0,0.1,0,0.1,0,0.2c0-0.2,0,0.1,0,0.1c0-0.1-0.1,0.1-0.1,0.1c0.1-0.1-0.1,0.1-0.2,0.2c-0.4,0.3-0.3,1,0,1.4c0.4,0.4,1,0.3,1.4,0
			c0.8-0.6,1-1.6,0.8-2.6c-0.1-0.6-0.9-0.9-1.5-0.6c-0.9,0.5-1.1,1.5-1.4,2.4c0,0-0.1,0.3,0,0.1c0,0.1-0.1,0.2-0.1,0.3
			c0,0.1-0.1,0.2-0.1,0.2c0,0-0.1,0.1-0.1,0.1c0-0.1,0-0.1,0,0c-0.1,0.2-0.3,0.3-0.4,0.4c-0.1,0-0.1,0.1-0.2,0.2
			c-0.2,0.1,0.1,0-0.1,0.1c-0.3,0.2-0.6,0.4-1,0.6c0,0-0.3,0.1-0.2,0.1c0.1,0-0.2,0.1-0.2,0.1c-0.2,0.1-0.4,0.1-0.6,0.2
			c-0.8,0.3-1.6,0.4-2.4,0.6c-0.5,0.1-0.8,0.7-0.7,1.2C146,38.5,146.5,38.7,147.1,38.6z"/>
		<path class="st1" d="M151.6,23.2c-0.7-0.7-1.7-1.1-2.7-1c-1,0-1.8,0.4-2.7,0.8c-0.2,0.1-0.3,0.2-0.5,0.4c-0.6,0.2-1.1,0.5-1.5,0.9
			c-0.6,0.6-1,1.5-1,2.4c0,0.3,0,0.5,0.1,0.8c-0.1-0.1-0.3-0.2-0.5-0.1c-1.5,0.4-2.9,1.2-4.2,2.2c0,0-0.1,0.1-0.1,0.2
			c-0.1,0-0.2-0.1-0.3-0.1c0,0,0,0-0.1,0c-0.2-0.1-0.4-0.2-0.6-0.3c-0.5-0.1-1.1-0.1-1.5,0.2c-0.4,0.3-0.9,0.7-1.2,1.1
			s-0.7,0.9-0.9,1.3c-0.5,1-0.8,2.1-0.9,3.2c0,0.7,0.4,1.4,1,1.7c0.6,0.3,1.5,0.4,2,0c0.4-0.3,0.9-0.6,1.3-1
			c0.4-0.4,0.7-0.8,1.1-1.3c0.6-0.8,1-1.6,1.3-2.5c0.2-0.5,0-1.1-0.2-1.6c0,0-0.1-0.1-0.1-0.2c0,0,0.1,0,0.1-0.1
			c1.1-0.9,2.4-1.5,3.7-1.9c0.2-0.1,0.3-0.3,0.3-0.4c0.3,0.5,0.6,1,1.2,1.3c0.9,0.5,1.9,0.3,2.9,0.2c0.6-0.1,1.2-0.2,1.8-0.4
			c0.4-0.1,0.8-0.3,1.2-0.5c0.3-0.1,0.5-0.2,0.8-0.4c0.9-0.6,1.5-1.5,1.4-2.5C152.6,24.7,152.2,23.9,151.6,23.2z"/>
		<path class="st2" d="M158.7,19.9c-0.3-0.2-0.7-0.5-1-0.7c0-0.3,0-0.6,0-0.8c-0.4-1.3-0.9-2.5-1.5-3.8c0-0.3-0.1-0.6-0.3-0.9
			c-1.3-2.2-2.5-4.3-3.8-6.5c-0.5-0.9-1.8-1.3-2.7-0.7c-0.9,0.6-1.3,1.8-0.7,2.7c0.1,0.3,0.3,0.5,0.4,0.7c-0.2,0.2-0.3,0.4-0.3,0.7
			c-0.2,1.4-0.4,2.8-0.6,4.2c0,0.1,0,0.2,0,0.3c-0.2,0.1-0.4,0.2-0.6,0.4c-0.8,0.9-0.7,2,0,2.8c2.6,3.1,6.3,4.9,10.2,5.3
			c0.8,0.1,1.7-0.7,1.9-1.5C159.8,21.2,159.4,20.4,158.7,19.9z"/>
		<path class="st2" d="M178.9,87.5c-0.5,0.9,0.1,1.9,1.1,1.9c0.3,0,0.8-0.3,0.7-0.7c-0.3-2.3-0.6-4.7-0.9-7
			c-0.1-1.1-0.3-2.2-0.4-3.4c0-0.6-0.2-1.5,0.3-1.9c-0.4-0.2-0.7-0.4-1.1-0.6c0.1,2.5,0.2,5.1,0.3,7.6c0,0.8,1.2,1,1.5,0.2
			c0.7-2.8,0.7-5.8,0-8.7c-0.2-0.6-0.9-0.7-1.2-0.3c-0.9,0.9-1.2,2.2-0.8,3.4c0.2,0.5,1.1,0.8,1.4,0.2c0.8-1.9,1-4,0.6-6
			c-0.1-0.5-0.9-0.8-1.2-0.3c-0.9,1.1-1.2,2.5-0.7,3.9c0.3,0.7,1.2,0.7,1.4,0c0.6-1.3,0.6-2.7,0.4-4.1c-0.1-0.5-0.9-0.7-1.2-0.3
			c-0.6,0.7-0.8,1.6-0.6,2.5c0.2,0.7,1.2,0.7,1.4,0c0.5-1.6,0.8-3.4,0.9-5c-0.5,0-1,0-1.5,0c0.2,2.4,0.2,4.8,0.1,7.2
			c0,0.9,1.5,0.9,1.5,0c0.1-2.4,0-4.8-0.1-7.2c-0.1-0.9-1.4-0.9-1.5,0c-0.1,1.6-0.4,3.1-0.9,4.7c0.5,0,0.9,0,1.4,0
			c-0.1-0.4,0-0.8,0.2-1.1c-0.4-0.1-0.8-0.2-1.2-0.3c0.2,1.1,0,2.3-0.4,3.3c0.5,0,0.9,0,1.4,0c-0.3-0.8-0.2-1.8,0.3-2.5
			c-0.4-0.1-0.8-0.2-1.2-0.3c0.4,1.6,0.3,3.3-0.4,4.8c0.5,0,0.9,0.1,1.4,0.2c-0.3-0.7-0.2-1.4,0.4-1.9c-0.4-0.1-0.8-0.2-1.2-0.3
			c0.7,2.6,0.7,5.3,0,7.8c0.5,0.1,1,0.1,1.5,0.2c-0.1-2.5-0.2-5.1-0.3-7.6c0-0.6-0.6-0.9-1.1-0.6c-0.8,0.5-1.1,1.4-1.1,2.4
			c0,1.1,0.3,2.3,0.4,3.4c0.3,2.6,0.7,5.2,1,7.8c0.3-0.3,0.5-0.5,0.7-0.7c0.2,0,0.2,0.2,0.2,0.3C180.6,87.4,179.4,86.7,178.9,87.5z"
			/>
		<path class="st2" d="M137.7,74.7c-0.3,1.6,0.1,3.2,0.6,4.8c0.4,1.5,0.9,3,0.7,4.5c-0.2,1.4-0.9,2.6-1.7,3.8
			c-0.9,1.3-1.8,2.5-2.6,3.8c0.5,0.2,0.9,0.4,1.4,0.6c0.6-1.9,1.1-3.8,1.7-5.7c0.3-0.9,0.6-1.8,0.8-2.7c0.1-0.7-0.1-1.5-0.9-1.8
			c-0.3-0.1-0.6,0.1-0.9,0.3c-0.9,1.3-1.2,2.9-1,4.4c0.1,0.7,1,0.6,1.4,0.2c1.2-1.6,1.6-3.6,1.3-5.6c-0.1-0.6-0.9-0.7-1.2-0.3
			c-0.7,0.7-0.6,2.1,0.4,2.5c0.5,0.2,0.9,0,1.1-0.4c0.5-1.3,0.5-2.8,0.2-4.2c-0.2-0.9-1.6-0.5-1.4,0.4c0.4,1.9,0.3,3.8-0.4,5.6
			c0.5,0.2,0.9,0.4,1.4,0.6c0.2-1.2,0.3-2.4,0.2-3.7c-0.1-0.9-1.5-1-1.5,0c0,0.3,0,0.6,0,0.8c0,0.9,1.5,0.9,1.5,0c0-0.3,0-0.6,0-0.8
			c-0.5,0-1,0-1.5,0c0.1,1.1,0,2.2-0.1,3.2c0,0.4,0,0.7,0.4,0.9c0.3,0.1,0.8,0,0.9-0.3c0.9-2.2,1.1-4.4,0.6-6.7
			c-0.5,0.1-0.9,0.3-1.4,0.4c0.3,1.1,0.2,2.3-0.2,3.4c0.3-0.1,0.7-0.3,1.1-0.4c0,0-0.2-0.1-0.1-0.2c-0.4-0.1-0.8-0.2-1.2-0.3
			c0.3,1.6-0.2,3.2-1.2,4.4c0.5,0,0.9,0.1,1.4,0.2c-0.2-1.2,0.2-2.4,0.9-3.3c-0.3,0.1-0.6,0.2-0.9,0.3c-0.4-0.1-0.1-0.2-0.2,0
			c0,0.1-0.1,0.3-0.1,0.3c-0.1,0.4-0.2,0.8-0.3,1.1c-0.2,0.8-0.4,1.5-0.7,2.3c-0.4,1.5-0.9,3-1.3,4.5c-0.3,0.8,0.9,1.3,1.4,0.6
			c1.5-2.6,3.9-4.8,4.5-7.8c0.3-1.6-0.1-3.2-0.6-4.8c-0.4-1.5-1-3.1-0.8-4.7c0-0.4-0.1-0.8-0.5-0.9
			C138.3,74.1,137.8,74.3,137.7,74.7z"/>
		<path class="st2" d="M172.6,121.9c-2.7,0.9-4.7,3.2-5.2,6c-0.1,0.5,0.6,1,1,0.7c1.8-1.1,3.4-2.5,4.6-4.3c0.4-0.6-0.2-1.4-0.9-1.1
			c-1.5,0.6-2.6,1.7-3.3,3.2c-0.3,0.8,0.9,1.4,1.3,0.7c0.7-1.3,1.7-2.3,2.9-3.1c0.3-0.2,0.3-0.8,0.1-1c-0.3-0.3-0.7-0.3-1-0.1
			c-1.3,0.9-2.4,2.1-3.2,3.5c0.4,0.2,0.9,0.5,1.3,0.7c0.5-1.1,1.4-1.9,2.5-2.3c-0.3-0.4-0.6-0.7-0.9-1.1c-1,1.6-2.4,2.8-4,3.8
			c0.3,0.3,0.7,0.5,1,0.7c0.5-2.2,2.2-4,4.4-4.7c0.4-0.1,0.5-0.6,0.4-1C173.4,121.9,173,121.8,172.6,121.9z"/>
		<path class="st1" d="M137,47.9c-0.4,0.8-0.4,1.7,0,2.5c0.4,0.8,1.1,1.3,2,1.4c0.3,0,0.5-0.3,0.5-0.5c0-0.3-0.2-0.5-0.5-0.5
			c0.1,0,0,0,0,0s-0.1,0-0.1,0c0,0-0.1,0-0.1,0c0,0-0.1,0,0,0c-0.1,0-0.1-0.1-0.2-0.1c0,0,0,0-0.1,0c0,0-0.1,0,0,0
			c-0.1-0.1-0.2-0.2-0.3-0.3c0,0,0,0,0-0.1c0-0.1-0.1-0.1-0.1-0.2c0,0,0-0.1,0,0c0,0.1,0-0.1,0-0.1c0-0.1,0-0.1-0.1-0.2
			c0-0.1,0-0.1,0-0.2c0,0,0-0.1,0-0.1c0-0.1,0-0.2,0-0.3c0-0.1,0,0.1,0,0c0,0,0-0.1,0-0.1c0-0.1,0-0.1,0.1-0.2c0,0,0-0.1,0.1-0.1
			c0.1-0.2,0-0.6-0.2-0.7C137.4,47.6,137.1,47.6,137,47.9z"/>
		<path class="st1" d="M140.4,50.6c0.1,0,0.2,0,0.3,0.1c0,0,0.1,0,0.1,0c0,0,0,0,0,0c0,0,0,0,0.1,0c0.2,0.1,0.3,0.2,0.5,0.3
			c0,0,0.1,0.1,0,0c0,0,0.1,0,0.1,0.1c0.1,0.1,0.1,0.1,0.2,0.2c0,0,0.1,0.1,0.2,0.2c0.1,0.1,0,0.1,0.1,0.2c0.1,0.2,0.2,0.3,0.3,0.5
			c0,0,0,0.1,0,0c0,0,0,0.1,0,0.1c0,0.1,0,0.2,0.1,0.3c0,0.1,0,0.2,0,0.3c0,0.1,0,0,0,0c0,0,0,0.1,0,0.1c0,0.2,0,0.4,0,0.6
			c0,0.3,0.3,0.5,0.5,0.5c0.3,0,0.5-0.2,0.5-0.5c0.2-1.8-1.1-3.6-2.8-4.1c-0.3,0-0.6,0.1-0.6,0.3C140,50.3,140.2,50.6,140.4,50.6z"
			/>
		<path class="st1" d="M141.3,52.5c0,1.2,0.9,2.2,1.7,2.9c0.5,0.4,1,0.9,1.7,1c0.6,0,1.1-0.3,1.2-0.9c0.1-0.6-0.2-1.3-0.8-1.2
			c-0.3,0-0.5,0.2-0.5,0.5c0,0.3,0.2,0.5,0.5,0.5c0.1,0,0,0,0,0c-0.1,0-0.1,0,0,0c-0.1,0-0.1,0,0,0c0-0.1,0-0.1,0,0c0,0,0,0,0,0v0
			c0,0,0,0,0,0v0.1c0-0.1,0-0.1,0,0v0v0c0-0.1,0-0.1,0,0c0,0,0,0,0,0c0,0,0-0.1,0,0c0.1,0,0,0,0,0c0.1,0,0.1,0,0,0c0,0-0.1,0,0,0
			c-0.1,0-0.2,0-0.3,0c0,0,0,0,0,0c0,0-0.1,0-0.1,0c-0.1,0-0.1-0.1-0.2-0.1c-0.1-0.1-0.2-0.1-0.3-0.3c-0.2-0.2-0.4-0.4-0.6-0.6
			c-0.1-0.1-0.2-0.2-0.3-0.3c0,0-0.1-0.1-0.1-0.2c0,0-0.1-0.1-0.1-0.1c-0.1-0.1-0.2-0.2-0.2-0.3c0,0-0.1-0.1-0.1-0.2
			c0,0-0.1-0.2,0-0.1c0-0.1-0.1-0.3-0.1-0.4c0-0.2,0-0.1,0-0.3c0-0.3-0.2-0.5-0.5-0.5C141.5,52,141.3,52.2,141.3,52.5z"/>
		<path class="st1" d="M144.5,53.8c1.5,1.1,2.6,2.8,3.1,4.6c0-0.2,0.1-0.3,0.1-0.5c0,0-0.1,0.1-0.1,0.1c0,0-0.1,0-0.1,0
			c0,0-0.1,0-0.2-0.1c-0.3-0.6-1.2,0-0.9,0.5c0.4,0.6,1.3,0.8,1.8,0.3c0.2-0.2,0.3-0.4,0.2-0.7c0-0.2-0.1-0.3-0.2-0.5
			c-0.1-0.4-0.3-0.7-0.4-1.1c-0.7-1.4-1.7-2.6-2.9-3.5c-0.2-0.2-0.6,0-0.7,0.2C144.2,53.4,144.3,53.7,144.5,53.8z"/>
		<path class="st1" d="M146.1,57.5c-0.3,1.6,0.7,2.8,1.8,3.8c0.6,0.5,1.2,1.1,1.9,1.3c0.9,0.3,1.6-0.3,1.7-1.2
			c0.1-0.9-0.7-1.6-1.5-2c-0.6-0.3-1,0.5-0.5,0.9c0.2,0.1,0.5,0.3,0.7,0.5c0.1,0.1,0.2,0.2,0.2,0.3c0,0,0,0,0,0.1c0,0,0,0.2,0,0.1
			c0,0.1,0,0.2,0,0.3c0,0,0,0.1-0.1,0.1c-0.2,0.1-0.4,0-0.6-0.1c-0.5-0.3-0.9-0.6-1.4-1c-0.4-0.4-0.8-0.8-1.1-1.3
			c-0.3-0.5-0.4-1-0.3-1.6c0-0.3-0.1-0.5-0.3-0.6C146.5,57,146.1,57.2,146.1,57.5z"/>
		<path class="st1" d="M149.9,59.7c-0.3-0.4-0.9-0.3-1,0.2c-0.2,0.6,0.6,0.9,1,0.6c0.3-0.2,0.5-0.6,0.8-1c0.3-0.3,0.6-0.6,0.9-1
			c0.6-0.6,1.2-1.1,1.9-1.6c0.3-0.2,0.7-0.6,1-0.5c0,0,0,0,0,0c0,0,0,0.2,0,0.3c0,0.3-0.2,0.6-0.4,0.8c-0.3,0.5-0.7,0.9-1.1,1.3
			c-0.2,0.2-0.2,0.5,0,0.7c0.2,0.2,0.5,0.2,0.7,0c0.3-0.4,0.6-0.7,0.9-1.1c0.2-0.3,0.5-0.6,0.6-0.9c0.3-0.6,0.4-1.3,0-1.9
			c-0.6-0.7-1.6-0.1-2.2,0.3c-0.7,0.5-1.3,1-1.9,1.6c-0.3,0.3-0.6,0.6-0.9,1c-0.2,0.2-0.3,0.4-0.5,0.6c-0.1,0.1-0.1,0.2-0.2,0.3
			c0,0,0,0.1-0.1,0.1c-0.1,0.1-0.1,0,0,0c0.1,0,0.2,0,0.3,0c0,0,0,0,0,0c0,0,0.1,0.1,0.2,0.2c0,0,0,0,0,0c0,0.1,0,0.2,0.1,0.3
			c0,0.1-0.1,0.2-0.2,0.3c-0.1,0-0.3,0-0.4,0c0,0,0,0,0,0c-0.1-0.1-0.2-0.2-0.3-0.2c0,0,0,0,0,0c0.2,0.2,0.4,0.3,0.7,0.2
			C149.9,60.3,150,59.9,149.9,59.7z"/>
		<path class="st1" d="M153.2,57.5c-0.9,0.1-1.1,1-0.7,1.7c0.5,0.9,1.6,0.6,2.3,0c0.4-0.3,0.7-0.8,0.9-1.2c0.3-0.5,0.7-1,1-1.5
			c0.6-1,1.2-2,1.7-3.1c0.2-0.3,0-0.7-0.4-0.7c-0.3,0-0.6-0.1-0.9-0.1c-0.3,0-0.5,0.3-0.5,0.5c0,0.3,0.2,0.5,0.5,0.5
			c0.3,0,0.6,0.1,0.9,0.1c-0.1-0.3-0.3-0.5-0.4-0.7c-0.7,1.6-1.6,3.1-2.6,4.5c-0.2,0.3-0.4,0.6-0.7,0.9c-0.2,0.2-0.5,0.5-0.8,0.5
			c-0.1,0-0.1-0.1-0.2-0.2c0,0,0-0.2,0-0.1c0,0,0-0.1,0-0.1c0,0,0-0.1,0,0c0,0-0.1,0-0.1,0c0.3,0,0.5-0.2,0.5-0.5
			C153.6,57.7,153.4,57.4,153.2,57.5z"/>
		<path class="st1" d="M156.2,53.8c0.9-1.7,2.1-3.2,3.7-4.4c-0.2,0-0.4,0-0.6-0.1c0.3,0.3,0.3,0.7,0,0.9c-0.4,0.5,0.3,1.2,0.7,0.7
			c0.6-0.6,0.6-1.7,0-2.4c-0.1-0.1-0.4-0.2-0.6-0.1c-1.7,1.3-3,2.9-4,4.8C155.1,53.9,155.9,54.3,156.2,53.8z"/>
		<path class="st1" d="M159,50.2c-0.7,0.6,0.1,1.6,0.9,1.4c0.4-0.1,0.7-0.5,1-0.9c0.3-0.4,0.5-0.8,0.7-1.2c0.9-1.7,1.6-3.5,2-5.3
			c0.1-0.3-0.1-0.6-0.5-0.6c-1-0.1-1.9,0.5-2.4,1.4c-0.3,0.6,0.6,1.1,0.9,0.5c0.3-0.6,0.9-0.9,1.5-0.9c-0.2-0.2-0.3-0.4-0.5-0.6
			c-0.3,1.3-0.7,2.6-1.2,3.8c-0.3,0.6-0.6,1.2-0.9,1.7c-0.2,0.3-0.3,0.6-0.5,0.8c-0.1,0.1-0.2,0.2-0.3,0.3l0,0c0,0,0,0,0,0
			c0,0,0.1,0,0,0c0-0.1,0,0,0,0.2C160.1,50.5,159.4,49.8,159,50.2z"/>
		<path class="st1" d="M161,46c0.7-2.1,2.4-3.8,4.5-4.4c-0.2-0.2-0.4-0.3-0.6-0.5c0.1,0.5-0.1,1-0.5,1.4c-0.5,0.4,0.3,1.2,0.7,0.7
			c0.6-0.6,0.9-1.3,0.8-2.1c0-0.3-0.3-0.6-0.6-0.5c-2.4,0.8-4.4,2.7-5.2,5.1C159.9,46.3,160.8,46.6,161,46z"/>
		<path class="st1" d="M165.4,43.4c0.4-0.5,0.8-1,1.2-1.5c0.4-0.5,0.8-0.9,1.1-1.5c0.3-0.5,0.4-1.2,0-1.7c-0.3-0.3-0.7-0.5-1.1-0.4
			c-0.5,0-1,0.4-0.9,0.9c0,0.3,0.2,0.5,0.5,0.5c0.3,0,0.5-0.2,0.5-0.5c0,0,0,0,0-0.1c0,0,0,0,0,0c0,0,0,0.1,0,0c0,0,0,0,0,0
			c0,0,0,0,0,0c0.1,0,0,0,0,0c0,0,0,0,0.1,0c0.1,0-0.1,0,0,0c0,0,0.1,0,0.1,0c0,0-0.1,0,0,0c0,0,0.1,0,0.1,0c-0.1,0,0,0,0,0
			c0,0,0,0,0,0l0,0c0,0,0-0.1,0,0c0-0.2,0,0,0,0.1c0,0,0,0.1,0,0.1c0,0,0,0.2-0.1,0.3c-0.2,0.5-0.6,0.9-1,1.4
			c-0.4,0.5-0.8,1-1.2,1.5c-0.2,0.2-0.2,0.5,0,0.7C164.9,43.6,165.2,43.6,165.4,43.4z"/>
		<path class="st1" d="M166.6,38.6C166.7,38.4,166.6,38.6,166.6,38.6c0-0.1,0.1-0.2,0.1-0.2c0-0.1,0.1-0.2,0.1-0.3
			c0.1-0.1,0.2-0.3,0.3-0.4c0.1-0.1,0.2-0.3,0.3-0.3c0.1,0,0.1-0.1,0.2-0.2c0,0,0,0,0.1-0.1c0.1-0.1-0.1,0,0,0
			c0.1-0.1,0.3-0.2,0.4-0.3c0.1,0,0.2-0.1,0.3-0.1c0,0,0.1,0,0.1,0c0,0,0,0,0,0h0c0.2-0.1,0.3-0.1,0.5-0.2c0.1,0,0.2,0,0.3,0
			c0,0,0.2,0,0.1,0c0,0,0.1,0,0.1,0c-0.2-0.2-0.3-0.3-0.5-0.5c0,0.5,0,0.9-0.1,1.3c-0.1,0.4-0.3,0.8-0.6,1.1c-0.2,0.2-0.2,0.5,0,0.7
			c0.2,0.2,0.5,0.2,0.7,0c0.8-0.8,1.2-2,1-3.1c0-0.3-0.2-0.5-0.5-0.5c-1.8,0.2-3.3,1.3-3.9,3c-0.1,0.3,0.1,0.6,0.3,0.6
			C166.3,39,166.5,38.8,166.6,38.6z"/>
		<path class="st1" d="M169.7,38.7c0.7-0.3,1.4-0.8,1.9-1.4c0.6-0.6,1.1-1.3,1.4-2c0.3-0.7,0.1-1.6-0.4-2.2
			c-0.5-0.5-1.3-0.7-1.9-0.3c-0.5,0.3,0,1.2,0.5,0.9c0.2-0.1,0.3-0.1,0.4,0c0.1,0,0.3,0.2,0.4,0.3c0.3,0.4,0.1,1-0.1,1.5
			c-0.6,1.1-1.6,1.9-2.7,2.4c-0.3,0.1-0.3,0.5-0.2,0.7C169.2,38.8,169.5,38.8,169.7,38.7z"/>
		<path class="st1" d="M134.9,103.7c1.8,5.4,5.3,10.1,9.9,13.2c0.5,0.3,1-0.5,0.5-0.9c-4.5-3-7.8-7.5-9.5-12.6
			C135.6,102.8,134.7,103.1,134.9,103.7z"/>
		<path class="st0" d="M149,23.4c-0.2,1.1-0.4,2.1-0.6,3.2c0,0.3,0.1,0.6,0.3,0.6c0.3,0,0.5-0.1,0.6-0.3c0.2-0.7,0.6-1.5,1.1-2
			c-0.3-0.1-0.6-0.1-0.8-0.2c0-0.1,0,0,0,0.1c0,0,0,0.1,0,0.2c0,0,0,0.1,0,0.2c0-0.1,0,0.1,0,0.1c0,0.2-0.1,0.3-0.2,0.5
			c-0.1,0.2,0,0.6,0.2,0.7c0.3,0.1,0.5,0,0.7-0.2c0.3-0.6,0.4-1.2,0.3-1.8c0-0.3-0.6-0.5-0.8-0.2c-0.6,0.7-1.1,1.6-1.4,2.5
			c0.3,0.1,0.6,0.2,0.9,0.3c0.2-1.1,0.4-2.1,0.6-3.2c0-0.3-0.1-0.6-0.3-0.6C149.4,23,149.1,23.2,149,23.4z"/>
		<path class="st0" d="M136.2,30.4c-0.3,1-0.5,2.1-0.4,3.2c0,0.6,0.8,0.7,1,0.1c0.1-0.3,0.2-0.6,0.3-1c0-0.3-0.1-0.6-0.3-0.6
			c-0.3,0-0.6,0.1-0.6,0.3c-0.1,0.3-0.2,0.6-0.3,1c0.3,0,0.6,0.1,1,0.1c0-1,0.1-1.9,0.4-2.9c0.1-0.3-0.1-0.6-0.3-0.6
			C136.5,29.9,136.3,30.1,136.2,30.4z"/>
		<path class="st0" d="M136.4,31.4c0,0.4,0,0.8,0,1.2c0,0.1,0,0.3,0.1,0.3c0.1,0.1,0.2,0.2,0.3,0.1c0.3,0,0.5-0.2,0.5-0.5
			c0-0.4,0-0.8,0-1.2c0-0.1,0-0.3-0.1-0.3c-0.1-0.1-0.2-0.2-0.3-0.1C136.6,30.9,136.4,31.1,136.4,31.4z"/>
		<path class="st1" d="M158.4,120.5c2.3-0.5,4.4-1.6,6.1-3c0.2-0.2,0.2-0.5,0-0.7c-0.2-0.2-0.5-0.2-0.7,0c-1.6,1.4-3.6,2.3-5.7,2.8
			C157.5,119.6,157.8,120.6,158.4,120.5z"/>
		<path class="st1" d="M172.4,46.8c0,0,0.1,0.1,0.2,0.1c0,0,0,0,0,0l0,0c0.1,0.1,0.2,0.2,0.3,0.3c0,0,0.1,0.1,0.1,0.1c0,0,0,0,0,0
			c0,0,0,0,0,0.1c0.1,0.1,0.1,0.2,0.2,0.3c0,0,0,0.1,0.1,0.2c0,0,0,0,0,0c0,0,0,0.1,0,0.1c0,0.1,0.1,0.3,0.1,0.3c0,0,0,0.1,0,0.2
			c0,0,0,0,0,0.1c0,0.1,0,0.3,0,0.4c0,0.3,0.2,0.5,0.5,0.5c0.3,0,0.5-0.2,0.5-0.5c0-1.3-0.6-2.5-1.7-3.2c-0.2-0.1-0.6,0-0.7,0.2
			C172.1,46.4,172.2,46.7,172.4,46.8z"/>
		<path class="st1" d="M151.5,96.5c-0.5,0.1-0.8,0.7-0.6,1.2c0.2,0.6,0.9,0.6,1.3,0.3c0.4-0.4,0.2-1.2-0.4-1.2
			c-0.5,0-0.9,0.4-0.8,0.9c0.1,0.3,0.4,0.4,0.7,0.3c0.5-0.2,0.9-0.6,1.2-1c-0.3,0-0.6,0-0.9,0c0.1,0.1,0.2,0.3,0.3,0.4
			c0,0.1,0.1,0.2,0.1,0.3c0,0.1,0.1,0.3,0.1,0.4c0,0,0,0.1,0,0c0,0,0,0.1,0,0.1c0,0.1,0,0.2,0,0.3c0,0.6-0.1,1.1-0.5,1.6
			c-0.2,0.2,0,0.6,0.2,0.7c0.3,0.1,0.5,0,0.7-0.2c0.8-1.2,0.8-2.9,0-4.1c-0.2-0.3-0.6-0.3-0.9,0c-0.2,0.3-0.5,0.5-0.8,0.7
			c0.3,0.1,0.5,0.2,0.7,0.3c0,0.1,0,0.3-0.1,0.3c-0.1,0-0.1,0,0,0c-0.1,0-0.1,0,0,0c-0.3,0-0.4-0.4-0.1-0.5c0,0,0,0,0,0
			c0,0,0.1,0,0.1,0c0,0,0.1,0.1,0.1,0.1c0,0,0,0,0,0c0,0.1,0,0.1,0,0c0,0,0,0,0,0c0,0,0,0,0,0.1c0,0,0,0,0,0
			c0.3-0.1,0.4-0.3,0.3-0.6C152.1,96.6,151.8,96.4,151.5,96.5z"/>
		<path class="st1" d="M40.8,39.4c3.7-8.4,10.8-15.3,19.5-18.8c4.8-1.9,10-2.8,15.2-2.7c5.1,0.2,10.3,1.3,14.8,3.8
			c4.7,2.6,8.4,7.2,8.1,12.6c-0.1,1.3,2,1.3,2,0c0.3-5.3-2.8-10-7.1-13.1c-4.3-3.1-9.8-4.6-15.2-5.1c-10.6-1.1-21.4,2.3-29.4,9.2
			c-4.1,3.6-7.4,8.1-9.7,13c-0.2,0.5-0.1,1.1,0.4,1.4C39.8,40,40.6,39.9,40.8,39.4z"/>
		<path class="st1" d="M49.9,39.9c2.8-5.2,7.3-9.7,12.9-12c5.2-2.2,11.3-2.1,16.4,0.5c2.7,1.4,5.1,3.5,6.6,6.2
			c0.6,1.1,2.4,0.1,1.8-1c-3-5.3-8.9-8.5-15-9.1c-6.5-0.7-12.8,1.9-17.6,6c-2.8,2.4-5.1,5.3-6.8,8.5C47.6,40.1,49.3,41.1,49.9,39.9z
			"/>
		<path class="st1" d="M86,35c-6.1,3.9-10.4,10.3-12.1,17.3c-0.9,3.5-1,7.2-0.4,10.9c0.6,4,2.3,7.7,4.2,11.3
			c2.1,4.2,4.5,8.3,5.6,12.9c0.3,1.3,2.2,0.7,1.9-0.5c-1.8-8-7.5-14.4-9.4-22.4c-1.5-6.6-0.2-13.8,3.3-19.7c2-3.3,4.7-6.1,7.9-8.2
			C88,36.1,87.1,34.3,86,35z"/>
		<path class="st1" d="M100.4,33.1c4.4,1,8.5,3,12,5.9c3.2,2.5,5.8,5.7,7.9,9.2c4.6,7.7,6.4,16.7,6.2,25.6c-0.1,5.7-1,11.3-2.4,16.8
			c-0.3,1.3,1.6,1.8,1.9,0.5c2.4-10,3.4-20.7,1.2-30.9c-1.8-8.2-6-16.2-12.4-21.8c-3.9-3.5-8.7-6-13.8-7.2
			C99.7,30.8,99.2,32.8,100.4,33.1z"/>
		<path class="st1" d="M121.1,104.4c-0.8,4-0.3,8.1-0.2,12.1c0,3-0.4,6.1-2,8.7c-0.8,1.3-1.9,2.4-3.3,3.1c-0.5,0.2-0.6,0.9-0.3,1.4
			c0.3,0.5,0.9,0.6,1.4,0.3c2.9-1.3,4.7-4.2,5.5-7.2c1.1-3.6,0.8-7.3,0.6-11c-0.1-2.3-0.1-4.7,0.3-6.9c0.1-0.5-0.2-1.1-0.7-1.2
			C121.8,103.6,121.2,103.9,121.1,104.4z"/>
		<path class="st1" d="M90,120.2c-0.2-0.2-0.4-0.4-0.6-0.6c-0.1-0.1-0.2-0.2-0.3-0.3c0,0,0,0,0-0.1c0,0,0,0,0,0c0,0-0.1-0.1-0.1-0.2
			c-0.3-0.5-0.6-0.9-0.9-1.5c-0.1-0.2-0.5-0.3-0.7-0.2c-0.3,0.2-0.3,0.4-0.2,0.7c0.5,1.1,1.2,2.1,2.1,2.9c0.2,0.2,0.5,0.2,0.7,0
			C90.3,120.7,90.3,120.4,90,120.2z"/>
		<path class="st1" d="M114.4,130.3c0.3-0.2,0.6-0.4,0.9-0.6c0.1-0.1,0.2-0.2,0.2-0.3c0-0.1,0-0.3,0-0.4c-0.1-0.1-0.2-0.2-0.3-0.2
			c-0.1,0-0.3,0-0.4,0c-0.3,0.2-0.6,0.4-0.9,0.6c-0.1,0.1-0.2,0.2-0.2,0.3c0,0.1,0,0.3,0,0.4c0.1,0.1,0.2,0.2,0.3,0.2
			C114.1,130.4,114.3,130.4,114.4,130.3z"/>
		<path class="st1" d="M86,103.4c-0.2,1.1-0.1,2.2,0.3,3.3c0.1,0.3,0.3,0.4,0.6,0.3c0.3-0.1,0.4-0.3,0.3-0.6
			c-0.1-0.2-0.1-0.5-0.2-0.7c0-0.3-0.1-0.4-0.1-0.6c0-0.3,0-0.5,0-0.7c0-0.1,0-0.3,0-0.3c0,0,0-0.1,0-0.2c0,0,0-0.2,0-0.1
			c0-0.3,0-0.6-0.3-0.6C86.4,103,86.1,103.2,86,103.4z"/>
		<path class="st1" d="M99.6,115.4c1,1.1,3,0.9,3.8-0.4c0.1-0.2,0-0.6-0.2-0.7c-0.2-0.1-0.6,0-0.7,0.2c0,0-0.1,0.1-0.1,0.2
			c0,0,0,0,0,0c0,0,0,0-0.1,0.1c0,0-0.2,0.2-0.1,0.1c0,0-0.1,0.1-0.2,0.1c0,0-0.1,0-0.2,0.1c0.1,0-0.1,0,0,0c0,0-0.1,0-0.1,0
			c0,0-0.1,0-0.2,0c0,0-0.1,0-0.1,0c0.1,0-0.1,0,0,0c-0.1,0-0.3,0-0.4,0h0c0,0,0,0,0,0c0,0-0.1,0-0.1,0c-0.1,0-0.1,0-0.2,0
			c0,0-0.1,0-0.1,0c0.1,0-0.1,0,0,0c0,0-0.1,0-0.2-0.1c0,0,0,0-0.1,0c0.1,0.1-0.1,0,0,0c0,0-0.1-0.1-0.2-0.2c-0.2-0.2-0.5-0.2-0.7,0
			C99.4,114.9,99.4,115.2,99.6,115.4z"/>
		<path class="st1" d="M102.9,115.8c-0.1-0.5-0.6-0.6-1-0.3c-0.4,0.3-0.4,0.8-0.3,1.2c0.2,0.8,0.8,1.5,1.5,1.9
			c1.8,1,3.7,0.5,5.2-0.8c0.9-0.8,1.6-1.8,2.3-2.8c0.3-0.6-0.5-1-0.9-0.5c-0.9,1.5-2.2,3.3-4.1,3.6c-0.7,0.1-1.5,0-2.1-0.4
			c-0.3-0.2-0.6-0.4-0.8-0.6c-0.1-0.1-0.2-0.3-0.3-0.5c0-0.1,0-0.2-0.1-0.3c0,0,0,0,0-0.1c0-0.1-0.1-0.1-0.2,0.1
			c-0.1,0-0.2-0.1-0.3-0.1c0,0,0-0.1-0.1-0.1C102,116.7,102.9,116.4,102.9,115.8z"/>
		<path class="st1" d="M95.6,117c0.6,2.4,3.9,3.3,5.6,1.7c0.5-0.4-0.2-1.1-0.7-0.7c-1.2,1.1-3.6,0.4-3.9-1.3
			C96.4,116.1,95.4,116.4,95.6,117z"/>
		<path class="st1" d="M104.7,109.9C104.7,109.7,104.7,110,104.7,109.9c0-0.1,0-0.1,0-0.2c0-0.1,0-0.2,0-0.3c0-0.2,0.1-0.3,0.2-0.5
			c0-0.1,0,0.1,0,0c0,0,0-0.1,0-0.1c0-0.1,0.1-0.2,0.1-0.2c0.1-0.1,0.2-0.3,0.3-0.4c0-0.1-0.1,0.1,0,0c0,0,0,0,0.1-0.1
			c0-0.1,0.1-0.1,0.2-0.2c0.1-0.1,0.3-0.2,0.4-0.3c0,0,0,0,0,0c0,0,0.1,0,0.1-0.1c0.1,0,0.1-0.1,0.2-0.1c0.2-0.1,0.3-0.2,0.5-0.3
			c0.3-0.1,0.3-0.5,0.2-0.7c-0.1-0.3-0.4-0.3-0.7-0.2c-1.5,0.6-2.5,2.1-2.7,3.8c0,0.3,0.3,0.5,0.5,0.5
			C104.4,110.4,104.6,110.2,104.7,109.9z"/>
		<path class="st1" d="M92.7,107.8c-0.1,0,0-0.3,0-0.3c0.1-0.2,0.4-0.3,0.7-0.2c0.6,0,1.3,0.3,1.8,0.6c1.1,0.6,2,1.6,2.5,2.8
			c0.1,0.3,0.3,0.4,0.6,0.3c0.2,0,0.4-0.3,0.3-0.6c-0.7-1.7-2-3-3.7-3.8c-0.8-0.3-1.9-0.6-2.7-0.1c-0.7,0.5-0.9,1.6-0.1,2.2
			C92.7,109,93.2,108.2,92.7,107.8z"/>
		<path class="st1" d="M93.5,107.4c-0.3,0.9,0.1,2,0.9,2.6c0.8,0.6,2,0.6,2.7,0c0.2-0.2,0.3-0.4,0.2-0.7c-0.1-0.2-0.5-0.3-0.7-0.2
			c-0.1,0-0.2,0.1-0.3,0.2c0,0-0.1,0-0.1,0c0.1,0,0,0,0,0c-0.1,0-0.2,0-0.3,0.1c-0.1,0,0,0,0,0c0,0-0.1,0-0.1,0c-0.1,0-0.2,0-0.3,0
			c0.1,0,0,0,0,0c0,0-0.1,0-0.1,0c0,0-0.1,0-0.1,0c-0.1,0,0.1,0,0,0c-0.1,0-0.2-0.1-0.3-0.1c0,0,0,0,0,0l0,0c0,0-0.1,0-0.1-0.1
			c0,0,0,0-0.1-0.1c-0.1-0.1,0,0.1,0,0c0-0.1-0.1-0.1-0.1-0.2c0,0-0.1-0.2,0,0c0,0,0-0.1,0-0.1c0-0.1,0-0.2,0-0.3c0,0,0,0,0-0.1
			c0,0,0,0.1,0,0c0,0,0-0.1,0-0.1c0-0.1,0-0.2,0-0.3c0,0.1,0,0,0,0c0,0,0-0.1,0-0.2c0.1-0.3-0.1-0.6-0.3-0.6
			C93.9,107,93.6,107.1,93.5,107.4z"/>
		<path class="st1" d="M93.9,108c0.4,0.9,1.2,1.5,2.1,1.8c0.3,0.1,0.6-0.1,0.6-0.3c0-0.3-0.1-0.6-0.3-0.6c-0.1,0-0.2,0-0.3-0.1
			c0,0-0.1,0,0,0c0,0,0,0,0,0c0,0-0.1,0-0.1-0.1c-0.1,0-0.2-0.1-0.3-0.1c0,0-0.1,0-0.1-0.1c0,0,0.1,0.1,0,0l0,0
			c-0.1,0-0.1-0.1-0.2-0.2c0,0-0.1-0.1-0.1-0.1c0,0-0.1-0.2,0,0c-0.1-0.2-0.2-0.3-0.3-0.5c0-0.1-0.2-0.2-0.3-0.2c-0.1,0-0.3,0-0.4,0
			C93.8,107.5,93.7,107.8,93.9,108z"/>
		<path class="st1" d="M95.1,106.9c-0.1,0.1-0.2,0.2-0.3,0.3c-0.1,0.1-0.1,0.2-0.2,0.3c-0.1,0.2-0.1,0.5,0,0.7
			c0.1,0.3,0.3,0.5,0.5,0.7c0.2,0.1,0.4,0.2,0.7,0.2c0.1,0,0.3,0,0.4,0c0.1,0,0.3-0.1,0.3-0.2c0.1-0.1,0.2-0.2,0.2-0.3
			c0-0.1,0-0.3,0-0.4c-0.1-0.1-0.2-0.2-0.3-0.2c-0.1,0-0.3,0-0.4,0c0,0-0.1,0-0.1,0.1c0,0,0.1,0,0.1,0c0,0-0.1,0-0.2,0
			c0,0,0.1,0,0.1,0c-0.1,0-0.1,0-0.2,0c0,0,0.1,0,0.1,0c-0.1,0-0.1,0-0.2,0c0,0,0.1,0,0.1,0c0,0-0.1,0-0.2-0.1c0,0,0.1,0,0.1,0.1
			c0,0-0.1-0.1-0.1-0.1c0,0,0,0.1,0.1,0.1c0,0-0.1-0.1-0.1-0.1c0,0,0,0.1,0,0.1c0,0,0-0.1,0-0.2c0,0,0,0.1,0,0.1c0-0.1,0-0.1,0-0.2
			c0,0,0,0.1,0,0.1c0-0.1,0-0.1,0-0.2c0,0,0,0.1,0,0.1c0,0,0-0.1,0.1-0.2c0,0,0,0.1-0.1,0.1c0,0,0.1-0.1,0.1-0.1c0,0-0.1,0-0.1,0.1
			c0,0,0,0,0,0c0.1-0.1,0.2-0.2,0.2-0.3c0-0.1,0-0.3,0-0.4c-0.1-0.1-0.2-0.2-0.3-0.2C95.4,106.8,95.2,106.8,95.1,106.9z"/>
		<path class="st1" d="M105.3,107.6c0.3,0.8,1.1,1.4,1.9,1.3c0.4,0,0.9-0.2,1.2-0.6c0.3-0.3,0.5-0.7,0.6-1.2c0-0.3-0.3-0.5-0.5-0.5
			c-0.3,0-0.5,0.2-0.5,0.5c0,0,0,0,0,0.1c0,0,0,0,0,0.1c0,0,0,0.1,0,0.1s-0.1,0.1,0,0c0,0,0,0,0,0c0,0,0,0-0.1,0.1c0,0,0,0-0.1,0
			c0.1,0,0,0,0,0c0,0-0.1,0.1-0.2,0.1c0,0,0,0,0,0c0,0-0.1,0-0.1,0s0,0-0.1,0h0c0,0,0.1,0,0,0c-0.1,0-0.1,0-0.2,0c0,0-0.1,0,0,0
			c0,0,0,0-0.1,0c0,0-0.1,0-0.1,0c0,0-0.1,0,0,0c0.1,0,0,0,0,0c0,0-0.1,0-0.1,0c0,0,0,0-0.1,0c0,0,0,0,0,0c0,0-0.1-0.1-0.2-0.2
			c0,0,0-0.1,0,0c0,0,0,0,0-0.1c0,0,0-0.1,0-0.1c0-0.1,0,0.1,0,0c-0.1-0.3-0.3-0.4-0.6-0.3C105.4,107.1,105.2,107.3,105.3,107.6z"/>
		<path class="st1" d="M106.1,107.9c0.7,0.5,1.8,0.3,2.4-0.3c0.1-0.1,0.1-0.2,0.1-0.3c0-0.1,0-0.3-0.1-0.3c-0.2-0.2-0.5-0.2-0.7,0
			c0,0,0,0-0.1,0.1c0,0-0.1,0-0.1,0.1c0,0,0.1-0.1,0,0l0,0c0,0-0.1,0-0.1,0s0,0,0,0c0,0,0,0,0,0c0,0-0.1,0-0.1,0c-0.1,0-0.2,0-0.2,0
			c0,0,0.1,0,0.1,0c-0.1,0-0.3,0-0.4,0c0,0,0.1,0,0.1,0c-0.1,0-0.2,0-0.3,0h0c0.1,0,0.1,0,0,0c0,0-0.1,0-0.1-0.1
			c-0.2-0.1-0.6,0-0.7,0.2C105.8,107.4,105.8,107.7,106.1,107.9z"/>
		<path class="st1" d="M107,107.4c0.1,0,0.2,0,0.3,0c0.1,0,0.1,0,0.2,0c0,0,0.1,0,0.2-0.1c0,0,0.1-0.1,0.1-0.2c0,0,0-0.1,0-0.2
			c0,0,0-0.1,0-0.1c0-0.1-0.1-0.2-0.1-0.2c0,0-0.1,0-0.1-0.1c-0.1,0-0.2-0.1-0.3-0.1c-0.1,0-0.2,0-0.3,0c-0.1,0-0.1,0-0.2,0
			c0,0-0.1,0-0.2,0.1c0,0-0.1,0.1-0.1,0.2c0,0,0,0.1,0,0.2c0,0,0,0.1,0,0.1c0,0.1,0.1,0.2,0.1,0.2c0,0,0.1,0,0.1,0.1
			C106.8,107.4,106.9,107.4,107,107.4z"/>
		<path class="st1" d="M81.2,93.6c2,2.5,3.7,5.2,5.1,8c0.3,0.5,0.9,0.6,1.4,0.3c0.5-0.3,0.6-0.9,0.3-1.4c-1.5-3-3.3-5.8-5.4-8.5
			c-0.3-0.4-1-0.3-1.4,0C80.8,92.6,80.8,93.2,81.2,93.6z"/>
		<path class="st1" d="M82.5,91.4c0.2,0.2,0.2,0.5,0.1,0.6c0-0.1,0-0.1,0,0c0,0,0.1-0.1,0.1-0.1c-0.1,0.1,0.1,0,0.2-0.1
			c-0.2,0.1,0.2,0,0.2,0c0.6-0.1,1-0.2,1.6-0.2c0.6,0,1,0,1.6,0.2c0.6,0.2,1,0.3,1.5,0.6c0.5,0.3,1.1,0.1,1.4-0.3
			c0.3-0.4,0.1-1.1-0.3-1.4c-1.5-0.8-3.2-1.2-4.9-1.1c-0.8,0-1.7,0.1-2.4,0.6c-0.8,0.6-1.3,1.7-0.4,2.5c0.4,0.4,1,0.4,1.4,0
			C82.8,92.5,82.9,91.8,82.5,91.4z"/>
		<path class="st1" d="M88.1,115.7c1.8,3.8,5.4,6.6,9.4,7.8c4.3,1.3,8.9,0.6,12.8-1.5c2.2-1.2,4.2-2.8,5.8-4.7c0.3-0.4,0.4-1,0-1.4
			c-0.3-0.3-1.1-0.4-1.4,0c-2.6,3.1-6.2,5.4-10.2,6.1c-3.8,0.7-7.6-0.3-10.7-2.5c-1.7-1.3-3-2.9-3.9-4.8c-0.2-0.5-0.9-0.6-1.4-0.3
			C88,114.6,87.9,115.2,88.1,115.7z"/>
		<path class="st1" d="M117.8,106.3c0,1.8-0.4,3.6-1.1,5.2c-0.1,0.3-0.1,0.5,0.2,0.7c0.2,0.1,0.6,0.1,0.7-0.2
			c0.8-1.8,1.2-3.7,1.2-5.7C118.8,105.6,117.8,105.6,117.8,106.3z"/>
		<path class="st1" d="M86.3,106.4c0.2,1.5,0.4,3,0.7,4.5c0,0.3,0.4,0.4,0.6,0.3c0.3-0.1,0.4-0.3,0.3-0.6c-0.2-1.5-0.4-3-0.7-4.5
			c0-0.3-0.4-0.4-0.6-0.3C86.4,105.9,86.2,106.1,86.3,106.4z"/>
		<path class="st1" d="M85.5,108.6c0.1,0.9,0.3,1.8,0.4,2.7c0,0.3,0.4,0.4,0.6,0.3c0.3-0.1,0.4-0.3,0.3-0.6
			c-0.1-0.9-0.3-1.8-0.4-2.7c0-0.3-0.4-0.4-0.6-0.3C85.6,108,85.5,108.3,85.5,108.6z"/>
		<path class="st1" d="M116.4,119.2c0.7-1.2,1.4-2.4,2.1-3.6c0.1-0.2,0-0.6-0.2-0.7c-0.2-0.1-0.6,0-0.7,0.2
			c-0.7,1.2-1.4,2.4-2.1,3.6c-0.1,0.2,0,0.6,0.2,0.7C115.9,119.6,116.2,119.5,116.4,119.2z"/>
		<path class="st2" d="M105.9,132.8c0.6-0.7,0.8-1.7,0.4-2.6c-0.1-0.3-0.5-0.4-0.8-0.3c0.2-0.5,0.4-1,0.6-1.5c0.2-0.5-0.3-1-0.8-0.6
			c-0.3,0.3-0.7,0.7-1,1v0c0,0,0-0.1,0-0.1c0.1-0.3-0.2-0.6-0.4-0.6c-0.1-0.3-0.3-0.6-0.4-0.8c-0.1-0.2-0.4-0.3-0.6-0.2
			c0-0.3,0.1-0.6,0.1-0.9c0-0.6-0.9-0.7-1-0.2c0-0.1,0-0.2-0.1-0.2c-0.2-0.5-0.7-0.4-0.9-0.1c-0.3,0.1-0.4,0.3-0.3,0.6
			c0.3,1.1,0.3,2.3,0,3.4c-0.2,0.6-0.5,1.3-0.9,1.9c-0.3,0.5,0.3,0.9,0.7,0.6c0,0.2,0,0.4,0.3,0.6c0.3,0.1,0.6,0.1,0.7-0.1
			c0.2-0.2,0.2-0.5,0.1-0.7c0-0.1,0.1-0.2,0.1-0.3c0-0.1,0.1-0.2,0.1-0.3c0.1,0,0.2-0.2,0.3-0.3v0c0.1,0,0.3,0,0.4,0
			c0,0.4,0.6,0.6,0.9,0.3c0.2-0.2,0.4-0.4,0.6-0.6c0,0,0,0.1,0.1,0.1c-0.4,0.9-0.8,1.8-1.1,2.7c-0.6,0-1.2,0.1-1.8,0.2
			c0,0,0,0-0.1,0c-0.1,0-0.3-0.1-0.4-0.1c0.1-0.3-0.2-0.8-0.6-0.7c-0.5,0.1-0.9,0.1-1.4,0.2c-0.5,0.1-0.4,0.8,0,0.9
			c2.1,0.6,4.2,1.2,6.3,1.8c0.6,0.2,0.9-0.6,0.4-0.9c-0.3-0.1-0.5-0.3-0.8-0.4c0.1,0,0.2,0,0.3,0c0.6,0,0.6-0.9,0-1
			c-0.3,0-0.6,0-0.9,0c0.2-0.5,0.4-1,0.6-1.5c0,0.1,0.1,0.2,0.2,0.3c0,0.1,0.1,0.1,0.1,0.2v0C104.9,132.7,105.6,133.1,105.9,132.8z"
			/>
		<path class="st2" d="M101.7,134.4c0.3-0.3,0.5-0.6,0.6-0.9c0.1,0.2,0.3,0.4,0.4,0.6c0,0,0,0,0,0.1c0,0,0.1,0.1,0.1,0.1
			C102.5,134.5,102.1,134.5,101.7,134.4z M104,128.5c-0.1,0-0.2,0-0.2,0c0,0-0.1-0.1-0.1-0.1c0-0.1-0.1-0.2-0.1-0.3
			c0.3,0,0.5,0.1,0.7,0.1C104.1,128.3,104.1,128.4,104,128.5z M112.2,137.8C112.2,137.8,112.2,137.9,112.2,137.8
			c0,0.3,0,0.5-0.2,0.7C112.1,138.3,112.2,138.1,112.2,137.8z M111.5,136.1c-0.1-0.1-0.2-0.3-0.3-0.4c0.1,0,0.2,0,0.3,0v0
			C111.5,135.9,111.5,136,111.5,136.1z M105.3,131c0.1,0.3,0.3,0.6,0.4,0.8c0,0,0,0.1,0,0.1c0,0-0.1,0-0.2,0c-0.1,0-0.2,0-0.3,0
			C105.3,131.6,105.3,131.3,105.3,131z M107.5,130.4c0,0-0.1,0-0.2,0c0.2-0.1,0.3-0.2,0.3-0.4c0,0,0.1,0,0.1,0.1
			C107.6,130.2,107.5,130.3,107.5,130.4z M107.7,135 M108.7,134.1L108.7,134.1c0,0,0.1,0.1,0.2,0.2
			C108.9,134.2,108.8,134.2,108.7,134.1z M107.1,130.5c0.1,0,0.1,0,0.2,0c-0.1,0-0.2,0.2-0.2,0.3v0
			C107.1,130.6,107.1,130.6,107.1,130.5z M109.9,136.2c0-0.1,0-0.2-0.1-0.2h0C109.8,136.1,109.9,136.2,109.9,136.2
			C109.9,136.3,109.9,136.3,109.9,136.2z M114.3,134.2c-0.3-0.9-0.9-1.8-1.5-2.5c-0.9-1-1.9-1.7-3.1-2.3c-0.2-0.2-0.5-0.3-0.7-0.5
			c-0.2-0.1-0.3-0.1-0.4,0c-0.8-0.6-1.6-0.9-2.5-1.1c-1.1-0.4-2.2-0.6-3.3-0.6c-0.4,0-0.6,0.4-0.4,0.7c0.2,0.3,0.3,0.7,0.5,1
			c0.1,0.3,0.4,0.4,0.6,0.6c0,0,0.1,0.1,0.2,0.2c0,0,0,0,0,0.1c0,0,0,0.1,0,0.1v0c-0.2,0.5-0.3,1-0.3,1.6c0-0.4,0-0.8,0-1.2
			c0-0.3-0.2-0.4-0.4-0.5h0c0,0,0-0.1,0-0.2c0-0.6-0.8-0.6-1-0.1c0,0.1,0,0.2-0.1,0.3c-0.2-0.1-0.5,0-0.7,0.2
			c-0.2,0.3-0.4,0.6-0.6,1c-0.1,0-0.2,0.1-0.3,0.2c-0.3,0.5-0.6,1.1-0.9,1.7c-0.4,0.4-0.9,0.6-1.6,0.7c-0.6,0-0.6,1,0,1
			c0.6,0,1.1-0.2,1.5-0.4c0.1,0.1,0.3,0.2,0.6,0c0.2-0.1,0.3-0.3,0.5-0.4c0,0.1,0,0.2,0.1,0.3c0,0,0,0.1,0,0.1c-0.1,0-0.1,0-0.2,0.1
			c-0.5,0.1-0.5,0.8,0,0.9c1.3,0.4,2.7,0.4,4,0c0.4-0.1,0.5-0.7,0.1-0.9c-0.1-0.1-0.3-0.2-0.4-0.3c0.2,0,0.3-0.1,0.5-0.2
			c0.1,0.3,0.2,0.6,0.4,0.9c0,0.1,0.1,0.1,0.2,0.2c0,0.1,0,0.2,0.1,0.2c0,0.1,0,0.3,0.1,0.4c0.3,0.3,0.6,0.6,0.8,0.8
			c0.4,0.9,1.1,1.6,2.1,2c0,0,0.1,0,0.2,0c0,0,0.1,0.1,0.2,0.2c0.3,0.3,0.6,0.6,0.9,1c0,0,0.1,0.1,0.2,0.1c0.3,0.4,0.6,0.8,0.9,1.1
			c0.3,0.3,0.8,0.2,0.8-0.2c0-0.1,0-0.2,0-0.2c0,0,0,0,0.1,0c0.3,0.4,1.1,0.3,1.5,0c0.4-0.3,0.7-0.7,0.9-1.3c0.2,0,0.3,0,0.5-0.3
			C115,137.3,115,135.6,114.3,134.2z"/>
		<path class="st2" d="M79.9,138.9c-0.2,0-0.3,0-0.5-0.1c0,0,0.1,0,0.1,0h0c0.1,0,0.2,0,0.3,0C79.8,138.8,79.8,138.8,79.9,138.9z
			 M78.3,132.6c0,0.1-0.1,0.2-0.2,0.3c0-0.1-0.1-0.2-0.1-0.3c0.1-0.1,0.3-0.2,0.3-0.2C78.3,132.4,78.3,132.5,78.3,132.6z
			 M80.3,133.7C80.2,133.7,80.2,133.7,80.3,133.7C80.3,133.7,80.3,133.7,80.3,133.7z M78.2,135.8C78.2,135.8,78.2,135.8,78.2,135.8
			C78.2,135.7,78.2,135.7,78.2,135.8C78.2,135.8,78.2,135.8,78.2,135.8z M92.4,134.8c-0.4-0.1-0.9-0.3-1.3-0.4c-0.2,0-0.4,0-0.5,0.2
			c-0.3,0-0.6-0.1-0.9-0.2c0-0.1-0.1-0.2-0.2-0.3c-1.4-0.6-2.7-1.2-4.1-1.9c-0.3-0.2-0.7,0-0.7,0.3c-0.3-0.2-0.5-0.3-0.8-0.4
			c0.3-0.3,0.2-0.7-0.2-0.8c-0.3-0.1-0.6-0.2-0.9-0.3c-0.6-0.2-1.1-0.6-1.5-1c-0.3-0.3-0.8,0-0.8,0.3c-1.5,0-2.8,0.7-3.6,1.9
			c0,0.1,0,0.1-0.1,0.2c-0.3,0.6-0.4,1.2-0.5,1.8c-0.3,0.1-0.5,0.4-0.6,0.7c-0.4,0.8-0.3,1.9,0.1,2.6c0.7,1.7,2.6,2.8,4.4,2.4
			c0.3,0,0.4-0.3,0.3-0.6c0,0,0.1,0,0.1,0c0,0,0.1,0,0.1,0c0.1,0.1,0.3,0.1,0.4,0c0,0.1,0.1,0.1,0.2,0.2c0.2,0.2,0.5,0.2,0.7,0
			c0.5-0.4,1-0.9,1.2-1.6c0.2,0.1,0.4,0.1,0.6-0.1c0.1-0.1,0.3-0.3,0.4-0.4c0.1,0.3,0.4,0.5,0.7,0.3c1.3-0.7,2.6-1.5,3.8-2.5
			c0.1-0.1,0.1-0.1,0.2-0.3c1.1,0.3,2.2,0.6,3.3,0.6C92.9,135.8,93,135,92.4,134.8z"/>
		<path class="st1" d="M82.6,97.8c0.3,3.2-0.9,6.1-2.3,8.9c-1.5,3-3.1,5.9-3.8,9.1c-0.8,3.6-0.2,7.4,1.6,10.7c1.6,2.8,4.1,5,6.9,6.5
			c3.3,1.7,6.9,2.6,10.5,2.9c0.5,0,1-0.5,1-1c0-0.6-0.5-0.9-1-1c-5.7-0.5-12-2.7-15.3-7.7c-1.8-2.8-2.5-6.3-1.8-9.6
			c0.6-3.1,2.2-5.8,3.6-8.6c1.5-3.1,3-6.5,2.6-10.1c0-0.5-0.4-1-1-1C83.1,96.8,82.6,97.3,82.6,97.8z"/>
		<path class="st1" d="M80.3,128.3c-1.8,1.1-3.5,2.3-4.7,4c-1.1,1.5-1.5,3.5-1,5.3c0.6,2,2.3,3,4.3,3.5c1.2,0.3,2.3,0.4,3.5-0.1
			c0.9-0.4,1.7-1.2,2.6-1.7c2-1.3,4.2-2.1,6.6-2.5c0.5-0.1,0.8-0.7,0.7-1.2c-0.2-0.6-0.7-0.8-1.2-0.7c-1.9,0.3-3.7,0.9-5.4,1.8
			c-0.9,0.4-1.7,0.9-2.5,1.5c-0.6,0.5-1.3,1.1-2.1,1.2c-0.9,0.1-1.9-0.2-2.7-0.5c-0.6-0.3-1.2-0.6-1.6-1.3c-0.6-1.2-0.4-2.7,0.3-3.8
			c1-1.7,2.7-2.8,4.3-3.8C82.4,129.3,81.4,127.6,80.3,128.3z"/>
		<path class="st1" d="M94.3,135.8c2.3,0.6,4.6,0.4,6.9,0.5c1.7,0.1,3.6,0.4,5,1.6c1.3,1.1,1.9,2.9,3.4,3.9c1.7,1.1,3.8,0.4,5.1-0.9
			c2.8-3,1.5-7.5-1-10.3c-2.8-3.1-7.2-4.1-11.1-5c-3.9-0.8-8.5-1.8-11-5.3c-0.3-0.4-0.9-0.6-1.4-0.3c-0.4,0.3-0.7,0.9-0.3,1.4
			c2.1,3.1,5.7,4.6,9.2,5.5c3.8,0.9,7.9,1.3,11.2,3.4c2.5,1.6,4.9,5,3.7,8.2c-0.5,1.2-1.9,2.5-3.3,1.8c-0.6-0.3-1-1-1.4-1.6
			c-0.5-0.7-0.9-1.4-1.6-2c-1.5-1.4-3.6-2-5.7-2.2c-2.4-0.2-4.8,0.1-7.1-0.5C93.6,133.6,93,135.5,94.3,135.8z"/>
		<path class="st1" d="M96.8,135.5c2.4-2,4.2-4.7,5.1-7.7c0.2-0.6-0.8-0.9-0.9-0.3c-0.9,2.8-2.7,5.3-4.9,7.2
			C95.6,135.3,96.3,135.9,96.8,135.5z"/>
		<path class="st1" d="M148,19c0.9-4.6,1.8-9.1,2.8-13.8c-0.5,0.2-1,0.4-1.5,0.6c4.2,3.3,7.2,8,8.6,13.2c0.4,1.5,0.6,3,0.7,4.5
			c0.1,1.3,2.1,1.3,2,0c-0.3-5.9-2.7-11.6-6.6-16c-1.1-1.3-2.3-2.4-3.6-3.4c-0.5-0.4-1.3,0-1.5,0.6c-0.9,4.6-1.8,9.1-2.8,13.8
			c-0.1,0.5,0.2,1.1,0.7,1.2C147.3,19.8,147.9,19.5,148,19z"/>
		<path class="st1" d="M174.3,109.3c1.8,3.8,1.5,8.5-0.6,12.1c-1.2,2.1-3.1,3.5-4.8,5.2c-1.7,1.7-2.8,3.8-3.6,6
			c-0.8,2.1-1.3,4.4-2,6.5c-0.3,1-0.6,2.1-1.1,3.1c-0.2,0.5-0.5,1-0.7,1.5c-0.3,0.5-0.5,1-0.9,1.3c-0.6,0.5-1.5,0.3-2.1-0.1
			c-0.8-0.6-1.1-1.7-1.1-2.7c0-2.3,1.2-4.5,2.3-6.6c1.3-2.5,2.7-4.9,3.2-7.7c0.6-3,0.4-6.1-0.6-8.9c-0.4-1.2-2.3-0.7-1.9,0.5
			c0.9,2.6,1.1,5.3,0.5,8c-0.5,2.5-1.8,4.8-3,7c-1.2,2.3-2.4,4.7-2.5,7.4c-0.1,2.5,1.3,5.1,4.1,5.3c2.8,0.2,4-2.9,4.8-5.1
			c0.9-2.2,1.4-4.6,2.1-6.9c0.6-2.2,1.5-4.4,2.9-6.3c1.6-2.1,3.8-3.5,5.4-5.6c3.2-4.3,3.6-10.4,1.3-15.2c-0.2-0.5-0.9-0.6-1.4-0.3
			C174.2,108.2,174.1,108.8,174.3,109.3z"/>
		<path class="st1" d="M138.1,67c-0.2,6.3-2.1,12.2-3.5,18.3c-1.2,5.4-2,11-1,16.6c0.6,2.9,1.6,5.8,3.4,8.2c0.3,0.4,0.9,0.6,1.4,0.3
			c0.4-0.3,0.7-0.9,0.3-1.4c-3.1-4.3-3.8-9.5-3.5-14.7c0.3-5.8,2.1-11.3,3.4-17c0.8-3.4,1.4-6.9,1.5-10.4
			C140.1,65.7,138.1,65.7,138.1,67z"/>
		<path class="st2" d="M179.4,64.3c0.1,4.3-1.9,8.2-2.5,12.4c-0.3,2.2,0,4.4,0.4,6.7c0.4,2.3,0.6,4.6,0.6,6.9c0,2.6-0.3,5.3-0.7,7.9
			c-0.2,0.9,1.2,1.3,1.4,0.4c0.9-4.7,1-9.4,0.4-14.1c-0.3-2.3-0.9-4.5-0.7-6.8c0.2-2.1,0.8-4.2,1.4-6.2c0.6-2.3,1.3-4.7,1.2-7.1
			C180.8,63.3,179.4,63.3,179.4,64.3z"/>
		<path class="st1" d="M178,98.6c-0.8,5.7-3.9,11-8.4,14.4c-0.5,0.4,0,1.3,0.5,0.9c4.7-3.7,7.9-9.1,8.8-15.1
			C179.1,98.3,178.1,98,178,98.6z"/>
		<path class="st1" d="M177.6,54.1c1.8,7,2.7,14.2,2.8,21.4c0,7.2-0.8,14.4-2.4,21.4c-0.9,4-2.2,7.9-3.7,11.7
			c-0.2,0.5,0.2,1.1,0.7,1.2c0.6,0.2,1-0.2,1.2-0.7c2.7-6.9,4.5-14.1,5.4-21.3c0.9-7.3,1-14.7,0.1-22c-0.5-4.1-1.2-8.2-2.3-12.2
			C179.2,52.3,177.3,52.8,177.6,54.1z"/>
		<path class="st1" d="M140.1,127.5c2.1-1.8,3.7-4.2,4.5-6.8c0.2-0.5-0.2-1.1-0.7-1.2c-0.6-0.1-1,0.2-1.2,0.7
			c-0.1,0.3-0.2,0.6-0.3,0.9c0,0-0.1,0.3-0.1,0.2c0,0,0,0.1,0,0.1c0,0.1-0.1,0.3-0.2,0.4c-0.3,0.6-0.6,1.1-0.9,1.7
			c-0.1,0.1-0.2,0.3-0.3,0.4c0,0-0.1,0.1-0.1,0.2c0,0,0,0,0,0.1c0,0,0,0,0,0c-0.2,0.3-0.4,0.5-0.6,0.7c-0.4,0.5-0.9,0.9-1.4,1.3
			c-0.4,0.3-0.3,1,0,1.4C139.1,127.8,139.6,127.8,140.1,127.5z"/>
		<path class="st2" d="M181.2,104.7c0,2.4,1.2,4.6,3.1,6c0.3,0.2,0.7,0.2,1,0c0.3-0.2,0.4-0.5,0.5-0.9c0.3-2.2-0.8-4.4-2.6-5.8
			c-0.3-0.2-0.6-0.2-0.9,0c-0.3,0.1-0.5,0.3-0.6,0.6c-0.6,1.4,0,2.9,0.7,4.1c0.3,0.6,0.8,1.5,1.5,1.6c0.5,0.1,1,0,1.3-0.4
			c0.4-0.4,0.5-0.9,0.4-1.5c-0.1-0.7-0.5-1.4-0.8-2c-0.3-0.6-0.7-1.2-1.2-1.8c-0.3-0.3-0.6-0.6-1-0.6c-0.5-0.1-1,0.2-1.2,0.7
			c-0.3,0.6-0.1,1.5,0.1,2.1c0.5,1.4,1.4,2.6,2.7,3.4c0.6,0.4,1.5-0.1,1.5-0.9c0-1-0.3-1.9-0.7-2.9c-0.2-0.4-0.4-0.8-0.6-1.2
			c-0.3-0.4-0.6-0.9-1.1-1.1c-0.7-0.3-1.4-0.1-1.8,0.5c-0.3,0.3-0.3,0.9-0.3,1.3c0.1,0.9,0.4,1.9,0.9,2.7c0.5,0.9,1.2,1.7,1.9,2.4
			c0.6,0.5,1.4,0.3,1.7-0.4c0.3-0.7,0.1-1.4-0.2-2.1c-0.3-0.4-0.9-0.6-1.4-0.3c-0.4,0.3-0.6,0.9-0.3,1.4c0,0,0.1,0.3,0,0.1
			c0,0,0,0.3,0,0.1c0,0,0,0.3,0,0.1c0,0.1,0,0.2-0.1,0.3c0.6-0.1,1.1-0.3,1.7-0.4c-0.3-0.3-0.6-0.6-0.9-0.9c0,0-0.2-0.3-0.1-0.1
			c-0.1-0.1-0.1-0.2-0.2-0.3c-0.1-0.2-0.2-0.3-0.3-0.6c-0.1-0.2-0.2-0.4-0.3-0.6c0.1,0.2,0-0.1,0-0.1c0-0.1-0.1-0.2-0.1-0.3
			c-0.1-0.2-0.1-0.4-0.2-0.6c0-0.1-0.1-0.2,0-0.3c0,0.2,0,0.2,0,0c0,0,0-0.1,0-0.1c0-0.1,0-0.1,0,0c0,0,0-0.1,0-0.1c0-0.1,0,0,0,0.1
			c0-0.1,0-0.1,0,0c-0.1,0.1-0.3,0.2-0.4,0.2c-0.3-0.1-0.3-0.1-0.2,0c0,0,0,0,0,0c0,0,0.1,0.1,0.1,0.1c0,0,0.1,0.1,0.1,0.1
			c0-0.1,0-0.1,0,0c0,0.1,0.1,0.2,0.2,0.2c0.1,0.2,0.2,0.4,0.3,0.6c0,0.1,0.1,0.2,0.2,0.3c0.1,0.3,0-0.2,0,0.1
			c0.1,0.2,0.2,0.4,0.2,0.6c0,0.2,0.1,0.4,0.2,0.6c0,0,0,0.1,0,0.2c0-0.1,0-0.1,0,0s0,0.3,0,0.4c0.5-0.3,1-0.6,1.5-0.9
			c-0.1,0-0.2-0.1-0.3-0.2c0,0-0.3-0.2-0.1-0.1c-0.2-0.1-0.3-0.3-0.5-0.4c-0.1-0.1-0.1-0.1-0.2-0.2c0,0-0.2-0.2,0-0.1
			c-0.1-0.2-0.3-0.3-0.3-0.6c0-0.1-0.1-0.2-0.1-0.3c0,0,0-0.1-0.1-0.2c0,0,0-0.1,0,0c0,0.1,0,0,0,0c0,0,0-0.1,0-0.2
			c0-0.1-0.1-0.2-0.1-0.3c0-0.1,0-0.2-0.1-0.3c0-0.1,0-0.3,0-0.1c0,0,0-0.1,0-0.1c0-0.1,0,0.1,0,0.1c0,0,0,0.1,0,0.1
			c-0.4,0-0.8,0.1-1.2,0.2c0,0,0.1,0.1,0.1,0.1c0,0,0.1,0.1,0.1,0.1c0,0,0.1,0.1,0,0c-0.1-0.1,0,0.1,0.1,0.1c0,0,0,0.1,0.1,0.1
			c0.1,0.2,0.3,0.4,0.4,0.6c0.1,0.2,0.2,0.4,0.3,0.6c0,0.1,0.1,0.2,0.1,0.3c0,0,0,0.1,0,0.1c0,0.1,0-0.1,0,0.1
			c0.1,0.2,0.2,0.4,0.2,0.6c0,0.1,0,0.1,0,0c0-0.1,0.1-0.3,0.3-0.3c0,0,0.1,0,0.1,0c0.2,0,0.4,0.1,0.6,0.2c0.1,0.1,0.1,0,0,0
			c0,0,0-0.1-0.1-0.1c0-0.1-0.1-0.2-0.2-0.3c-0.1-0.2-0.3-0.4-0.4-0.6c0-0.1-0.1-0.2-0.2-0.3c0,0,0-0.1,0-0.1c0,0-0.1-0.3-0.1-0.1
			c0,0.1,0,0,0,0c0-0.1,0-0.1-0.1-0.2c0-0.1-0.1-0.3-0.1-0.3c0,0,0-0.1,0-0.1c0-0.3,0,0.1,0,0c0-0.1,0-0.3,0-0.3c0,0,0-0.1,0-0.1
			c0,0.2,0,0,0,0c0-0.1,0.1-0.3,0.1-0.4c-0.5,0.2-1,0.4-1.5,0.6c0.1,0.1,0.1,0.1,0,0c0,0,0.1,0.1,0.1,0.1c0.1,0.1,0.2,0.1,0.3,0.2
			c0.1,0.1,0.2,0.2,0.2,0.3c0,0,0.3,0.3,0.1,0.1c0.1,0.2,0.2,0.3,0.3,0.5c0,0.1,0.1,0.2,0.2,0.3c0,0,0.2,0.3,0.1,0.1
			c0.2,0.4,0.3,0.8,0.3,1.2c0-0.3,0,0.1,0,0.2c0,0.1,0,0.2,0,0.3c0,0.2,0,0.4,0,0.7c0.5-0.3,1-0.6,1.5-0.9c0.2,0.1-0.1-0.1-0.1-0.1
			c-0.1-0.1-0.2-0.2-0.3-0.3c-0.2-0.2-0.3-0.3-0.5-0.5c0,0-0.1-0.1-0.1-0.1c0.1,0.1,0,0.1,0,0c-0.1-0.1-0.1-0.2-0.2-0.3
			c-0.1-0.2-0.3-0.4-0.3-0.6c0-0.1-0.1-0.2-0.2-0.3c0-0.1,0-0.1,0,0c0,0,0-0.1,0-0.2c-0.1-0.2-0.2-0.4-0.2-0.7
			c0-0.2-0.1-0.5-0.1-0.7c0,0.3,0-0.1,0-0.2c0-0.1,0-0.2,0-0.3c0-0.5-0.4-1-1-1C181.6,103.7,181.2,104.1,181.2,104.7z"/>
		<path class="st1" d="M178.9,101.7c5.1,2.7,8.7,9.1,6.7,14.9c-0.9,2.6-3.3,5.5-6.3,5.3c-0.6,0-1.3-0.3-1.8-0.6
			c-0.4-0.3-0.9-0.8-0.8-1.3c0-0.4,0.6-0.6,1-0.6c0.7-0.2,1.4-0.3,2-0.7c1.5-0.9,2.4-2.5,2.4-4.2c-0.1-1.8-1.2-3.5-2.7-4.1
			c-0.5-0.2-1.1-0.1-1.4,0.3c-0.3,0.4-0.1,1.2,0.3,1.4c1.2,0.6,2.1,1.9,1.7,3.2c-0.2,0.6-0.6,1.2-1.1,1.6c-0.6,0.4-1.2,0.5-1.9,0.7
			c-0.8,0.2-1.5,0.6-2,1.3c-0.5,0.7-0.5,1.6-0.2,2.4c0.7,1.7,2.4,2.6,4.2,2.8c3.6,0.4,6.6-2.5,8-5.5c1.5-3.3,1.4-7.1,0-10.4
			c-1.4-3.4-3.9-6.3-7.2-8C178.8,99.4,177.8,101.1,178.9,101.7z"/>
		<path class="st1" d="M176.1,110.1c1.4,0,2.9,0.7,3.7,1.9c0.2,0.2,0.4,0.3,0.7,0.2c0.2-0.1,0.3-0.5,0.2-0.7c-1-1.5-2.7-2.4-4.5-2.4
			C175.4,109.1,175.4,110.1,176.1,110.1z"/>
		<path class="st1" d="M100.2,114.4c0,0,0.1,0.1,0.2,0.1c0,0.1,0.1,0.1,0.1,0.2c0,0.1,0,0.2,0,0.3c0-0.1,0,0-0.1,0.1
			c-0.2,0.1-0.2,0.1-0.1,0.1c0,0,0.1,0,0.1,0c0.1,0,0.2-0.1,0.3-0.1c0.2-0.1,0.4-0.1,0.6-0.2c0.2,0,0.4-0.1,0.6-0.1c0.1,0-0.1,0,0,0
			c0,0,0.1,0,0.2,0c0.1,0,0,0,0,0c-0.2,0-0.3-0.3-0.2-0.5c-0.1,0.2,0,0.6,0.2,0.7c0.3,0.1,0.5,0,0.7-0.2c0.1-0.2,0.1-0.5,0-0.7
			c-0.2-0.2-0.4-0.3-0.6-0.3c-0.4,0-0.7,0.1-1.1,0.2C100.8,114.1,100.5,114.2,100.2,114.4c-0.2,0-0.4,0.1-0.6,0.3
			c-0.2,0.3,0,0.7,0.3,0.8c0.3,0,0.6-0.1,0.6-0.3C100.6,114.8,100.4,114.5,100.2,114.4z"/>
		<path class="st2" d="M117.6,101.3c0,0-0.1-0.1-0.1-0.1C117.5,101.2,117.6,101.2,117.6,101.3C117.6,101.3,117.6,101.3,117.6,101.3z
			 M104.1,98.5c0,0,0-0.1,0.1-0.1c0,0,0,0,0,0.1c0,0.1,0.1,0.2,0.2,0.3C104.3,98.7,104.2,98.6,104.1,98.5z M124.3,98.6
			c-0.2-0.3-0.3-0.7-0.4-1.2c-0.2-1.1-1.2-2.2-1.9-3.1c-1-1.3-2.1-2.5-3.3-3.7c-0.6-0.6-0.8-1.4-0.7-2.2c-0.3-0.2-0.5-0.4-0.8-0.6
			c-0.1-0.1-0.2-0.1-0.3-0.2c-0.6-0.3-1.2-0.6-1.7-1.1c-0.6-0.5-1.3-0.4-1.6,0.2c-0.2,0-0.3,0-0.5,0c0-0.6-0.1-1.3-0.4-1.9
			c0-0.1-0.1-0.1-0.1-0.2l0.1-1.7c0-0.4-0.2-0.9-0.6-1c-0.4-0.2-0.9,0-1.2,0.3c-0.6,0.6-1.2,1.1-1.9,1.5c-1.1-0.3-2.1-0.5-3.2-0.7
			c-1.2-0.4-2.6-0.6-3.9-0.6c-2.1-0.2-4.1,0-6,0.9c0,0,0,0,0,0c-0.2,0-0.3,0-0.5,0c-0.1,0-0.3,0-0.4,0c-0.4,0-0.9,0-1.3,0
			c-0.5,0-1,0.3-1.1,0.9v0l0,0c-0.4-0.2-0.9-0.2-1.5,0c-0.9,0.4-0.9,1.5-0.6,2.3c0.2,0.6,0.5,1.2,0.9,1.6c0,0.1,0.1,0.3,0.1,0.4
			c-0.5,0.6-0.3,1.4-0.1,2.1c0.1,0.2,0.2,0.3,0.4,0.4c0,0.2-0.1,0.3,0,0.5c0.3,1.8,1,3.4,2.1,4.8c0.9,1.9,2.5,3.4,4.4,4.4
			c0,0,0,0.1,0.1,0.1c1.6,1.7,3.9,2.8,6.2,2.8c0.1,0.3,0.3,0.6,0.8,0.7c2.1,0.3,4.2,0.6,6.3,0.7c0.9,0,1.8,0,2.6-0.6
			c0.4-0.1,0.9-0.2,1.3-0.3c0.3,0.2,0.6,0.3,1,0.2c0.2-0.1,0.4-0.1,0.6-0.2c0,0,0.1,0,0.2,0c0.4,0,0.9,0,1.3,0
			c0.2-0.2,0.5-0.4,0.8-0.6c0,0,0.1-0.1,0.1-0.2c0.6-0.8,1.3-1.4,2-2.1c0.9-0.9,1.9-1.8,3-2.6C124.3,98.9,124.3,98.8,124.3,98.6z"/>
		<path class="st2" d="M112.6,100.3C112.6,100.3,112.6,100.3,112.6,100.3C112.6,100.3,112.6,100.3,112.6,100.3
			C112.6,100.3,112.6,100.3,112.6,100.3C112.6,100.3,112.6,100.3,112.6,100.3z"/>
		<path class="st3" d="M114.1,101.7C114.1,101.7,114.1,101.8,114.1,101.7L114.1,101.7C114.1,101.8,114.1,101.7,114.1,101.7z"/>
		<path class="st3" d="M95.4,95.1c0,0,0,0.1,0.1,0.2C95.5,95.2,95.4,95.1,95.4,95.1L95.4,95.1z"/>
		<path class="st1" d="M90.9,92c-1.2,0.7-0.5,2.2,0,3.1c0.4,0.9,0.9,1.8,1.5,2.6c1.2,1.7,2.6,3.2,4.3,4.5c3.6,2.8,7.9,4.4,12.4,4.7
			c2.7,0.2,5.5,0,8.2-0.6c1.2-0.3,0.7-2.2-0.5-1.9c-4.1,0.9-8.4,0.9-12.5-0.4c-3.6-1.1-6.7-3.1-9.2-6c-0.6-0.7-1.2-1.6-1.7-2.4
			c-0.3-0.5-0.5-0.9-0.8-1.4c-0.1-0.2-0.2-0.5-0.3-0.7c0,0,0-0.1-0.1-0.2c-0.1-0.3,0-0.1-0.1,0.1c-0.1,0.1-0.3,0.3-0.3,0.3
			c0,0,0,0,0.1,0C93,93.1,92,91.4,90.9,92z"/>
		<path class="st1" d="M90.6,85.6c5.5-2.5,11.9-2.9,17.7-1.1c1.2,0.4,1.8-1.6,0.5-1.9c-6.3-2-13.2-1.5-19.2,1.3
			c-0.5,0.2-0.6,0.9-0.3,1.4C89.6,85.7,90.2,85.8,90.6,85.6z"/>
		<path class="st4" d="M109.2,83.5c-0.3,0.6-0.6,1.3-0.9,2c0,0.1-0.1,0.3,0,0.4c0,0.1,0.1,0.3,0.2,0.3c0.2,0.1,0.6,0.1,0.7-0.2
			c0.3-0.6,0.6-1.3,0.9-2c0-0.1,0.1-0.3,0-0.4c0-0.1-0.1-0.3-0.2-0.3C109.6,83.3,109.2,83.3,109.2,83.5z"/>
		<path class="st1" d="M92.4,89.2c2.2,4,5.9,7,10.1,8.7c0.6,0.3,0.9-0.7,0.3-0.9c-3.9-1.6-7.4-4.5-9.5-8.2
			C93,88.1,92.1,88.6,92.4,89.2z"/>
		<path class="st4" d="M112.8,85.7c0.1,0.3,0.5,0.5,0.8,0.3c0.2-0.1,0.3-0.3,0.3-0.6c0-0.3-0.2-0.5-0.5-0.6c-0.3,0-0.5,0-0.7,0.3
			c-0.1,0.1-0.2,0.3-0.3,0.4c-0.1,0.1-0.1,0.3-0.2,0.4c-0.2,0.3-0.3,0.7-0.3,1.1c0,0.1,0,0.3,0.1,0.3c0.1,0.1,0.2,0.2,0.3,0.1
			c0.1,0,0.3,0,0.3-0.1c0.1-0.1,0.1-0.2,0.1-0.3c0,0,0,0,0-0.1c0,0,0,0.1,0,0.1c0-0.1,0-0.3,0.1-0.4c0,0,0-0.1,0-0.1c0,0,0,0,0,0
			c0,0.1,0,0.1,0,0c0-0.1,0-0.1,0.1-0.2c0.1-0.1,0.1-0.3,0.2-0.4c0,0,0.1-0.1,0.1-0.2c0,0,0,0.1,0,0l0,0c0,0-0.1,0.1-0.1,0.1h0
			c0,0-0.1,0-0.1,0c0,0,0,0,0,0c0,0-0.1,0-0.1,0c0,0,0,0,0,0c-0.2-0.3-0.2-0.4-0.2-0.3c0,0,0-0.1,0-0.1c0,0,0,0,0,0c0,0,0-0.1,0-0.1
			c0,0,0,0,0,0c0,0,0,0,0-0.1c0,0,0,0,0,0c0-0.1,0,0,0,0c0,0,0,0,0.1-0.1c0,0,0.1,0,0.1,0c0,0,0.1,0,0.1,0c0.3,0.3,0.3,0.5,0.3,0.3
			c0-0.3-0.4-0.4-0.6-0.3C112.9,85.1,112.8,85.4,112.8,85.7z"/>
		<path class="st4" d="M109.1,85.2c0-0.1,0-0.2,0-0.3c0,0,0,0.1,0,0.1c0-0.3,0.1-0.5,0.2-0.8c0,0,0,0,0,0c0,0,0,0,0,0c0,0,0,0,0-0.1
			c0,0,0-0.1,0.1-0.2c0.1-0.1,0.1-0.2,0.2-0.3c0.1-0.1,0.1-0.3,0-0.4c0-0.1-0.1-0.3-0.2-0.3c-0.1,0-0.3-0.1-0.4,0
			c-0.1,0-0.2,0.1-0.3,0.2c-0.4,0.6-0.7,1.3-0.7,2c0,0.3,0.3,0.5,0.5,0.5C108.9,85.7,109,85.5,109.1,85.2z"/>
		<path class="st1" d="M118.7,103.9c-0.7-0.4-1.5,0-1.6,0.8c-0.1,0.8,0.5,1.4,1.3,1.3c0.6,0,1-0.6,1.4-1c0.3-0.4,0.7-0.8,1-1.2
			c1.4-1.7,2.7-3.4,3.9-5.2c0.3-0.4,0.1-1.1-0.3-1.4c-0.5-0.3-1.1-0.1-1.4,0.3c-0.8,1.2-1.6,2.4-2.5,3.5c-0.4,0.6-0.9,1.1-1.3,1.6
			c-0.2,0.3-0.4,0.5-0.7,0.8c-0.1,0.1-0.3,0.3-0.4,0.4c0,0-0.1,0.1-0.2,0.2c0,0.1,0,0,0.1,0c0.2,0,0.3,0,0.5,0c0,0,0.1,0,0.1,0
			c0.1,0.1,0.3,0.3,0.3,0.3c0,0.3-0.1,0.6-0.1,0.9c-0.1,0.1-0.3,0.2-0.4,0.3h0c-0.3,0-0.5-0.1-0.8-0.1c0,0,0,0,0,0
			c0.5,0.3,1.1,0.1,1.4-0.3C119.3,104.9,119.2,104.2,118.7,103.9z"/>
		<path class="st1" d="M107.4,99.7c3.5,1,7.2,1.3,10.8,0.9c0.6-0.1,0.6-1.1,0-1c-3.5,0.4-7.1,0.2-10.5-0.8
			C107.1,98.5,106.8,99.5,107.4,99.7z"/>
		<path class="st1" d="M112.9,87c4.1,2.7,7.5,6.5,9.9,10.8c0.6,1.1,2.3,0.1,1.7-1c-2.5-4.7-6.2-8.6-10.6-11.5
			C112.8,84.5,111.8,86.2,112.9,87z"/>
		<path class="st1" d="M89.3,85.3c0.3,2.5,0.6,4.9,0.9,7.4c0,0.5,0.4,1,1,1c0.5,0,1.1-0.5,1-1c-0.3-2.5-0.6-4.9-0.9-7.4
			c0-0.5-0.4-1-1-1C89.8,84.3,89.3,84.8,89.3,85.3z"/>
		<path class="st1" d="M109.4,85.5c0.1-0.3,0.2-0.5,0.3-0.7c0-0.1,0.1-0.2,0.1-0.3c0,0,0-0.1,0.1-0.2c0,0.1,0,0.1,0,0
			c0.1-0.2,0.2-0.4,0.3-0.6c0-0.1,0.1-0.2,0.2-0.3c0.1-0.2-0.1,0.1,0,0c0.1-0.1,0.3-0.3,0.4-0.4c0.1-0.1,0.1-0.1,0,0
			c0,0,0.1,0,0.1-0.1c0.1,0,0.2-0.1,0.3-0.2c-0.2,0.1,0,0,0.1,0c0.1,0,0.2,0,0.3-0.1c-0.2,0,0,0,0.1,0c0,0,0.1,0,0.2,0
			c-0.1,0-0.1,0,0,0c0.1,0,0.1,0,0,0c0,0,0.1,0,0.1,0c0,0,0.1,0,0.1,0.1c-0.1-0.1-0.1-0.1,0,0c0,0,0.1,0.1,0.1,0.1
			c-0.1-0.1-0.1-0.1,0,0c0,0.1,0.1,0.1,0.1,0.2c0,0.1,0,0.1,0,0c0,0,0,0.1,0,0.2c0,0,0,0.1,0,0.2c0,0.1,0,0.1,0,0.1c0-0.1,0,0,0,0.1
			c0,0.1,0,0.1,0,0.2c0,0.1,0,0.3,0,0.4c0,0.1,0,0.2,0,0.3c0,0.1,0,0.1,0,0.2c0-0.1,0-0.1,0,0c0,0.2-0.1,0.5-0.1,0.7
			c0,0.2-0.1,0.4-0.2,0.7c0,0-0.1,0.4-0.1,0.2c0,0.1-0.1,0.3-0.2,0.3c-0.3,0.5-0.1,1.1,0.3,1.4c0.5,0.3,1.1,0.1,1.4-0.3
			c0.5-0.9,0.7-1.9,0.9-2.9c0.1-1,0.1-2.1-0.5-2.9c-0.6-0.9-1.7-1.3-2.8-1.1c-0.9,0.2-1.7,0.7-2.2,1.4c-0.7,0.9-1.1,1.9-1.5,3
			c-0.2,0.5,0.2,1.1,0.7,1.2C108.8,86.3,109.2,86.1,109.4,85.5z"/>
	</g>
	<g>
		<g>
			<g>
				<path class="st2" d="M330.6,38.6l-6.6,0c-4.6,0-7.9,4.3-6.8,8.7c0,0.1,0.1,0.3,0.1,0.4c0.7,2.7,0.1,5.5-1.5,7.7L289,93.1
					c-0.1-2.8-0.2-5.5-0.2-8.4c0-13.5,1.6-26.6,4.4-37.4c1.1-4.4-2.2-8.7-6.8-8.7l-6.6,0c-2.1,0-4,1.5-4.5,3.5
					c-3.3,12.5-5.1,27.2-5.1,42.6c0,16.9,2.2,33,6.1,46.2c0.6,2,2.4,3.3,4.5,3.3l6.6,0c4.7,0,8.1-4.5,6.7-9
					c-0.1-0.2-0.1-0.4-0.2-0.5c-0.8-2.7-0.3-5.7,1.4-8l26.2-36.8c0,1.6,0.1,3.3,0.1,4.9c0,15-1.8,29.2-5.2,40.4c-1.3,4.5,2,9,6.7,9
					l6.6,0c2,0,3.9-1.3,4.5-3.3c3.9-13.1,6.1-29.3,6.1-46.2c0-15.4-1.8-30.1-5.1-42.6C334.5,40.1,332.7,38.6,330.6,38.6z"/>
			</g>
		</g>
		<g>
			<g>
				<path class="st2" d="M489.8,86.4c0-25.7-10.7-51.7-34.6-51.7s-34.6,25.9-34.6,51.7c0,16.2,2,31.7,5.7,44.4
					c0.6,2,2.4,3.3,4.5,3.3l6.6,0c4.7,0,8-4.5,6.7-8.9c-2.7-9.6-4.4-21.2-4.8-33.6c5.3,1.3,10.7,2,16.2,2c5.2,0,10.4-0.6,15.4-1.8
					c-0.4,12.4-2,23.9-4.8,33.4c-1.3,4.5,2.1,8.9,6.7,8.9l6.6,0c2.1,0,3.9-1.3,4.5-3.3C487.8,118.1,489.8,102.6,489.8,86.4z
					 M455.6,74.9c-3.5,0-7-0.4-10.3-1.1c-2.6-0.6-4.1-3.4-3.4-6c2.4-8,6.6-14.4,13.3-14.4c6.7,0,10.9,6.5,13.3,14.5
					c0.8,2.6-0.8,5.4-3.5,6C462,74.6,458.8,74.9,455.6,74.9z"/>
			</g>
		</g>
		<g>
			<g>
				<path class="st2" d="M389,74l22.5-31.7c1.1-1.5,0-3.7-1.9-3.7h-14.8c-2.3,0-4.4,1.1-5.7,2.9l-21.5,30.2c0.7-8.8,2-17.1,3.9-24.4
					c1.2-4.4-2.3-8.7-6.8-8.7l-6.6,0c-2.1,0-4,1.5-4.5,3.5c-3.3,12.5-5.1,27.2-5.1,42.6c0,16.9,2.2,33,6.1,46.2
					c0.6,2,2.4,3.3,4.5,3.3l6.6,0c4.7,0,8.1-4.5,6.7-9c-1.8-6-3.1-12.8-4-20.1c-0.1-1.2,0.2-2.3,0.8-3.3l6.4-9
					c1-1.4,2.8-2.2,4.5-1.9c8.5,1.5,15,8.9,15,17.9v20.8c0,2.6,2.1,4.7,4.7,4.7h9.3c2.6,0,4.7-2.1,4.7-4.7v-20.8
					C413.8,92.7,403.4,79,389,74z"/>
			</g>
		</g>
		<g>
			<g>
				<path class="st2" d="M252.6,38.6l-6.5,0c-4.6,0-8,4.3-6.9,8.8c1.6,6.2,2.8,13.2,3.5,20.7c0.2,2.3-1.2,4.5-3.5,5
					c-3.9,1-8,1.6-12.1,1.6s-8.2-0.5-12.1-1.6c-2.2-0.6-3.7-2.7-3.5-5c0.7-7.4,1.9-14.4,3.5-20.7c1.2-4.4-2.3-8.8-6.9-8.8l-6.5,0
					c-2.1,0-4,1.5-4.5,3.5c-3.3,12.5-5.1,27.2-5.1,42.6c0,16.9,2.2,33,6.1,46.2c0.6,2,2.4,3.3,4.5,3.3l6.6,0c4.7,0,8-4.5,6.7-9
					c-2.8-9.6-4.6-21.3-5.1-33.9c5.3,1.3,10.7,2,16.2,2c5.5,0,11-0.7,16.2-2c-0.5,12.5-2.2,24.3-5.1,33.8c-1.3,4.5,2,9,6.7,9l6.6,0
					c2,0,3.9-1.3,4.5-3.3c3.9-13.1,6.1-29.3,6.1-46.2c0-15.4-1.8-30.1-5.1-42.6C256.6,40.1,254.8,38.6,252.6,38.6z"/>
			</g>
		</g>
		<g>
			<g>
				<path class="st2" d="M61.7,84.8c5.8-6.3,9-15.1,7.6-24.6c-1.9-13.3-12.9-23.8-26.2-25.3C27,33,13,44.1,10.2,59.1
					c-0.5,2.9,1.7,5.5,4.6,5.5l8,0c2.8,0,5.4-1.7,6.4-4.3c2-4.8,7.2-7.9,12.9-6.7c4.3,0.9,7.7,4.3,8.6,8.6c1.5,7.3-4,13.7-11,13.7
					h-0.8c-3.9,0-7,3.1-7,7v4.7c0,3.9,3.1,7,7,7h0.4c6.7,0,12.7,4.8,13.6,11.5c1,8.1-5.3,15-13.1,15c-5.7,0-10.5-3.6-12.4-8.6
					c-1-2.8-3.6-4.6-6.6-4.6l-7.9,0c-2.9,0-5.1,2.6-4.6,5.4c2.8,16.2,17.8,28.2,35.1,26.3c14.5-1.6,26.3-13.3,28.1-27.9
					C72.6,101.1,68.6,91.4,61.7,84.8z"/>
			</g>
		</g>
	</g>
	<path class="st0" d="M51.5,60.5c-0.3-0.6-3.3-2-3.5-2.6c-1.9-2.5-6.4-2.6-8.7-2.6C37.8,71.8,59.4,73.4,51.5,60.5z"/>
	<path class="st1" d="M37.4,54.1c0.3,5.5,2,11.3,6.9,14.4c2.3,1.4,5.4,2.2,7.7,0.3c2.2-1.8,2.3-5.1,0.7-7.4c-0.7-1-1.7-1.8-2.7-2.7
		c-0.8-0.7-3.6-3.8-3.6-2.5c0,2.2,1.7,3.5,3.2,4.8c0.7,0.6,1.5,1.4,1.8,2.3c0.4,0.9,0.4,2.1,0,3c-1.2,2.2-3.8,1.7-5.6,0.7
		c-1.9-1-3.4-2.7-4.4-4.7c-1.4-2.5-1.8-5.5-2-8.3C39.4,53.4,37.4,53.5,37.4,54.1z"/>
</g>
</svg>
