<?xml version="1.0" encoding="utf-8"?>
<!-- Generator: Adobe Illustrator 24.1.2, SVG Export Plug-In . SVG Version: 6.00 Build 0)  -->
<svg version="1.1" id="Layer_1" xmlns="http://www.w3.org/2000/svg" xmlns:xlink="http://www.w3.org/1999/xlink" x="0px" y="0px"
	 viewBox="0 0 25 25" style="enable-background:new 0 0 25 25;" xml:space="preserve">
<style type="text/css">
	.st0{fill:#729EFC;}
	.st1{fill:#98A1A7;}
</style>
<path class="st0" d="M12.5,0C5.61,0,0,5.61,0,12.5S5.61,25,12.5,25C19.39,25,25,19.39,25,12.5S19.39,0,12.5,0z M12.5,1.21
	c4.39,0,8.2,2.53,10.06,6.2C18.18,8.94,11.68,8.33,8.44,4.6C8.32,4.46,8.13,4.38,7.93,4.4C7.74,4.42,7.57,4.52,7.47,4.69
	C6.22,6.75,4.19,8.19,1.9,8.67C3.47,4.33,7.62,1.21,12.5,1.21z M12.5,23.79c-6.22,0-11.29-5.06-11.29-11.29
	c0-0.88,0.11-1.73,0.3-2.54c2.62-0.37,5-1.81,6.56-3.98c3.74,3.62,10.45,4.16,14.98,2.55c0.47,1.24,0.74,2.58,0.74,3.98
	C23.79,18.72,18.72,23.79,12.5,23.79z M15.74,18.49c-1.79,1.79-4.69,1.79-6.48,0c-0.24-0.24-0.62-0.24-0.86,0
	c-0.24,0.24-0.24,0.62,0,0.86c1.13,1.13,2.61,1.69,4.1,1.69c1.48,0,2.97-0.57,4.1-1.69c0.24-0.24,0.24-0.62,0-0.86
	C16.36,18.25,15.98,18.25,15.74,18.49z M8.96,13.78c0,0.33,0.27,0.61,0.61,0.61s0.61-0.27,0.61-0.61c0-1.09-0.89-1.98-1.98-1.98
	c-1.09,0-1.98,0.89-1.98,1.98c0,0.33,0.27,0.61,0.61,0.61c0.34,0,0.61-0.27,0.61-0.61c0-0.42,0.34-0.76,0.76-0.76
	C8.61,13.02,8.96,13.36,8.96,13.78z M16.81,11.81c-1.09,0-1.98,0.89-1.98,1.98c0,0.33,0.27,0.61,0.61,0.61
	c0.34,0,0.61-0.27,0.61-0.61c0-0.42,0.34-0.76,0.76-0.76c0.42,0,0.76,0.34,0.76,0.76c0,0.33,0.27,0.61,0.61,0.61
	s0.61-0.27,0.61-0.61C18.78,12.69,17.9,11.81,16.81,11.81z"/>
</svg>
